SplineFontDB: 3.0
FontName: Jost-Bold
FullName: Jost* 700 Bold
FamilyName: Jost*
Weight: Bold
Copyright: Copyright (c) 2018, Owen Earl,,,
UComments: "2018-6-8: Created with FontForge (http://fontforge.org)"
Version: 003.200
ItalicAngle: 0
UnderlinePosition: -100
UnderlineWidth: 50
Ascent: 800
Descent: 200
InvalidEm: 0
LayerCount: 2
Layer: 0 0 "Back" 1
Layer: 1 0 "Fore" 0
XUID: [1021 69 1495626776 12280187]
FSType: 0
OS2Version: 0
OS2_WeightWidthSlopeOnly: 0
OS2_UseTypoMetrics: 0
CreationTime: 1528476916
ModificationTime: 1533241915
PfmFamily: 17
TTFWeight: 700
TTFWidth: 5
LineGap: 100
VLineGap: 0
OS2TypoAscent: 825
OS2TypoAOffset: 0
OS2TypoDescent: -225
OS2TypoDOffset: 0
OS2TypoLinegap: 100
OS2WinAscent: 900
OS2WinAOffset: 0
OS2WinDescent: 300
OS2WinDOffset: 0
HheadAscent: 1030
HheadAOffset: 0
HheadDescent: -350
HheadDOffset: 0
OS2CapHeight: 700
OS2XHeight: 460
OS2Vendor: 'PfEd'
Lookup: 1 0 0 "Tabular Numbers lookup" { "Tabular Numbers lookup"  } ['tnum' ('DFLT' <'dflt' > 'grek' <'dflt' > 'latn' <'dflt' > ) ]
Lookup: 1 0 0 "alt a" { "alt a"  } ['ss01' ('DFLT' <'dflt' > 'latn' <'dflt' > ) ]
Lookup: 258 0 0 "Lets get our kern on" { "kernin like nobodys business" [150,0,4] } ['kern' ('DFLT' <'dflt' > 'latn' <'dflt' > ) ]
MarkAttachClasses: 1
DEI: 91125
KernClass2: 16 14 "kernin like nobodys business"
 15 slash seven V W
 175 quotedbl quotesingle asterisk grave dieresis ordfeminine macron degree acute ordmasculine circumflex breve dotaccent ring tilde quoteleft quoteright quotedblleft quotedblright
 17 nine question F P
 107 A L backslash Agrave Aacute Acircumflex Atilde Adieresis Aring Amacron Abreve Aogonek Lacute uni013B Lslash
 26 three eight B C germandbls
 5 K X Z
 125 at D G O Ograve Oacute Ocircumflex Otilde Odieresis Oslash Dcaron Dcroat Gcircumflex Gbreve Gdotaccent uni0122 Omacron Obreve
 158 a h m n s agrave aacute acircumflex atilde adieresis aring egrave eacute ecircumflex edieresis ntilde amacron abreve aogonek hcircumflex nacute uni0146 ncaron

StartChar: H
Encoding: 72 72 0
Width: 786
VWidth: 0
Flags: HMW
LayerCount: 2
Fore
SplineSet
120 293 m 1
 120 445 l 1
 650 445 l 1
 650 293 l 1
 120 293 l 1
544 700 m 1
 713 700 l 1
 713 0 l 1
 544 0 l 1
 544 700 l 1
74 700 m 1
 243 700 l 1
 243 0 l 1
 74 0 l 1
 74 700 l 1
EndSplineSet
EndChar

StartChar: O
Encoding: 79 79 1
Width: 821
VWidth: 0
Flags: HMW
LayerCount: 2
Fore
SplineSet
213 350 m 0
 213 226 292 140 410 140 c 0
 528 140 608 226 608 350 c 0
 608 474 532 560 410 560 c 0
 292 560 213 474 213 350 c 0
34 350 m 0
 34 566 196 716 410 716 c 0
 626 716 788 566 788 350 c 0
 788 134 630 -22 410 -22 c 0
 190 -22 34 134 34 350 c 0
EndSplineSet
EndChar

StartChar: I
Encoding: 73 73 2
Width: 320
VWidth: 0
Flags: HMW
LayerCount: 2
Fore
SplineSet
74 700 m 1
 246 700 l 1
 246 0 l 1
 74 0 l 1
 74 700 l 1
EndSplineSet
EndChar

StartChar: C
Encoding: 67 67 3
Width: 700
VWidth: 0
Flags: HMW
LayerCount: 2
Fore
SplineSet
219 350 m 0
 219 222 315 145 428 145 c 0
 527 145 591 188 637 238 c 1
 637 54 l 1
 581 11 520 -16 418 -16 c 0
 193 -16 34 132 34 350 c 0
 34 568 193 716 418 716 c 0
 520 716 581 689 637 646 c 1
 637 462 l 1
 591 512 527 555 428 555 c 0
 315 555 219 478 219 350 c 0
EndSplineSet
EndChar

StartChar: E
Encoding: 69 69 4
Width: 603
VWidth: 0
Flags: HMW
LayerCount: 2
Fore
SplineSet
186 0 m 1
 186 140 l 1
 540 140 l 1
 540 0 l 1
 186 0 l 1
186 560 m 1
 186 700 l 1
 540 700 l 1
 540 560 l 1
 186 560 l 1
186 300 m 1
 186 436 l 1
 520 436 l 1
 520 300 l 1
 186 300 l 1
74 700 m 1
 237 700 l 1
 237 0 l 1
 74 0 l 1
 74 700 l 1
EndSplineSet
EndChar

StartChar: F
Encoding: 70 70 6
Width: 553
VWidth: 0
Flags: HMW
LayerCount: 2
Fore
SplineSet
186 554 m 1
 186 700 l 1
 500 700 l 1
 500 554 l 1
 186 554 l 1
186 280 m 1
 186 417 l 1
 490 417 l 1
 490 280 l 1
 186 280 l 1
74 700 m 1
 237 700 l 1
 237 0 l 1
 74 0 l 1
 74 700 l 1
EndSplineSet
EndChar

StartChar: G
Encoding: 71 71 7
Width: 814
VWidth: 0
Flags: HMW
LayerCount: 2
Fore
SplineSet
420 253 m 1
 420 383 l 1
 775 383 l 1
 686 253 l 1
 420 253 l 1
775 383 m 1
 787 161 656 -22 417 -22 c 0
 194 -22 34 128 34 350 c 0
 34 572 200 716 423 716 c 0
 571 716 673 647 739 550 c 1
 588 472 l 1
 556 527 505 568 423 568 c 0
 306 568 211 488 211 350 c 0
 211 212 300 125 423 125 c 0
 579 125 624 245 624 380 c 1
 775 383 l 1
EndSplineSet
EndChar

StartChar: T
Encoding: 84 84 8
Width: 561
VWidth: 0
Flags: HMW
LayerCount: 2
Fore
SplineSet
4 548 m 1
 4 700 l 1
 558 700 l 1
 558 548 l 1
 366 548 l 1
 366 0 l 1
 196 0 l 1
 196 548 l 1
 4 548 l 1
EndSplineSet
EndChar

StartChar: L
Encoding: 76 76 9
Width: 528
VWidth: 0
Flags: HMW
LayerCount: 2
Fore
SplineSet
186 0 m 1
 186 146 l 1
 524 146 l 1
 524 0 l 1
 186 0 l 1
74 700 m 1
 243 700 l 1
 243 0 l 1
 74 0 l 1
 74 700 l 1
EndSplineSet
EndChar

StartChar: D
Encoding: 68 68 10
Width: 733
VWidth: 0
Flags: HMW
LayerCount: 2
Fore
SplineSet
186 550 m 1
 186 700 l 1
 324 700 l 2
 553 700 700 566 700 350 c 1
 524 350 l 1
 524 500 426 550 318 550 c 2
 186 550 l 1
324 0 m 2
 186 0 l 1
 186 150 l 1
 318 150 l 2
 426 150 524 200 524 350 c 1
 700 350 l 1
 700 134 553 0 324 0 c 2
74 700 m 1
 248 700 l 1
 248 0 l 1
 74 0 l 1
 74 700 l 1
EndSplineSet
EndChar

StartChar: Q
Encoding: 81 81 11
Width: 863
VWidth: 0
Flags: HMW
LayerCount: 2
Fore
SplineSet
213 350 m 0
 213 214 308 127 426 127 c 0
 544 127 627 207 627 331 c 0
 627 455 548 560 414 560 c 0
 296 560 213 474 213 350 c 0
34 350 m 0
 34 566 200 716 414 716 c 0
 630 716 788 566 788 350 c 0
 788 134 634 -22 414 -22 c 0
 194 -22 34 134 34 350 c 0
356 300 m 1
 532 300 l 1
 870 -12 l 1
 688 -12 l 1
 356 300 l 1
EndSplineSet
EndChar

StartChar: A
Encoding: 65 65 12
Width: 735
VWidth: 0
Flags: HMW
LayerCount: 2
Fore
SplineSet
184 135 m 1
 196 264 l 1
 544 264 l 1
 554 135 l 1
 184 135 l 1
368 442 m 1
 270 217 l 1
 277 179 l 1
 190 0 l 1
 -2 0 l 1
 368 744 l 1
 736 0 l 1
 544 0 l 1
 460 172 l 1
 466 216 l 1
 368 442 l 1
EndSplineSet
EndChar

StartChar: R
Encoding: 82 82 13
Width: 647
VWidth: 0
Flags: HMW
LayerCount: 2
Fore
SplineSet
248 317 m 1
 425 317 l 1
 644 0 l 1
 445 0 l 1
 248 317 l 1
74 700 m 1
 243 700 l 1
 243 0 l 1
 74 0 l 1
 74 700 l 1
180 556 m 1
 180 700 l 1
 330 700 l 2
 508 700 602 607 602 471 c 0
 602 335 508 242 330 242 c 2
 180 242 l 1
 180 374 l 1
 317 374 l 2
 385 374 426 407 426 465 c 0
 426 523 385 556 317 556 c 2
 180 556 l 1
EndSplineSet
EndChar

StartChar: V
Encoding: 86 86 14
Width: 735
VWidth: 0
Flags: HMW
LayerCount: 2
Fore
SplineSet
368 283 m 1
 538 700 l 1
 736 700 l 1
 368 -44 l 1
 -2 700 l 1
 197 700 l 1
 368 283 l 1
EndSplineSet
EndChar

StartChar: M
Encoding: 77 77 15
Width: 891
VWidth: 0
Flags: HMW
LayerCount: 2
Fore
SplineSet
620 486 m 1
 744 735 l 1
 858 0 l 1
 678 0 l 1
 620 486 l 1
147 735 m 1
 270 486 l 1
 212 0 l 1
 34 0 l 1
 147 735 l 1
744 735 m 1
 744 510 l 1
 446 65 l 1
 147 510 l 1
 147 735 l 1
 446 308 l 1
 744 735 l 1
EndSplineSet
EndChar

StartChar: W
Encoding: 87 87 16
Width: 1065
VWidth: 0
Flags: HMW
LayerCount: 2
Fore
SplineSet
373 159 m 1
 307 -42 l 1
 4 700 l 1
 205 700 l 1
 373 159 l 1
758 -42 m 1
 692 159 l 1
 860 700 l 1
 1061 700 l 1
 758 -42 l 1
307 -42 m 1
 284 177 l 1
 532 735 l 1
 780 177 l 1
 758 -42 l 1
 532 380 l 1
 307 -42 l 1
EndSplineSet
EndChar

StartChar: N
Encoding: 78 78 17
Width: 793
VWidth: 0
Flags: HMW
LayerCount: 2
Fore
SplineSet
78 524 m 1
 74 735 l 1
 715 176 l 1
 720 -35 l 1
 78 524 l 1
557 700 m 1
 720 700 l 1
 720 -35 l 1
 557 150 l 1
 557 700 l 1
74 735 m 1
 237 550 l 1
 237 0 l 1
 74 0 l 1
 74 735 l 1
EndSplineSet
EndChar

StartChar: a
Encoding: 97 97 18
Width: 544
VWidth: 0
Flags: HMW
LayerCount: 2
Fore
SplineSet
176 138 m 0
 176 104 202 89 242 89 c 0
 297 89 345 112 345 186 c 1
 361 130 l 1
 361 41 286 -10 191 -10 c 0
 89 -10 24 41 24 128 c 0
 24 222 105 279 223 279 c 0
 292 279 358 252 378 230 c 1
 378 158 l 1
 344 184 310 197 258 197 c 0
 206 197 176 174 176 138 c 0
118 318 m 1
 66 420 l 1
 119 445 193 473 276 473 c 0
 400 473 490 420 490 324 c 2
 490 0 l 1
 345 0 l 1
 345 294 l 2
 345 333 314 358 264 358 c 0
 198 358 140 331 118 318 c 1
EndSplineSet
Substitution2: "alt a" a.alt
EndChar

StartChar: X
Encoding: 88 88 19
Width: 686
VWidth: 0
Flags: HMW
LayerCount: 2
Fore
SplineSet
458 700 m 1
 668 700 l 1
 448 359 l 1
 682 0 l 1
 473 0 l 1
 345 232 l 1
 213 0 l 1
 4 0 l 1
 244 359 l 1
 28 700 l 1
 238 700 l 1
 346 498 l 1
 458 700 l 1
EndSplineSet
EndChar

StartChar: K
Encoding: 75 75 20
Width: 700
VWidth: 0
Flags: HMW
LayerCount: 2
Fore
SplineSet
74 700 m 1
 250 700 l 1
 250 0 l 1
 74 0 l 1
 74 700 l 1
487 700 m 1
 686 700 l 1
 402 372 l 1
 701 0 l 1
 496 0 l 1
 200 367 l 1
 487 700 l 1
EndSplineSet
EndChar

StartChar: Y
Encoding: 89 89 21
Width: 660
VWidth: 0
Flags: HMW
LayerCount: 2
Fore
SplineSet
244 360 m 1
 416 360 l 1
 416 0 l 1
 244 0 l 1
 244 360 l 1
466 700 m 1
 662 700 l 1
 330 138 l 1
 -2 700 l 1
 194 700 l 1
 330 437 l 1
 466 700 l 1
EndSplineSet
EndChar

StartChar: B
Encoding: 66 66 22
Width: 664
VWidth: 0
Flags: HMW
LayerCount: 2
Fore
SplineSet
192 396 m 1
 348 396 l 2
 483 396 620 339 620 197 c 0
 620 58 514 0 348 0 c 2
 192 0 l 1
 192 132 l 1
 330 132 l 2
 395 132 445 153 445 220 c 0
 445 281 395 304 330 304 c 2
 192 304 l 1
 192 396 l 1
192 348 m 1
 192 422 l 1
 313 422 l 2
 371 422 405 450 405 497 c 0
 405 544 371 568 313 568 c 2
 192 568 l 1
 192 700 l 1
 332 700 l 2
 476 700 580 641 580 522 c 0
 580 410 476 348 332 348 c 2
 192 348 l 1
74 700 m 1
 243 700 l 1
 243 0 l 1
 74 0 l 1
 74 700 l 1
EndSplineSet
EndChar

StartChar: Z
Encoding: 90 90 23
Width: 620
VWidth: 0
Flags: HMW
LayerCount: 2
Fore
SplineSet
57 548 m 1
 57 700 l 1
 606 700 l 1
 274 146 l 1
 570 146 l 1
 570 0 l 1
 8 0 l 1
 336 548 l 1
 57 548 l 1
EndSplineSet
EndChar

StartChar: o
Encoding: 111 111 24
Width: 589
VWidth: 0
Flags: HMW
LayerCount: 2
Fore
SplineSet
32 230 m 0
 32 376 145 470 295 470 c 0
 445 470 558 376 558 230 c 0
 558 84 445 -10 295 -10 c 0
 145 -10 32 84 32 230 c 0
188 230 m 0
 188 159 236 115 295 115 c 0
 354 115 402 159 402 230 c 0
 402 301 354 346 295 346 c 0
 236 346 188 301 188 230 c 0
EndSplineSet
EndChar

StartChar: J
Encoding: 74 74 25
Width: 330
VWidth: 0
Flags: HMW
LayerCount: 2
Fore
SplineSet
-72 -58 m 1
 -52 -76 -21 -91 9 -91 c 0
 39 -91 74 -70 74 -10 c 2
 74 700 l 1
 257 700 l 1
 257 -54 l 2
 257 -188 151 -239 26 -239 c 0
 -52 -239 -124 -208 -164 -182 c 1
 -72 -58 l 1
EndSplineSet
EndChar

StartChar: t
Encoding: 116 116 26
Width: 318
VWidth: 0
Flags: HMW
LayerCount: 2
Fore
SplineSet
5 460 m 1
 313 460 l 1
 313 335 l 1
 5 335 l 1
 5 460 l 1
86 620 m 1
 232 620 l 1
 232 0 l 1
 86 0 l 1
 86 620 l 1
EndSplineSet
EndChar

StartChar: d
Encoding: 100 100 27
Width: 616
VWidth: 0
Flags: HMW
LayerCount: 2
Fore
SplineSet
408 780 m 5
 560 780 l 5
 560 0 l 5
 408 0 l 5
 408 780 l 5
32 230 m 4
 32 386 138 470 250 470 c 4
 365 470 450 379 450 230 c 4
 450 81 365 -10 250 -10 c 4
 138 -10 32 74 32 230 c 4
191 230 m 4
 191 158 241 112 301 112 c 4
 352 112 408 155 408 230 c 4
 408 305 352 348 301 348 c 4
 241 348 191 302 191 230 c 4
EndSplineSet
EndChar

StartChar: l
Encoding: 108 108 28
Width: 270
VWidth: 0
Flags: HMW
LayerCount: 2
Fore
SplineSet
60 780 m 1
 212 780 l 1
 212 0 l 1
 60 0 l 1
 60 780 l 1
EndSplineSet
EndChar

StartChar: i
Encoding: 105 105 29
Width: 276
VWidth: 0
Flags: HMW
LayerCount: 2
Fore
SplineSet
50 632 m 4
 50 680 89 714 138 714 c 4
 187 714 226 680 226 632 c 4
 226 584 187 550 138 550 c 4
 89 550 50 584 50 632 c 4
64 460 m 1
 211 460 l 1
 211 0 l 1
 64 0 l 1
 64 460 l 1
EndSplineSet
EndChar

StartChar: r
Encoding: 114 114 30
Width: 411
VWidth: 0
Flags: HMW
LayerCount: 2
Fore
SplineSet
208 460 m 1
 208 0 l 1
 60 0 l 1
 60 460 l 1
 208 460 l 1
341 303 m 1
 325 319 308 330 282 330 c 0
 238 330 208 293 208 227 c 1
 172 280 l 1
 172 389 246 471 324 471 c 0
 357 471 391 456 407 433 c 1
 341 303 l 1
EndSplineSet
EndChar

StartChar: c
Encoding: 99 99 31
Width: 493
VWidth: 0
Flags: HMW
LayerCount: 2
Fore
SplineSet
186 230 m 0
 186 156 240 110 308 110 c 0
 363 110 416 135 444 179 c 1
 444 32 l 1
 412 6 366 -10 296 -10 c 0
 142 -10 30 84 30 230 c 0
 30 376 142 470 296 470 c 0
 366 470 412 452 444 430 c 1
 444 282 l 1
 416 326 357 350 308 350 c 0
 240 350 186 298 186 230 c 0
EndSplineSet
EndChar

StartChar: b
Encoding: 98 98 32
Width: 616
VWidth: 0
Flags: HMW
LayerCount: 2
Fore
SplineSet
210 780 m 1
 210 0 l 1
 58 0 l 1
 58 780 l 1
 210 780 l 1
585 230 m 0
 585 74 478 -10 366 -10 c 0
 251 -10 167 81 167 230 c 0
 167 379 251 470 366 470 c 0
 478 470 585 386 585 230 c 0
426 230 m 0
 426 302 376 348 316 348 c 0
 265 348 210 305 210 230 c 0
 210 155 265 112 316 112 c 0
 376 112 426 158 426 230 c 0
EndSplineSet
EndChar

StartChar: p
Encoding: 112 112 33
Width: 616
VWidth: 0
Flags: HMW
LayerCount: 2
Fore
SplineSet
210 -220 m 1
 58 -220 l 1
 58 460 l 1
 210 460 l 1
 210 -220 l 1
585 230 m 0
 585 68 478 -16 366 -16 c 0
 244 -16 174 81 174 230 c 0
 174 379 244 476 366 476 c 0
 478 476 585 392 585 230 c 0
426 230 m 0
 426 302 376 342 316 342 c 0
 265 342 210 305 210 230 c 0
 210 155 265 118 316 118 c 0
 376 118 426 158 426 230 c 0
EndSplineSet
EndChar

StartChar: q
Encoding: 113 113 34
Width: 616
VWidth: 0
Flags: HMW
LayerCount: 2
Fore
SplineSet
408 -220 m 1
 408 460 l 1
 560 460 l 1
 560 -220 l 1
 408 -220 l 1
32 230 m 0
 32 392 138 476 250 476 c 0
 372 476 444 379 444 230 c 0
 444 81 372 -16 250 -16 c 0
 138 -16 32 68 32 230 c 0
191 230 m 0
 191 158 241 118 301 118 c 0
 352 118 408 155 408 230 c 0
 408 305 352 342 301 342 c 0
 241 342 191 302 191 230 c 0
EndSplineSet
EndChar

StartChar: h
Encoding: 104 104 35
Width: 568
VWidth: 0
Flags: HMW
LayerCount: 2
Fore
SplineSet
212 780 m 1
 212 0 l 1
 60 0 l 1
 60 780 l 1
 212 780 l 1
358 280 m 2
 358 334 341 364 291 364 c 0
 243 364 212 334 212 280 c 1
 186 280 l 1
 186 389 238 477 352 477 c 0
 466 477 510 414 510 302 c 2
 510 0 l 1
 358 0 l 1
 358 280 l 2
EndSplineSet
EndChar

StartChar: n
Encoding: 110 110 36
Width: 575
VWidth: 0
Flags: HMW
LayerCount: 2
Fore
SplineSet
212 460 m 1
 212 0 l 1
 60 0 l 1
 60 460 l 1
 212 460 l 1
358 280 m 2
 358 334 341 364 291 364 c 0
 243 364 212 334 212 280 c 1
 186 274 l 1
 186 383 238 470 352 470 c 0
 466 470 516 408 516 296 c 2
 516 0 l 1
 358 0 l 1
 358 280 l 2
EndSplineSet
EndChar

StartChar: m
Encoding: 109 109 37
Width: 820
VWidth: 0
Flags: HMW
LayerCount: 2
Fore
SplineSet
331 280 m 2
 331 334 315 364 272 364 c 0
 230 364 205 334 205 280 c 1
 179 274 l 1
 179 383 230 470 338 470 c 0
 446 470 483 414 483 302 c 2
 483 0 l 1
 331 0 l 1
 331 280 l 2
205 460 m 1
 205 0 l 1
 60 0 l 1
 60 460 l 1
 205 460 l 1
762 296 m 2
 762 0 l 1
 610 0 l 1
 610 280 l 2
 610 334 593 364 550 364 c 0
 508 364 483 334 483 280 c 1
 432 274 l 1
 432 383 508 470 616 470 c 0
 724 470 762 408 762 296 c 2
EndSplineSet
EndChar

StartChar: k
Encoding: 107 107 38
Width: 577
VWidth: 0
Flags: HMW
LayerCount: 2
Fore
SplineSet
58 780 m 1
 203 780 l 1
 203 0 l 1
 58 0 l 1
 58 780 l 1
370 460 m 1
 551 460 l 1
 354 270 l 1
 571 0 l 1
 393 0 l 1
 174 270 l 1
 370 460 l 1
EndSplineSet
EndChar

StartChar: u
Encoding: 117 117 39
Width: 575
VWidth: 0
Flags: HMW
LayerCount: 2
Fore
SplineSet
364 0 m 1
 364 460 l 1
 516 460 l 1
 516 0 l 1
 364 0 l 1
218 180 m 2
 218 126 234 96 284 96 c 0
 332 96 364 126 364 180 c 1
 390 186 l 1
 390 77 338 -10 224 -10 c 0
 110 -10 60 52 60 164 c 2
 60 460 l 1
 218 460 l 1
 218 180 l 2
EndSplineSet
EndChar

StartChar: e
Encoding: 101 101 40
Width: 563
VWidth: 0
Flags: HMW
LayerCount: 2
Fore
SplineSet
96 198 m 1
 96 287 l 1
 507 287 l 1
 523 198 l 1
 96 198 l 1
390 244 m 2
 390 318 358 359 288 359 c 0
 222 359 177 322 177 254 c 1
 175 230 l 1
 175 146 232 105 301 105 c 4
 345 105 373 121 390 158 c 1
 516 116 l 1
 480 44 416 -10 294 -10 c 4
 146 -10 37 91 37 230 c 0
 37 247 39 265 42 281 c 0
 61 394 161 470 291 470 c 0
 422 470 525 382 525 237 c 0
 525 229 525 214 523 198 c 1
 390 218 l 1
 390 244 l 2
EndSplineSet
EndChar

StartChar: g
Encoding: 103 103 41
Width: 610
VWidth: 0
Flags: HMW
LayerCount: 2
Fore
SplineSet
42 -33 m 1
 188 -33 l 1
 193 -89 234 -118 293 -118 c 0
 357 -118 408 -75 408 10 c 2
 408 460 l 1
 553 460 l 1
 553 10 l 2
 553 -168 440 -240 300 -240 c 0
 128 -240 53 -155 42 -33 c 1
32 236 m 0
 32 392 138 470 250 470 c 4
 365 470 450 385 450 236 c 0
 450 87 365 2 250 2 c 0
 138 2 32 80 32 236 c 0
191 236 m 0
 191 164 241 124 301 124 c 0
 352 124 408 161 408 236 c 0
 408 311 352 348 301 348 c 0
 241 348 191 308 191 236 c 0
EndSplineSet
EndChar

StartChar: f
Encoding: 102 102 42
Width: 344
VWidth: 0
Flags: HMW
LayerCount: 2
Fore
SplineSet
18 460 m 1
 332 460 l 1
 332 335 l 1
 18 335 l 1
 18 460 l 1
316 634 m 1
 302 652 288 660 270 660 c 0
 240 660 222 639 222 592 c 2
 222 0 l 1
 76 0 l 1
 76 630 l 2
 76 732 134 796 249 796 c 0
 317 796 354 766 376 746 c 1
 316 634 l 1
EndSplineSet
EndChar

StartChar: s
Encoding: 115 115 43
Width: 451
VWidth: 0
Flags: HMW
LayerCount: 2
Fore
SplineSet
84 173 m 1
 147 128 203 98 237 98 c 0
 267 98 281 109 281 129 c 0
 281 157 235 173 183 192 c 0
 118 216 53 254 53 340 c 0
 53 412 126 470 223 470 c 0
 302 470 371 440 417 400 c 1
 362 307 l 1
 317 342 272 362 235 362 c 4
 202 362 190 350 190 334 c 0
 190 306 243 295 300 273 c 0
 365 248 427 218 427 130 c 0
 427 35 360 -19 250 -19 c 0
 154 -19 73 21 19 79 c 1
 84 173 l 1
EndSplineSet
EndChar

StartChar: y
Encoding: 121 121 44
Width: 521
VWidth: 0
Flags: HMW
LayerCount: 2
Fore
SplineSet
530 460 m 1
 230 -220 l 1
 78 -220 l 1
 190 37 l 1
 -10 460 l 1
 158 460 l 1
 306 90 l 1
 228 92 l 1
 375 460 l 1
 530 460 l 1
EndSplineSet
EndChar

StartChar: w
Encoding: 119 119 45
Width: 761
VWidth: 0
Flags: HMW
LayerCount: 2
Fore
SplineSet
610 460 m 1
 768 460 l 1
 532 -28 l 1
 495 176 l 1
 610 460 l 1
348 300 m 1
 378 495 l 1
 545 164 l 1
 532 -28 l 1
 348 300 l 1
378 495 m 1
 408 300 l 1
 230 -28 l 1
 216 164 l 1
 378 495 l 1
-8 460 m 1
 152 460 l 1
 266 176 l 1
 230 -28 l 1
 -8 460 l 1
EndSplineSet
EndChar

StartChar: v
Encoding: 118 118 46
Width: 527
VWidth: 0
Flags: HMW
LayerCount: 2
Fore
SplineSet
-3 460 m 1
 159 460 l 1
 264 205 l 1
 369 460 l 1
 530 460 l 1
 264 -54 l 1
 -3 460 l 1
EndSplineSet
EndChar

StartChar: x
Encoding: 120 120 47
Width: 532
VWidth: 0
Flags: HMW
LayerCount: 2
Fore
SplineSet
354 460 m 1
 522 460 l 1
 346 236 l 1
 532 0 l 1
 364 0 l 1
 269 134 l 1
 174 0 l 1
 0 0 l 1
 189 236 l 1
 10 460 l 1
 184 460 l 1
 269 340 l 1
 354 460 l 1
EndSplineSet
EndChar

StartChar: z
Encoding: 122 122 48
Width: 522
VWidth: 0
Flags: HMW
LayerCount: 2
Fore
SplineSet
256 322 m 1
 58 322 l 1
 58 460 l 1
 508 460 l 1
 278 138 l 1
 475 138 l 1
 475 0 l 1
 15 0 l 1
 256 322 l 1
EndSplineSet
EndChar

StartChar: j
Encoding: 106 106 49
Width: 271
VWidth: 0
Flags: HMW
LayerCount: 2
Fore
SplineSet
46 632 m 0
 46 680 85 714 134 714 c 0
 183 714 222 680 222 632 c 0
 222 584 183 550 134 550 c 0
 85 550 46 584 46 632 c 0
-34 -77 m 1
 -20 -95 -5 -102 13 -102 c 0
 43 -102 61 -81 61 -34 c 2
 61 460 l 1
 207 460 l 1
 207 -72 l 2
 207 -174 149 -239 34 -239 c 0
 -34 -239 -72 -208 -94 -188 c 1
 -34 -77 l 1
EndSplineSet
EndChar

StartChar: P
Encoding: 80 80 50
Width: 623
VWidth: 0
Flags: HMW
LayerCount: 2
Fore
SplineSet
74 700 m 1
 243 700 l 1
 243 0 l 1
 74 0 l 1
 74 700 l 1
180 560 m 1
 180 700 l 1
 317 700 l 2
 495 700 589 613 589 471 c 0
 589 329 495 242 317 242 c 2
 180 242 l 1
 180 382 l 1
 317 382 l 2
 385 382 426 413 426 471 c 0
 426 529 385 560 317 560 c 2
 180 560 l 1
EndSplineSet
EndChar

StartChar: U
Encoding: 85 85 51
Width: 701
VWidth: 0
Flags: HMW
LayerCount: 2
Fore
SplineSet
68 700 m 1
 238 700 l 1
 238 242 l 2
 238 171 275 123 350 123 c 0
 425 123 463 171 463 242 c 2
 463 700 l 1
 632 700 l 1
 632 230 l 2
 632 54 508 -29 350 -29 c 0
 192 -29 68 54 68 230 c 2
 68 700 l 1
EndSplineSet
EndChar

StartChar: S
Encoding: 83 83 52
Width: 625
VWidth: 0
Flags: HMW
LayerCount: 2
Fore
SplineSet
153 251 m 1
 201 167 249 125 323 125 c 0
 378 125 408 148 408 193 c 0
 408 252 344 270 264 302 c 0
 195 329 74 384 74 520 c 0
 74 638 176 716 321 716 c 0
 471 716 549 633 577 562 c 1
 450 489 l 1
 420 541 382 572 328 572 c 0
 279 572 248 550 248 514 c 0
 248 466 325 443 408 413 c 0
 506 379 586 316 586 196 c 0
 586 54 483 -22 319 -22 c 0
 191 -22 78 53 34 168 c 1
 153 251 l 1
EndSplineSet
EndChar

StartChar: at
Encoding: 64 64 53
Width: 770
VWidth: 0
Flags: HMW
LayerCount: 2
Fore
SplineSet
316 320 m 0
 316 276 333 252 361 252 c 0
 395 252 435 296 435 364 c 0
 435 410 416 435 388 435 c 0
 348 435 316 381 316 320 c 0
192 312 m 0
 192 451 284 530 362 530 c 0
 434 530 472 461 472 375 c 0
 472 236 410 154 328 154 c 0
 248 154 192 213 192 312 c 0
10 320 m 0
 10 546 185 724 415 724 c 0
 624 724 760 556 760 390 c 0
 760 212 650 134 556 134 c 0
 486 134 433 193 443 259 c 1
 434 295 l 1
 460 520 l 1
 579 520 l 1
 548 304 l 2
 547 297 546 286 546 278 c 0
 546 254 553 241 571 241 c 0
 595 241 640 273 640 390 c 0
 640 516 564 625 415 625 c 0
 239 625 130 496 130 320 c 0
 130 170 208 66 370 66 c 0
 440 66 508 77 566 109 c 1
 617 26 l 5
 557 -8 467 -28 365 -28 c 0
 139 -28 10 121 10 320 c 0
EndSplineSet
EndChar

StartChar: period
Encoding: 46 46 54
Width: 322
VWidth: 0
Flags: HMW
LayerCount: 2
Fore
SplineSet
67 68 m 0
 67 118 106 160 161 160 c 0
 216 160 256 118 256 68 c 0
 256 18 216 -24 161 -24 c 0
 106 -24 67 18 67 68 c 0
EndSplineSet
EndChar

StartChar: comma
Encoding: 44 44 55
Width: 323
VWidth: 0
Flags: HMW
LayerCount: 2
Fore
SplineSet
120 110 m 1
 272 78 l 1
 146 -172 l 1
 32 -149 l 1
 120 110 l 1
EndSplineSet
EndChar

StartChar: colon
Encoding: 58 58 56
Width: 322
VWidth: 0
Flags: HMW
LayerCount: 2
Fore
SplineSet
67 68 m 0
 67 118 106 160 161 160 c 0
 216 160 256 118 256 68 c 0
 256 18 216 -24 161 -24 c 0
 106 -24 67 18 67 68 c 0
67 442 m 0
 67 492 106 534 161 534 c 0
 216 534 256 492 256 442 c 0
 256 392 216 350 161 350 c 0
 106 350 67 392 67 442 c 0
EndSplineSet
EndChar

StartChar: semicolon
Encoding: 59 59 57
Width: 393
VWidth: 0
Flags: HMW
LayerCount: 2
Fore
SplineSet
118 436 m 0
 118 486 158 528 213 528 c 0
 268 528 308 486 308 436 c 0
 308 386 268 343 213 343 c 0
 158 343 118 386 118 436 c 0
142 110 m 1
 294 78 l 1
 168 -172 l 1
 54 -149 l 1
 142 110 l 1
EndSplineSet
EndChar

StartChar: quotedbl
Encoding: 34 34 58
Width: 518
VWidth: 0
Flags: HMW
LayerCount: 2
Fore
SplineSet
105 700 m 1
 266 700 l 1
 160 381 l 1
 61 381 l 1
 105 700 l 1
316 700 m 1
 477 700 l 1
 372 381 l 1
 272 381 l 1
 316 700 l 1
EndSplineSet
EndChar

StartChar: exclam
Encoding: 33 33 59
Width: 343
VWidth: 0
Flags: HMW
LayerCount: 2
Fore
SplineSet
78 700 m 1
 266 700 l 1
 233 231 l 1
 110 231 l 1
 78 700 l 1
78 62 m 0
 78 112 117 148 172 148 c 0
 227 148 266 112 266 62 c 0
 266 12 227 -24 172 -24 c 0
 117 -24 78 12 78 62 c 0
EndSplineSet
EndChar

StartChar: quotesingle
Encoding: 39 39 60
Width: 306
VWidth: 0
Flags: HMW
LayerCount: 2
Fore
SplineSet
105 700 m 1
 266 700 l 1
 160 381 l 1
 61 381 l 1
 105 700 l 1
EndSplineSet
EndChar

StartChar: numbersign
Encoding: 35 35 61
Width: 667
VWidth: 0
Flags: HMW
LayerCount: 2
Fore
SplineSet
75 412 m 1
 75 533 l 1
 632 533 l 1
 632 412 l 1
 478 412 l 0
 448 418 l 0
 244 418 l 0
 218 412 l 0
 75 412 l 1
35 172 m 1
 35 293 l 1
 176 293 l 0
 208 287 l 0
 438 287 l 0
 468 293 l 0
 592 293 l 1
 592 172 l 1
 35 172 l 1
474 700 m 1
 605 700 l 1
 435 0 l 1
 304 0 l 1
 358 224 l 0
 370 250 l 0
 420 456 l 0
 422 487 l 0
 474 700 l 1
232 700 m 1
 364 700 l 1
 312 488 l 0
 298 456 l 0
 248 252 l 0
 248 226 l 0
 194 0 l 1
 62 0 l 1
 232 700 l 1
EndSplineSet
EndChar

StartChar: hyphen
Encoding: 45 45 62
Width: 222
VWidth: 0
Flags: HMW
LayerCount: 2
Fore
SplineSet
5 172 m 1
 5 303 l 1
 218 303 l 1
 218 172 l 1
 5 172 l 1
EndSplineSet
EndChar

StartChar: dollar
Encoding: 36 36 63
Width: 621
VWidth: 0
Flags: HMW
LayerCount: 2
Fore
SplineSet
262 818 m 1
 386 818 l 1
 380 637 l 1
 268 637 l 1
 262 818 l 1
268 62 m 1
 380 62 l 1
 386 -112 l 1
 262 -112 l 1
 268 62 l 1
449 489 m 1
 419 547 378 586 326 586 c 0
 271 586 248 558 248 522 c 0
 248 463 323 446 408 414 c 0
 503 380 586 316 586 196 c 0
 586 64 482 -10 318 -10 c 0
 190 -10 77 72 33 168 c 1
 152 251 l 1
 200 167 248 125 322 125 c 0
 381 125 408 149 408 194 c 0
 408 250 345 270 263 302 c 0
 193 328 74 385 74 521 c 0
 74 623 176 710 321 710 c 0
 465 710 534 638 576 562 c 1
 449 489 l 1
EndSplineSet
EndChar

StartChar: bar
Encoding: 124 124 64
Width: 352
VWidth: 0
Flags: HMW
LayerCount: 2
Fore
SplineSet
100 785 m 1
 253 785 l 1
 253 -215 l 1
 100 -215 l 1
 100 785 l 1
EndSplineSet
EndChar

StartChar: zero
Encoding: 48 48 65
Width: 662
VWidth: 0
Flags: HMW
LayerCount: 2
Fore
SplineSet
203 350 m 0
 203 218 254 132 331 132 c 0
 408 132 460 218 460 350 c 0
 460 482 408 568 331 568 c 0
 254 568 203 482 203 350 c 0
40 350 m 0
 40 578 158 713 331 713 c 0
 510 713 622 578 622 350 c 0
 622 122 510 -13 331 -13 c 0
 158 -13 40 122 40 350 c 0
EndSplineSet
Substitution2: "Tabular Numbers lookup" uniFF10
EndChar

StartChar: one
Encoding: 49 49 66
Width: 509
VWidth: 0
Flags: HMW
LayerCount: 2
Fore
SplineSet
68 498 m 1
 68 645 l 1
 404 713 l 1
 404 0 l 1
 242 0 l 1
 242 540 l 1
 68 498 l 1
EndSplineSet
Substitution2: "Tabular Numbers lookup" uniFF11
EndChar

StartChar: two
Encoding: 50 50 67
Width: 656
VWidth: 0
Flags: HMW
LayerCount: 2
Fore
SplineSet
20 0 m 1
 332 323 l 2
 388 383 422 424 422 480 c 0
 422 524 394 568 330 568 c 0
 265 568 220 516 220 441 c 1
 54 441 l 1
 54 590 152 714 334 714 c 0
 508 714 598 598 598 488 c 0
 598 413 556 352 496 300 c 2
 334 155 l 1
 614 155 l 1
 614 0 l 1
 20 0 l 1
EndSplineSet
Substitution2: "Tabular Numbers lookup" uniFF12
EndChar

StartChar: four
Encoding: 52 52 68
Width: 698
VWidth: 0
Flags: HMW
LayerCount: 2
Fore
SplineSet
14 124 m 1
 152 246 l 1
 462 246 l 0
 479 268 l 0
 656 268 l 1
 656 124 l 1
 14 124 l 1
185 174 m 1
 14 124 l 1
 420 700 l 25
 546 700 l 1
 546 0 l 1
 370 0 l 1
 370 160 l 0
 389 172 l 0
 389 454 l 1
 185 174 l 1
EndSplineSet
Substitution2: "Tabular Numbers lookup" uniFF14
EndChar

StartChar: slash
Encoding: 47 47 69
Width: 608
VWidth: 0
Flags: HMW
LayerCount: 2
Fore
SplineSet
448 700 m 1
 594 700 l 1
 167 -150 l 1
 15 -150 l 1
 448 700 l 1
EndSplineSet
EndChar

StartChar: backslash
Encoding: 92 92 70
Width: 546
VWidth: 0
Flags: HMW
LayerCount: 2
Fore
SplineSet
15 700 m 1
 162 700 l 1
 531 0 l 1
 384 0 l 1
 15 700 l 1
EndSplineSet
EndChar

StartChar: eight
Encoding: 56 56 71
Width: 627
VWidth: 0
Flags: HMW
LayerCount: 2
Fore
SplineSet
77 531 m 0
 77 649 185 716 314 716 c 0
 443 716 550 649 550 531 c 0
 550 403 429 342 314 342 c 0
 199 342 77 403 77 531 c 0
236 514 m 0
 236 467 270 435 314 435 c 0
 358 435 392 467 392 514 c 0
 392 561 360 594 314 594 c 0
 268 594 236 561 236 514 c 0
52 190 m 0
 52 338 199 396 314 396 c 0
 429 396 576 338 576 190 c 0
 576 62 452 -16 314 -16 c 0
 176 -16 52 62 52 190 c 0
220 216 m 0
 220 155 263 122 314 122 c 0
 365 122 407 155 407 216 c 0
 407 267 365 307 314 307 c 0
 263 307 220 267 220 216 c 0
EndSplineSet
Substitution2: "Tabular Numbers lookup" uniFF18
EndChar

StartChar: nine
Encoding: 57 57 72
Width: 669
VWidth: 0
Flags: HMW
LayerCount: 2
Fore
SplineSet
452 454 m 0
 452 525 402 572 335 572 c 0
 268 572 218 525 218 454 c 0
 218 383 268 335 335 335 c 0
 402 335 452 383 452 454 c 0
336 3 m 1
 122 3 l 1
 348 256 l 1
 384 271 l 1
 346 235 316 226 266 226 c 0
 162 226 50 312 50 454 c 0
 50 626 178 716 335 716 c 0
 492 716 620 626 620 454 c 0
 620 378 584 316 538 260 c 2
 336 3 l 1
EndSplineSet
Substitution2: "Tabular Numbers lookup" uniFF19
EndChar

StartChar: three
Encoding: 51 51 73
Width: 621
VWidth: 0
Flags: HMW
LayerCount: 2
Fore
SplineSet
275 338 m 1
 275 415 l 1
 353 415 404 458 404 508 c 0
 404 549 378 578 325 578 c 0
 273 578 234 543 234 495 c 1
 78 495 l 1
 78 619 175 713 325 713 c 0
 483 713 572 627 572 519 c 0
 572 398 441 338 275 338 c 1
318 -16 m 0
 148 -16 48 98 48 222 c 1
 215 222 l 1
 215 153 266 120 324 120 c 0
 382 120 424 148 424 208 c 0
 424 266 377 306 275 306 c 1
 275 392 l 1
 460 392 592 334 592 192 c 0
 592 70 490 -16 318 -16 c 0
EndSplineSet
Substitution2: "Tabular Numbers lookup" uniFF13
EndChar

StartChar: five
Encoding: 53 53 74
Width: 645
VWidth: 0
Flags: HMW
LayerCount: 2
Fore
SplineSet
605 224 m 0
 605 58 457 -13 322 -13 c 0
 193 -13 107 29 42 78 c 1
 108 217 l 1
 164 169 234 142 286 142 c 0
 370 142 420 174 420 242 c 0
 420 310 354 340 286 340 c 0
 232 340 159 332 88 296 c 1
 206 380 l 1
 258 436 320 453 392 453 c 0
 502 453 605 370 605 224 c 0
310 553 m 1
 252 380 l 1
 88 296 l 1
 186 700 l 1
 591 700 l 1
 591 553 l 1
 310 553 l 1
EndSplineSet
Substitution2: "Tabular Numbers lookup" uniFF15
EndChar

StartChar: six
Encoding: 54 54 75
Width: 669
VWidth: 0
Flags: HMW
LayerCount: 2
Fore
SplineSet
218 246 m 0
 218 175 268 128 335 128 c 0
 402 128 452 175 452 246 c 0
 452 317 402 365 335 365 c 0
 268 365 218 317 218 246 c 0
333 697 m 1
 548 697 l 1
 321 444 l 1
 286 429 l 1
 324 465 354 474 404 474 c 0
 508 474 620 388 620 246 c 0
 620 74 492 -16 335 -16 c 0
 178 -16 50 74 50 246 c 0
 50 322 86 384 132 440 c 2
 333 697 l 1
EndSplineSet
Substitution2: "Tabular Numbers lookup" uniFF16
EndChar

StartChar: seven
Encoding: 55 55 76
Width: 603
VWidth: 0
Flags: HMW
LayerCount: 2
Fore
SplineSet
30 542 m 1
 30 700 l 1
 601 700 l 1
 263 0 l 1
 80 0 l 1
 353 542 l 1
 30 542 l 1
EndSplineSet
Substitution2: "Tabular Numbers lookup" uniFF17
EndChar

StartChar: plus
Encoding: 43 43 77
Width: 674
VWidth: 0
Flags: HMW
LayerCount: 2
Fore
SplineSet
65 196 m 1
 65 342 l 1
 610 342 l 1
 610 196 l 1
 65 196 l 1
258 540 m 1
 416 540 l 1
 416 -2 l 1
 258 -2 l 1
 258 540 l 1
EndSplineSet
EndChar

StartChar: equal
Encoding: 61 61 78
Width: 626
VWidth: 0
Flags: HMW
LayerCount: 2
Fore
SplineSet
56 84 m 1
 56 215 l 1
 570 215 l 1
 570 84 l 1
 56 84 l 1
56 290 m 1
 56 422 l 1
 570 422 l 1
 570 290 l 1
 56 290 l 1
EndSplineSet
EndChar

StartChar: percent
Encoding: 37 37 79
Width: 919
VWidth: 0
Flags: HMW
LayerCount: 2
Fore
SplineSet
22 534 m 0
 22 636 104 720 212 720 c 0
 320 720 401 636 401 534 c 0
 401 432 320 350 212 350 c 0
 104 350 22 432 22 534 c 0
147 534 m 0
 147 498 174 468 212 468 c 0
 250 468 276 498 276 534 c 0
 276 570 250 600 212 600 c 0
 174 600 147 570 147 534 c 0
519 166 m 0
 519 268 600 351 708 351 c 0
 816 351 897 268 897 166 c 0
 897 64 816 -19 708 -19 c 0
 600 -19 519 64 519 166 c 0
644 166 m 0
 644 130 670 100 708 100 c 0
 746 100 772 130 772 166 c 0
 772 202 746 232 708 232 c 0
 670 232 644 202 644 166 c 0
650 700 m 1
 807 700 l 1
 269 0 l 1
 113 0 l 1
 650 700 l 1
EndSplineSet
EndChar

StartChar: ampersand
Encoding: 38 38 80
Width: 752
VWidth: 0
Flags: HMW
LayerCount: 2
Fore
SplineSet
40 188 m 1
 198 201 l 1
 198 153 236 114 304 114 c 0
 418 114 528 217 608 341 c 1
 709 264 l 1
 622 136 482 -13 284 -13 c 0
 150 -13 40 62 40 188 c 1
126 544 m 1
 126 632 208 718 342 718 c 0
 472 718 544 632 544 548 c 1
 406 534 l 1
 406 566 380 596 340 596 c 0
 294 596 273 566 273 534 c 1
 126 544 l 1
223 372 m 2
 179 426 126 474 126 544 c 1
 273 534 l 1
 273 494 316 462 366 400 c 2
 736 0 l 1
 562 0 l 1
 223 372 l 2
544 548 m 1
 544 456 484 418 372 344 c 0
 301 298 198 282 198 201 c 1
 40 188 l 1
 40 348 222 387 292 420 c 0
 367 456 406 498 406 534 c 1
 544 548 l 1
EndSplineSet
EndChar

StartChar: question
Encoding: 63 63 81
Width: 627
VWidth: 0
Flags: HMW
LayerCount: 2
Fore
SplineSet
200 59 m 0
 200 103 239 142 294 142 c 0
 349 142 388 103 388 59 c 0
 388 15 349 -24 294 -24 c 0
 239 -24 200 15 200 59 c 0
212 380 m 1
 364 380 l 1
 354 201 l 1
 232 201 l 1
 212 380 l 1
420 500 m 0
 420 558 379 592 308 592 c 0
 248 592 188 560 150 504 c 1
 48 590 l 1
 119 672 199 720 318 720 c 0
 450 720 574 638 574 500 c 0
 574 350 409 278 294 278 c 1
 244 380 l 1
 364 380 420 449 420 500 c 0
EndSplineSet
EndChar

StartChar: parenleft
Encoding: 40 40 82
Width: 341
VWidth: 0
Flags: HMW
LayerCount: 2
Fore
SplineSet
190 780 m 1
 327 780 l 1
 257 630 218 460 218 290 c 0
 218 120 257 -50 327 -200 c 1
 190 -200 l 1
 110 -50 68 120 68 290 c 0
 68 460 110 630 190 780 c 1
EndSplineSet
EndChar

StartChar: parenright
Encoding: 41 41 83
Width: 341
VWidth: 0
Flags: HMW
LayerCount: 2
Fore
SplineSet
152 -200 m 1
 14 -200 l 1
 84 -50 124 120 124 290 c 0
 124 460 84 630 14 780 c 1
 152 780 l 1
 232 630 273 460 273 290 c 0
 273 120 232 -50 152 -200 c 1
EndSplineSet
EndChar

StartChar: asterisk
Encoding: 42 42 84
Width: 592
VWidth: 0
Flags: HMW
LayerCount: 2
Fore
SplineSet
498 604 m 1
 542 472 l 1
 308 428 l 1
 284 500 l 1
 498 604 l 1
491 315 m 1
 378 234 l 1
 266 442 l 1
 326 486 l 1
 491 315 l 1
214 234 m 1
 101 315 l 1
 266 486 l 1
 326 442 l 1
 214 234 l 1
50 472 m 1
 94 604 l 1
 308 500 l 1
 284 428 l 1
 50 472 l 1
226 700 m 1
 366 700 l 1
 334 464 l 1
 258 464 l 1
 226 700 l 1
EndSplineSet
EndChar

StartChar: less
Encoding: 60 60 85
Width: 640
VWidth: 0
Flags: HMW
LayerCount: 2
Fore
SplineSet
280 268 m 1
 575 148 l 1
 575 -0 l 1
 65 213 l 1
 65 314 l 1
 575 528 l 1
 575 380 l 1
 280 268 l 1
EndSplineSet
EndChar

StartChar: greater
Encoding: 62 62 86
Width: 640
VWidth: 0
Flags: HMW
LayerCount: 2
Fore
SplineSet
360 260 m 1
 65 380 l 1
 65 528 l 1
 575 314 l 1
 575 213 l 1
 65 -0 l 1
 65 148 l 1
 360 260 l 1
EndSplineSet
EndChar

StartChar: bracketleft
Encoding: 91 91 87
Width: 362
VWidth: 0
Flags: HMW
LayerCount: 2
Fore
SplineSet
242 648 m 1
 242 -88 l 1
 342 -88 l 1
 342 -220 l 1
 90 -220 l 1
 90 780 l 1
 342 780 l 1
 342 648 l 1
 242 648 l 1
EndSplineSet
EndChar

StartChar: bracketright
Encoding: 93 93 88
Width: 362
Flags: HMW
LayerCount: 2
Fore
SplineSet
121 -88 m 1
 121 648 l 1
 20 648 l 1
 20 780 l 1
 272 780 l 1
 272 -220 l 1
 20 -220 l 1
 20 -88 l 1
 121 -88 l 1
EndSplineSet
EndChar

StartChar: asciicircum
Encoding: 94 94 89
Width: 510
VWidth: 0
Flags: HMW
LayerCount: 2
Fore
SplineSet
255 580 m 1
 176 448 l 1
 40 448 l 1
 210 710 l 1
 300 710 l 1
 470 448 l 1
 334 448 l 1
 255 580 l 1
EndSplineSet
EndChar

StartChar: underscore
Encoding: 95 95 90
Width: 531
Flags: HMW
LayerCount: 2
Fore
SplineSet
0 -154 m 1
 0 -58 l 1
 531 -58 l 1
 531 -154 l 1
 0 -154 l 1
EndSplineSet
EndChar

StartChar: grave
Encoding: 96 96 91
Width: 375
VWidth: 0
Flags: HMW
LayerCount: 2
Fore
SplineSet
53 654 m 1
 169 706 l 1
 319 546 l 1
 233 504 l 1
 53 654 l 1
EndSplineSet
EndChar

StartChar: braceleft
Encoding: 123 123 92
Width: 398
VWidth: 0
Flags: HMW
LayerCount: 2
Fore
SplineSet
266 610 m 2
 266 490 l 2
 266 401 262 280 122 280 c 1
 122 300 l 1
 262 300 266 179 266 90 c 2
 266 -30 l 2
 266 -56 284 -80 314 -80 c 2
 348 -80 l 1
 348 -200 l 1
 258 -200 l 2
 176 -200 98 -159 98 -60 c 2
 98 125 l 2
 98 201 80 225 38 235 c 1
 38 345 l 1
 80 355 98 379 98 455 c 2
 98 640 l 2
 98 739 176 780 258 780 c 2
 348 780 l 1
 348 660 l 1
 314 660 l 2
 284 660 266 636 266 610 c 2
EndSplineSet
EndChar

StartChar: braceright
Encoding: 125 125 93
Width: 398
VWidth: 0
Flags: HMW
LayerCount: 2
Fore
SplineSet
136 -30 m 2
 136 90 l 2
 136 179 140 300 280 300 c 1
 280 280 l 1
 140 280 136 401 136 490 c 2
 136 610 l 2
 136 636 118 660 88 660 c 2
 54 660 l 1
 54 780 l 1
 144 780 l 2
 226 780 304 739 304 640 c 2
 304 455 l 2
 304 379 322 355 364 345 c 1
 364 235 l 1
 322 225 304 201 304 125 c 2
 304 -60 l 2
 304 -159 226 -200 144 -200 c 2
 54 -200 l 1
 54 -80 l 1
 88 -80 l 2
 118 -80 136 -56 136 -30 c 2
EndSplineSet
EndChar

StartChar: asciitilde
Encoding: 126 126 94
Width: 575
VWidth: 0
Flags: HMW
LayerCount: 2
Fore
SplineSet
156 164 m 1
 37 168 l 1
 35 175 34 183 34 192 c 0
 34 226 42 258 66 288 c 0
 93 322 127 346 194 346 c 0
 240 346 271 329 319 297 c 0
 350 276 372 262 390 262 c 0
 412 262 422 280 422 302 c 0
 422 313 420 326 416 336 c 1
 537 330 l 1
 539 322 541 312 541 302 c 0
 541 270 536 236 512 206 c 0
 486 172 455 153 400 153 c 0
 360 153 326 171 276 203 c 0
 245 224 218 238 193 238 c 0
 161 238 150 214 150 192 c 0
 150 178 153 172 156 164 c 1
EndSplineSet
EndChar

StartChar: exclamdown
Encoding: 161 161 95
Width: 343
VWidth: 0
Flags: HMW
LayerCount: 2
Fore
SplineSet
266 -230 m 1
 78 -230 l 1
 110 240 l 1
 233 240 l 1
 266 -230 l 1
266 408 m 0
 266 358 227 322 172 322 c 0
 117 322 78 358 78 408 c 0
 78 458 117 495 172 495 c 0
 227 495 266 458 266 408 c 0
EndSplineSet
EndChar

StartChar: cent
Encoding: 162 162 96
Width: 580
VWidth: 0
Flags: HMW
LayerCount: 2
Fore
SplineSet
236 38 m 1
 347 38 l 1
 356 -112 l 1
 227 -112 l 1
 236 38 l 1
205 230 m 0
 205 153 263 110 328 110 c 0
 390 110 436 142 464 180 c 1
 464 30 l 1
 432 4 379 -10 316 -10 c 0
 162 -10 50 84 50 230 c 0
 50 376 162 470 316 470 c 0
 379 470 432 454 464 430 c 1
 464 280 l 1
 436 318 390 350 328 350 c 0
 263 350 205 301 205 230 c 0
227 578 m 1
 356 578 l 1
 347 428 l 1
 236 428 l 1
 227 578 l 1
EndSplineSet
EndChar

StartChar: sterling
Encoding: 163 163 97
Width: 611
VWidth: 0
Flags: HMW
LayerCount: 2
Fore
SplineSet
67 370 m 1
 446 370 l 1
 446 270 l 1
 67 270 l 1
 67 370 l 1
434 466 m 1
 430 520 408 576 334 576 c 0
 286 576 244 552 244 495 c 0
 244 410 336 382 336 270 c 0
 336 164 214 70 140 50 c 1
 192 140 l 1
 539 140 l 1
 539 0 l 1
 52 0 l 1
 150 102 189 186 189 286 c 0
 189 380 85 404 85 521 c 0
 85 640 196 710 328 710 c 0
 480 710 566 604 571 518 c 1
 434 466 l 1
EndSplineSet
EndChar

StartChar: currency
Encoding: 164 164 98
Width: 576
VWidth: 0
Flags: HMW
LayerCount: 2
Fore
SplineSet
24 503 m 1
 86 566 l 1
 185 466 l 1
 124 404 l 1
 24 503 l 1
86 34 m 1
 24 97 l 1
 124 196 l 1
 185 134 l 1
 86 34 l 1
454 404 m 1
 392 466 l 1
 492 566 l 1
 553 503 l 1
 454 404 l 1
392 134 m 1
 454 196 l 1
 553 97 l 1
 492 34 l 1
 392 134 l 1
51 300 m 0
 51 439 154 540 289 540 c 0
 424 540 527 439 527 300 c 0
 527 161 424 60 289 60 c 0
 154 60 51 161 51 300 c 0
188 300 m 0
 188 238 230 198 289 198 c 0
 348 198 390 238 390 300 c 0
 390 362 348 402 289 402 c 0
 230 402 188 362 188 300 c 0
EndSplineSet
EndChar

StartChar: yen
Encoding: 165 165 99
Width: 669
VWidth: 0
Flags: HMW
LayerCount: 2
Fore
SplineSet
248 360 m 1
 422 360 l 1
 422 0 l 1
 248 0 l 1
 248 360 l 1
472 700 m 1
 666 700 l 1
 334 138 l 1
 3 700 l 1
 198 700 l 1
 334 437 l 1
 472 700 l 1
45 115 m 1
 45 215 l 1
 620 215 l 1
 620 115 l 1
 45 115 l 1
45 265 m 1
 45 365 l 1
 620 365 l 1
 620 265 l 1
 45 265 l 1
EndSplineSet
EndChar

StartChar: brokenbar
Encoding: 166 166 100
Width: 352
VWidth: 0
Flags: HMW
LayerCount: 2
Fore
SplineSet
100 695 m 1
 253 695 l 1
 253 430 l 1
 100 430 l 1
 100 695 l 1
253 270 m 1
 253 5 l 1
 100 5 l 1
 100 270 l 1
 253 270 l 1
EndSplineSet
EndChar

StartChar: section
Encoding: 167 167 101
Width: 577
VWidth: 0
Flags: HMW
LayerCount: 2
Fore
SplineSet
400 549 m 1
 372 579 324 598 294 598 c 0
 260 598 244 587 244 569 c 0
 244 543 290 535 344 519 c 0
 420 497 480 452 480 378 c 0
 480 274 376 229 268 229 c 1
 268 270 l 1
 306 276 343 304 343 344 c 0
 343 398 274 416 222 436 c 0
 164 458 99 494 99 578 c 0
 99 674 195 724 285 724 c 0
 365 724 444 689 472 648 c 1
 400 549 l 1
128 174 m 1
 178 124 240 102 278 102 c 0
 316 102 333 115 333 136 c 0
 333 167 291 178 236 194 c 0
 160 214 84 257 84 334 c 0
 84 429 190 480 304 480 c 1
 304 442 l 1
 263 428 227 410 227 369 c 0
 227 309 307 299 358 278 c 0
 423 251 485 210 485 130 c 0
 485 24 385 -22 286 -22 c 0
 176 -22 101 20 56 76 c 1
 128 174 l 1
EndSplineSet
EndChar

StartChar: dieresis
Encoding: 168 168 102
Width: 511
VWidth: 0
Flags: HMW
LayerCount: 2
Fore
SplineSet
290 632 m 0
 290 680 329 714 378 714 c 0
 427 714 466 680 466 632 c 0
 466 584 427 550 378 550 c 0
 329 550 290 584 290 632 c 0
46 632 m 0
 46 680 85 714 134 714 c 0
 183 714 222 680 222 632 c 0
 222 584 183 550 134 550 c 0
 85 550 46 584 46 632 c 0
EndSplineSet
EndChar

StartChar: copyright
Encoding: 169 169 103
Width: 800
VWidth: 0
Flags: HMW
LayerCount: 2
Fore
SplineSet
289 350 m 0
 289 272 345 227 415 227 c 0
 474 227 513 252 540 282 c 1
 540 172 l 1
 506 146 469 130 408 130 c 0
 273 130 178 220 178 350 c 0
 178 480 273 570 408 570 c 0
 469 570 506 554 540 528 c 1
 540 418 l 1
 513 448 474 473 415 473 c 0
 345 473 289 428 289 350 c 0
95 350 m 0
 95 172 227 40 400 40 c 0
 573 40 705 172 705 350 c 0
 705 528 573 660 400 660 c 0
 227 660 95 528 95 350 c 0
40 350 m 0
 40 559 196 710 400 710 c 0
 604 710 760 559 760 350 c 0
 760 141 604 -10 400 -10 c 0
 196 -10 40 141 40 350 c 0
EndSplineSet
EndChar

StartChar: registered
Encoding: 174 174 104
Width: 800
VWidth: 0
Flags: HMW
LayerCount: 2
Fore
SplineSet
377 328 m 1
 470 328 l 1
 589 150 l 1
 470 150 l 1
 377 328 l 1
254 570 m 1
 355 570 l 1
 355 150 l 1
 254 150 l 1
 254 570 l 1
317 484 m 1
 317 570 l 1
 407 570 l 2
 515 570 570 513 570 439 c 0
 570 359 515 302 407 302 c 2
 317 302 l 1
 317 380 l 1
 399 380 l 2
 440 380 465 398 465 433 c 0
 465 468 440 484 399 484 c 2
 317 484 l 1
95 350 m 0
 95 172 227 40 400 40 c 0
 573 40 705 172 705 350 c 0
 705 528 573 660 400 660 c 0
 227 660 95 528 95 350 c 0
40 350 m 0
 40 559 196 710 400 710 c 0
 604 710 760 559 760 350 c 0
 760 141 604 -10 400 -10 c 0
 196 -10 40 141 40 350 c 0
EndSplineSet
EndChar

StartChar: ordfeminine
Encoding: 170 170 105
Width: 270
VWidth: 0
Flags: HMW
LayerCount: 2
Fore
SplineSet
94 530 m 0
 94 514 105 504 127 504 c 0
 153 504 178 517 178 553 c 1
 186 525 l 1
 186 481 149 455 101 455 c 0
 53 455 18 482 18 528 c 0
 18 574 61 603 117 603 c 0
 151 603 184 590 194 580 c 1
 194 542 l 1
 177 555 160 562 134 562 c 0
 110 562 94 548 94 530 c 0
64 625 m 1
 38 679 l 1
 64 691 102 705 144 705 c 0
 206 705 250 678 250 630 c 2
 250 460 l 1
 178 460 l 1
 178 610 l 2
 178 630 163 645 138 645 c 0
 105 645 75 632 64 625 c 1
EndSplineSet
EndChar

StartChar: ordmasculine
Encoding: 186 186 106
Width: 278
VWidth: 0
Flags: HMW
LayerCount: 2
Fore
SplineSet
19 580 m 0
 19 652 74 700 150 700 c 0
 226 700 282 652 282 580 c 0
 282 508 226 460 150 460 c 0
 74 460 19 508 19 580 c 0
96 580 m 0
 96 544 120 523 150 523 c 0
 180 523 204 544 204 580 c 0
 204 616 180 638 150 638 c 0
 120 638 96 616 96 580 c 0
EndSplineSet
EndChar

StartChar: guillemotleft
Encoding: 171 171 107
Width: 541
VWidth: 0
Flags: HMW
LayerCount: 2
Fore
SplineSet
129 235 m 1
 28 255 l 1
 205 509 l 1
 299 445 l 1
 129 235 l 1
28 255 m 1
 129 285 l 1
 299 65 l 1
 205 1 l 1
 28 255 l 1
332 235 m 1
 231 255 l 1
 409 509 l 1
 502 445 l 1
 332 235 l 1
231 255 m 1
 332 285 l 1
 502 65 l 1
 409 1 l 1
 231 255 l 1
EndSplineSet
EndChar

StartChar: guillemotright
Encoding: 187 187 108
Width: 541
VWidth: 0
Flags: HMW
LayerCount: 2
Fore
SplineSet
412 275 m 1
 514 255 l 1
 336 1 l 1
 242 65 l 1
 412 275 l 1
514 255 m 1
 412 225 l 1
 242 445 l 1
 336 509 l 1
 514 255 l 1
209 275 m 1
 310 255 l 1
 132 1 l 1
 39 65 l 1
 209 275 l 1
310 255 m 1
 209 225 l 1
 39 445 l 1
 132 509 l 1
 310 255 l 1
EndSplineSet
EndChar

StartChar: uni00AD
Encoding: 173 173 109
Width: 210
VWidth: 0
Flags: HMW
LayerCount: 2
Fore
SplineSet
5 200 m 1
 5 275 l 1
 205 275 l 1
 205 200 l 1
 5 200 l 1
EndSplineSet
EndChar

StartChar: logicalnot
Encoding: 172 172 110
Width: 650
VWidth: 0
Flags: HMW
LayerCount: 2
Fore
SplineSet
65 272 m 1
 65 403 l 1
 586 403 l 1
 586 272 l 1
 65 272 l 1
480 375 m 1
 586 375 l 1
 586 175 l 1
 480 175 l 1
 480 375 l 1
EndSplineSet
EndChar

StartChar: macron
Encoding: 175 175 111
Width: 531
VWidth: 0
Flags: HMW
LayerCount: 2
Fore
SplineSet
80 572 m 1
 80 703 l 1
 452 703 l 1
 452 572 l 1
 80 572 l 1
EndSplineSet
EndChar

StartChar: degree
Encoding: 176 176 112
Width: 296
VWidth: 0
Flags: HMW
LayerCount: 2
Fore
SplineSet
17 597 m 0
 17 669 72 720 148 720 c 0
 224 720 280 669 280 597 c 0
 280 525 224 474 148 474 c 0
 72 474 17 525 17 597 c 0
91 597 m 0
 91 561 116 538 148 538 c 0
 180 538 205 561 205 597 c 0
 205 633 180 656 148 656 c 0
 116 656 91 633 91 597 c 0
EndSplineSet
EndChar

StartChar: plusminus
Encoding: 177 177 113
Width: 633
VWidth: 0
Flags: HMW
LayerCount: 2
Fore
SplineSet
65 6 m 1
 65 136 l 1
 569 136 l 1
 569 6 l 1
 65 6 l 1
65 332 m 1
 65 468 l 1
 569 468 l 1
 569 332 l 1
 65 332 l 1
240 620 m 1
 394 620 l 1
 394 181 l 1
 240 181 l 1
 240 620 l 1
EndSplineSet
EndChar

StartChar: uni00B2
Encoding: 178 178 114
Width: 408
VWidth: 0
Flags: HMW
LayerCount: 2
Fore
SplineSet
25 282 m 1
 212 476 l 2
 246 512 266 536 266 570 c 0
 266 597 248 624 210 624 c 0
 171 624 145 592 145 547 c 1
 46 547 l 1
 46 636 104 711 214 711 c 0
 318 711 371 641 371 575 c 0
 371 530 346 493 310 462 c 2
 213 375 l 1
 381 375 l 1
 381 282 l 1
 25 282 l 1
EndSplineSet
EndChar

StartChar: uni00B3
Encoding: 179 179 115
Width: 365
VWidth: 0
Flags: HMW
LayerCount: 2
Fore
SplineSet
154 484 m 1
 154 529 l 1
 200 529 232 556 232 586 c 0
 232 611 216 627 184 627 c 0
 152 627 130 607 130 577 c 1
 36 577 l 1
 36 651 94 708 184 708 c 0
 278 708 332 656 332 592 c 0
 332 520 254 484 154 484 c 1
180 270 m 0
 78 270 18 340 18 414 c 1
 118 414 l 1
 118 372 149 352 184 352 c 0
 219 352 244 368 244 404 c 0
 244 439 216 464 154 464 c 1
 154 515 l 1
 265 515 344 479 344 394 c 0
 344 321 283 270 180 270 c 0
EndSplineSet
EndChar

StartChar: acute
Encoding: 180 180 116
Width: 375
VWidth: 0
Flags: HMW
LayerCount: 2
Fore
SplineSet
319 654 m 1
 139 504 l 1
 53 546 l 1
 203 706 l 1
 319 654 l 1
EndSplineSet
EndChar

StartChar: mu
Encoding: 181 181 117
Width: 575
VWidth: 0
Flags: HMW
LayerCount: 2
Fore
SplineSet
364 0 m 1
 364 460 l 1
 516 460 l 1
 516 0 l 1
 364 0 l 1
218 180 m 2
 218 126 234 96 284 96 c 0
 332 96 364 126 364 180 c 1
 394 186 l 1
 394 77 338 -10 224 -10 c 0
 110 -10 60 52 60 164 c 2
 60 460 l 1
 218 460 l 1
 218 180 l 2
60 460 m 1
 205 460 l 1
 205 -320 l 1
 60 -320 l 1
 60 460 l 1
EndSplineSet
EndChar

StartChar: paragraph
Encoding: 182 182 118
Width: 671
VWidth: 0
Flags: HMW
LayerCount: 2
Fore
SplineSet
288 607 m 1
 288 700 l 1
 519 700 l 1
 519 607 l 1
 288 607 l 1
479 700 m 1
 612 700 l 1
 612 -220 l 1
 479 -220 l 1
 479 700 l 1
288 700 m 1
 420 700 l 1
 420 -220 l 1
 288 -220 l 1
 288 700 l 1
288 270 m 1
 163 270 60 346 60 485 c 0
 60 624 163 700 288 700 c 1
 288 270 l 1
EndSplineSet
EndChar

StartChar: periodcentered
Encoding: 183 183 119
Width: 322
VWidth: 0
Flags: HMW
LayerCount: 2
Fore
SplineSet
67 268 m 0
 67 318 106 360 161 360 c 0
 216 360 256 318 256 268 c 0
 256 218 216 176 161 176 c 0
 106 176 67 218 67 268 c 0
EndSplineSet
EndChar

StartChar: uni00B9
Encoding: 185 185 120
Width: 482
VWidth: 0
Flags: HMW
LayerCount: 2
Fore
SplineSet
133 572 m 1
 133 661 l 1
 336 702 l 1
 336 274 l 1
 238 274 l 1
 238 598 l 1
 133 572 l 1
EndSplineSet
EndChar

StartChar: cedilla
Encoding: 184 184 121
Width: 393
Flags: HMW
LayerCount: 2
Fore
SplineSet
184 71 m 1
 294 68 l 1
 188 -79 l 1
 96 -124 l 1
 184 71 l 1
336 -148 m 1
 238 -140 l 1
 238 -114 209 -108 178 -108 c 0
 168 -108 132 -109 96 -124 c 1
 160 -79 l 1
 187 -54 212 -51 244 -51 c 0
 284 -51 336 -82 336 -148 c 1
336 -148 m 1
 336 -220 267 -258 204 -258 c 0
 148 -258 107 -248 60 -218 c 1
 106 -150 l 1
 132 -168 164 -175 184 -175 c 0
 218 -175 238 -164 238 -140 c 1
 336 -148 l 1
EndSplineSet
EndChar

StartChar: questiondown
Encoding: 191 191 122
Width: 627
VWidth: 0
Flags: HMW
LayerCount: 2
Fore
SplineSet
428 641 m 0
 428 597 389 558 334 558 c 0
 279 558 239 597 239 641 c 0
 239 685 279 724 334 724 c 0
 389 724 428 685 428 641 c 0
416 320 m 1
 262 320 l 1
 272 499 l 1
 396 499 l 1
 416 320 l 1
206 200 m 0
 206 142 248 108 319 108 c 0
 379 108 439 140 477 196 c 1
 580 110 l 1
 509 28 428 -20 309 -20 c 0
 177 -20 54 62 54 200 c 0
 54 350 218 422 333 422 c 1
 383 320 l 1
 263 320 206 251 206 200 c 0
EndSplineSet
EndChar

StartChar: multiply
Encoding: 215 215 123
Width: 596
VWidth: 0
Flags: HMW
LayerCount: 2
Fore
SplineSet
140 3 m 1
 46 97 l 1
 209 255 l 1
 46 413 l 1
 140 507 l 1
 298 344 l 1
 456 507 l 1
 550 413 l 1
 387 255 l 1
 550 97 l 1
 456 3 l 1
 298 166 l 1
 140 3 l 1
EndSplineSet
EndChar

StartChar: Oslash
Encoding: 216 216 124
Width: 790
VWidth: 0
Flags: HMW
LayerCount: 2
Fore
SplineSet
213 350 m 0
 213 223 292 140 410 140 c 0
 528 140 608 223 608 350 c 0
 608 477 528 560 410 560 c 0
 292 560 213 477 213 350 c 0
34 350 m 0
 34 566 194 716 410 716 c 0
 626 716 788 566 788 350 c 0
 788 134 626 -22 410 -22 c 0
 194 -22 34 134 34 350 c 0
698 756 m 1
 769 704 l 1
 120 -56 l 1
 50 -4 l 1
 698 756 l 1
EndSplineSet
EndChar

StartChar: Thorn
Encoding: 222 222 125
Width: 612
VWidth: 0
Flags: HMW
LayerCount: 2
Fore
SplineSet
310 128 m 1
 310 260 l 1
 387 260 432 286 432 353 c 0
 432 420 387 446 310 446 c 1
 310 579 l 1
 488 579 583 495 583 353 c 0
 583 211 488 128 310 128 c 1
174 128 m 1
 174 260 l 1
 310 260 l 1
 310 128 l 1
 174 128 l 1
174 446 m 1
 174 579 l 1
 310 579 l 1
 310 446 l 1
 174 446 l 1
80 700 m 1
 228 700 l 1
 228 0 l 1
 80 0 l 1
 80 700 l 1
EndSplineSet
EndChar

StartChar: divide
Encoding: 247 247 126
Width: 639
Flags: HMW
LayerCount: 2
Fore
SplineSet
225 553 m 0
 225 603 265 646 320 646 c 0
 375 646 414 603 414 553 c 0
 414 503 375 460 320 460 c 0
 265 460 225 503 225 553 c 0
225 98 m 0
 225 148 265 190 320 190 c 0
 375 190 414 148 414 98 c 0
 414 48 375 6 320 6 c 0
 265 6 225 48 225 98 c 0
26 260 m 1
 26 396 l 1
 613 396 l 1
 613 260 l 1
 26 260 l 1
EndSplineSet
EndChar

StartChar: oslash
Encoding: 248 248 127
Width: 546
VWidth: 0
Flags: HMW
LayerCount: 2
Fore
SplineSet
32 230 m 0
 32 382 147 470 295 470 c 0
 443 470 558 382 558 230 c 0
 558 78 443 -10 295 -10 c 0
 147 -10 32 78 32 230 c 0
176 230 m 0
 176 153 230 108 295 108 c 0
 360 108 414 153 414 230 c 0
 414 301 360 352 295 352 c 0
 230 352 176 301 176 230 c 0
456 506 m 1
 513 474 l 1
 123 -50 l 1
 66 -18 l 1
 456 506 l 1
EndSplineSet
EndChar

StartChar: circumflex
Encoding: 710 710 128
Width: 480
VWidth: 0
Flags: HMW
LayerCount: 2
Fore
SplineSet
240 630 m 1
 149 544 l 1
 42 615 l 1
 240 755 l 1
 438 615 l 1
 331 544 l 1
 240 630 l 1
EndSplineSet
EndChar

StartChar: ogonek
Encoding: 731 731 129
Width: 260
VWidth: 0
Flags: HMW
LayerCount: 2
Fore
SplineSet
194 -111 m 1
 227 -180 l 1
 212 -200 182 -220 126 -220 c 0
 61 -220 10 -186 10 -120 c 1
 108 -94 l 1
 108 -119 120 -131 144 -131 c 0
 164 -131 180 -124 194 -111 c 1
108 -94 m 1
 10 -120 l 1
 10 -54 78 -11 148 25 c 1
 189 0 l 1
 137 -28 108 -64 108 -94 c 1
EndSplineSet
EndChar

StartChar: tilde
Encoding: 732 732 130
Width: 530
VWidth: 0
Flags: HMW
LayerCount: 2
Fore
SplineSet
75 638 m 1
 85 687 130 732 194 732 c 0
 260 732 275 680 331 680 c 0
 357 680 376 701 396 733 c 1
 468 658 l 1
 452 621 396 573 334 573 c 0
 279 573 244 626 194 626 c 0
 156 626 146 591 146 576 c 1
 75 638 l 1
EndSplineSet
EndChar

StartChar: ring
Encoding: 730 730 131
Width: 328
VWidth: 0
Flags: HMW
LayerCount: 2
Fore
SplineSet
39 770 m 0
 39 839 94 885 164 885 c 0
 234 885 289 839 289 770 c 0
 289 701 234 654 164 654 c 0
 94 654 39 701 39 770 c 0
118 770 m 0
 118 740 139 722 164 722 c 0
 189 722 210 740 210 770 c 0
 210 800 189 818 164 818 c 0
 139 818 118 800 118 770 c 0
EndSplineSet
EndChar

StartChar: dotaccent
Encoding: 729 729 132
Width: 300
VWidth: 0
Flags: HMW
LayerCount: 2
Fore
SplineSet
62 815 m 0
 62 863 101 897 150 897 c 0
 199 897 238 863 238 815 c 0
 238 767 199 733 150 733 c 0
 101 733 62 767 62 815 c 0
EndSplineSet
EndChar

StartChar: uni2010
Encoding: 8208 8208 133
Width: 222
VWidth: 0
Flags: HMW
LayerCount: 2
Fore
SplineSet
5 172 m 1
 5 303 l 1
 218 303 l 1
 218 172 l 1
 5 172 l 1
EndSplineSet
EndChar

StartChar: endash
Encoding: 8211 8211 134
Width: 783
VWidth: 0
Flags: HMW
LayerCount: 2
Fore
SplineSet
70 172 m 1
 70 303 l 1
 708 303 l 1
 708 172 l 1
 70 172 l 1
EndSplineSet
EndChar

StartChar: figuredash
Encoding: 8210 8210 135
Width: 627
VWidth: 0
Flags: HMW
LayerCount: 2
Fore
SplineSet
70 172 m 1
 70 303 l 1
 548 303 l 1
 548 172 l 1
 70 172 l 1
EndSplineSet
EndChar

StartChar: emdash
Encoding: 8212 8212 136
Width: 940
VWidth: 0
Flags: HMW
LayerCount: 2
Fore
SplineSet
70 172 m 1
 70 303 l 1
 867 303 l 1
 867 172 l 1
 70 172 l 1
EndSplineSet
EndChar

StartChar: minus
Encoding: 8722 8722 137
Width: 593
VWidth: 0
Flags: HMW
LayerCount: 2
Fore
SplineSet
58 172 m 1
 58 303 l 1
 536 303 l 1
 536 172 l 1
 58 172 l 1
EndSplineSet
EndChar

StartChar: quoteright
Encoding: 8217 8217 138
Width: 331
VWidth: 0
Flags: HMW
LayerCount: 2
Fore
SplineSet
104 700 m 1
 262 700 l 1
 158 445 l 1
 50 445 l 1
 104 700 l 1
EndSplineSet
EndChar

StartChar: quoteleft
Encoding: 8216 8216 139
Width: 331
VWidth: 0
Flags: HMW
LayerCount: 2
Fore
SplineSet
228 445 m 1
 70 445 l 1
 173 700 l 1
 282 700 l 1
 228 445 l 1
EndSplineSet
EndChar

StartChar: quotesinglbase
Encoding: 8218 8218 140
Width: 331
VWidth: 0
Flags: HMW
LayerCount: 2
Fore
SplineSet
114 80 m 1
 272 80 l 1
 168 -175 l 1
 60 -175 l 1
 114 80 l 1
EndSplineSet
EndChar

StartChar: quotedblleft
Encoding: 8220 8220 141
Width: 562
VWidth: 0
Flags: HMW
LayerCount: 2
Fore
SplineSet
228 445 m 1
 70 445 l 1
 173 700 l 1
 282 700 l 1
 228 445 l 1
458 445 m 1
 301 445 l 1
 404 700 l 1
 512 700 l 1
 458 445 l 1
EndSplineSet
EndChar

StartChar: quotedblright
Encoding: 8221 8221 142
Width: 562
VWidth: 0
Flags: HMW
LayerCount: 2
Fore
SplineSet
104 700 m 1
 262 700 l 1
 158 445 l 1
 50 445 l 1
 104 700 l 1
335 700 m 1
 492 700 l 1
 390 445 l 1
 281 445 l 1
 335 700 l 1
EndSplineSet
EndChar

StartChar: perthousand
Encoding: 8240 8240 143
Width: 1374
VWidth: 0
Flags: HMW
LayerCount: 2
Fore
SplineSet
974 166 m 0
 974 268 1055 351 1163 351 c 0
 1271 351 1352 268 1352 166 c 0
 1352 64 1271 -19 1163 -19 c 0
 1055 -19 974 64 974 166 c 0
1098 166 m 0
 1098 130 1125 100 1163 100 c 0
 1201 100 1228 130 1228 166 c 0
 1228 202 1201 232 1163 232 c 0
 1125 232 1098 202 1098 166 c 0
22 534 m 0
 22 636 104 720 212 720 c 0
 320 720 401 636 401 534 c 0
 401 432 320 350 212 350 c 0
 104 350 22 432 22 534 c 0
147 534 m 0
 147 498 174 468 212 468 c 0
 250 468 276 498 276 534 c 0
 276 570 250 600 212 600 c 0
 174 600 147 570 147 534 c 0
519 166 m 0
 519 268 600 351 708 351 c 0
 816 351 897 268 897 166 c 0
 897 64 816 -19 708 -19 c 0
 600 -19 519 64 519 166 c 0
644 166 m 0
 644 130 670 100 708 100 c 0
 746 100 772 130 772 166 c 0
 772 202 746 232 708 232 c 0
 670 232 644 202 644 166 c 0
650 700 m 1
 807 700 l 1
 269 0 l 1
 113 0 l 1
 650 700 l 1
EndSplineSet
EndChar

StartChar: guilsinglleft
Encoding: 8249 8249 144
Width: 350
VWidth: 0
Flags: HMW
LayerCount: 2
Fore
SplineSet
129 235 m 1
 28 255 l 1
 205 509 l 1
 299 445 l 1
 129 235 l 1
28 255 m 1
 129 285 l 1
 299 65 l 1
 205 1 l 1
 28 255 l 1
EndSplineSet
EndChar

StartChar: guilsinglright
Encoding: 8250 8250 145
Width: 350
VWidth: 0
Flags: HMW
LayerCount: 2
Fore
SplineSet
221 275 m 1
 322 255 l 1
 145 1 l 1
 51 65 l 1
 221 275 l 1
322 255 m 1
 221 225 l 1
 51 445 l 1
 145 509 l 1
 322 255 l 1
EndSplineSet
EndChar

StartChar: uni2031
Encoding: 8241 8241 146
Width: 1829
VWidth: 0
Flags: HMW
LayerCount: 2
Fore
SplineSet
1429 166 m 0
 1429 268 1510 351 1618 351 c 0
 1726 351 1807 268 1807 166 c 0
 1807 64 1726 -19 1618 -19 c 0
 1510 -19 1429 64 1429 166 c 0
1554 166 m 0
 1554 130 1580 100 1618 100 c 0
 1656 100 1682 130 1682 166 c 0
 1682 202 1656 232 1618 232 c 0
 1580 232 1554 202 1554 166 c 0
974 166 m 0
 974 268 1055 351 1163 351 c 0
 1271 351 1352 268 1352 166 c 0
 1352 64 1271 -19 1163 -19 c 0
 1055 -19 974 64 974 166 c 0
1098 166 m 0
 1098 130 1125 100 1163 100 c 0
 1201 100 1228 130 1228 166 c 0
 1228 202 1201 232 1163 232 c 0
 1125 232 1098 202 1098 166 c 0
22 534 m 0
 22 636 104 720 212 720 c 0
 320 720 401 636 401 534 c 0
 401 432 320 350 212 350 c 0
 104 350 22 432 22 534 c 0
147 534 m 0
 147 498 174 468 212 468 c 0
 250 468 276 498 276 534 c 0
 276 570 250 600 212 600 c 0
 174 600 147 570 147 534 c 0
519 166 m 0
 519 268 600 351 708 351 c 0
 816 351 897 268 897 166 c 0
 897 64 816 -19 708 -19 c 0
 600 -19 519 64 519 166 c 0
644 166 m 0
 644 130 670 100 708 100 c 0
 746 100 772 130 772 166 c 0
 772 202 746 232 708 232 c 0
 670 232 644 202 644 166 c 0
650 700 m 1
 807 700 l 1
 269 0 l 1
 113 0 l 1
 650 700 l 1
EndSplineSet
EndChar

StartChar: uni203D
Encoding: 8253 8253 147
Width: 627
VWidth: 0
Flags: HMW
LayerCount: 2
Fore
SplineSet
434 481 m 0
 434 555 380 592 300 592 c 0
 240 592 181 566 150 504 c 1
 48 590 l 1
 94 660 190 718 316 718 c 0
 448 718 574 638 574 500 c 0
 574 350 409 278 294 278 c 1
 275 348 l 1
 357 348 434 405 434 481 c 0
216 504 m 1
 360 504 l 1
 333 201 l 1
 243 201 l 1
 216 504 l 1
198 62 m 0
 198 111 239 148 294 148 c 0
 349 148 390 111 390 62 c 0
 390 13 349 -24 294 -24 c 0
 239 -24 198 13 198 62 c 0
EndSplineSet
EndChar

StartChar: Euro
Encoding: 8364 8364 148
Width: 655
VWidth: 0
Flags: HMW
LayerCount: 2
Fore
SplineSet
54 382 m 1
 54 465 l 1
 546 465 l 1
 546 382 l 1
 54 382 l 1
40 250 m 1
 40 334 l 1
 526 334 l 1
 526 250 l 1
 40 250 l 1
248 350 m 0
 248 200 317 120 414 120 c 0
 471 120 523 142 564 182 c 1
 564 22 l 1
 519 -4 468 -20 414 -20 c 0
 221 -20 101 141 101 350 c 0
 101 559 221 720 414 720 c 0
 468 720 519 705 564 679 c 1
 564 518 l 1
 523 558 471 580 414 580 c 0
 317 580 248 500 248 350 c 0
EndSplineSet
EndChar

StartChar: fraction
Encoding: 8260 8260 149
Width: 730
VWidth: 0
Flags: HMW
LayerCount: 2
Fore
SplineSet
580 700 m 1
 702 700 l 1
 182 0 l 1
 60 0 l 1
 580 700 l 1
EndSplineSet
EndChar

StartChar: onequarter
Encoding: 188 188 150
Width: 822
VWidth: 0
Flags: HMW
LayerCount: 2
Fore
SplineSet
630 700 m 1
 726 700 l 1
 206 0 l 1
 110 0 l 1
 630 700 l 1
24 572 m 1
 24 661 l 1
 226 702 l 1
 226 274 l 1
 128 274 l 1
 128 598 l 1
 24 572 l 1
407 74 m 1
 490 148 l 1
 676 148 l 0
 686 161 l 0
 792 161 l 1
 792 74 l 1
 407 74 l 1
510 104 m 1
 407 74 l 1
 651 420 l 25
 726 420 l 1
 726 0 l 1
 621 0 l 1
 621 96 l 0
 632 102 l 0
 632 274 l 1
 510 104 l 1
EndSplineSet
EndChar

StartChar: onehalf
Encoding: 189 189 151
Width: 894
VWidth: 0
Flags: HMW
LayerCount: 2
Fore
SplineSet
630 700 m 1
 726 700 l 1
 206 0 l 1
 110 0 l 1
 630 700 l 1
24 572 m 1
 24 661 l 1
 226 702 l 1
 226 274 l 1
 128 274 l 1
 128 598 l 1
 24 572 l 1
506 2 m 1
 693 196 l 2
 727 232 747 256 747 290 c 0
 747 317 729 344 691 344 c 0
 652 344 626 312 626 267 c 1
 526 267 l 1
 526 356 584 431 694 431 c 0
 798 431 852 361 852 295 c 0
 852 250 827 213 791 182 c 2
 694 95 l 1
 862 95 l 1
 862 2 l 1
 506 2 l 1
EndSplineSet
EndChar

StartChar: threequarters
Encoding: 190 190 152
Width: 879
VWidth: 0
Flags: HMW
LayerCount: 2
Fore
SplineSet
694 700 m 1
 790 700 l 1
 270 0 l 1
 174 0 l 1
 694 700 l 1
162 484 m 1
 162 529 l 1
 208 529 240 556 240 586 c 0
 240 611 224 627 192 627 c 0
 160 627 138 607 138 577 c 1
 44 577 l 1
 44 651 102 708 192 708 c 0
 286 708 340 656 340 592 c 0
 340 520 262 484 162 484 c 1
188 270 m 0
 86 270 26 340 26 414 c 1
 126 414 l 1
 126 372 157 352 192 352 c 0
 227 352 252 368 252 404 c 0
 252 439 224 464 162 464 c 1
 162 515 l 1
 273 515 352 479 352 394 c 0
 352 321 291 270 188 270 c 0
464 74 m 1
 548 148 l 1
 734 148 l 0
 744 161 l 0
 850 161 l 1
 850 74 l 1
 464 74 l 1
567 104 m 1
 464 74 l 1
 708 420 l 25
 784 420 l 1
 784 0 l 1
 678 0 l 1
 678 96 l 0
 690 102 l 0
 690 274 l 1
 567 104 l 1
EndSplineSet
EndChar

StartChar: uni2150
Encoding: 8528 8528 153
Width: 942
VWidth: 0
Flags: HMW
LayerCount: 2
Fore
SplineSet
606 700 m 1
 726 700 l 1
 206 0 l 1
 86 0 l 1
 606 700 l 1
24 572 m 1
 24 661 l 1
 226 702 l 1
 226 274 l 1
 128 274 l 1
 128 598 l 1
 24 572 l 1
578 325 m 1
 578 420 l 1
 920 420 l 1
 718 0 l 1
 608 0 l 1
 771 325 l 1
 578 325 l 1
EndSplineSet
EndChar

StartChar: uni2151
Encoding: 8529 8529 154
Width: 884
VWidth: 0
Flags: HMW
LayerCount: 2
Fore
SplineSet
599 700 m 1
 720 700 l 1
 200 0 l 1
 79 0 l 1
 599 700 l 1
24 572 m 1
 24 661 l 1
 226 702 l 1
 226 274 l 1
 128 274 l 1
 128 598 l 1
 24 572 l 1
760 274 m 0
 760 317 730 345 690 345 c 0
 650 345 620 317 620 274 c 0
 620 231 650 203 690 203 c 0
 730 203 760 231 760 274 c 0
692 4 m 1
 562 4 l 1
 698 156 l 1
 719 164 l 1
 697 142 679 138 649 138 c 0
 587 138 520 190 520 274 c 0
 520 377 596 432 690 432 c 0
 784 432 862 377 862 274 c 0
 862 229 839 192 812 158 c 2
 692 4 l 1
EndSplineSet
EndChar

StartChar: uni2152
Encoding: 8530 8530 155
Width: 1211
VWidth: 0
Flags: HMW
LayerCount: 2
Fore
SplineSet
599 700 m 1
 720 700 l 1
 200 0 l 1
 79 0 l 1
 599 700 l 1
24 572 m 1
 24 661 l 1
 226 702 l 1
 226 274 l 1
 128 274 l 1
 128 598 l 1
 24 572 l 1
550 299 m 1
 550 388 l 1
 752 429 l 1
 752 1 l 1
 654 1 l 1
 654 326 l 1
 550 299 l 1
926 210 m 0
 926 131 958 80 1004 80 c 0
 1050 80 1080 131 1080 210 c 0
 1080 289 1050 340 1004 340 c 0
 958 340 926 289 926 210 c 0
828 210 m 0
 828 346 901 428 1004 428 c 0
 1111 428 1178 346 1178 210 c 0
 1178 74 1111 -8 1004 -8 c 0
 901 -8 828 74 828 210 c 0
EndSplineSet
EndChar

StartChar: onethird
Encoding: 8531 8531 156
Width: 873
VWidth: 0
Flags: HMW
LayerCount: 2
Fore
SplineSet
598 700 m 1
 720 700 l 1
 200 0 l 1
 78 0 l 1
 598 700 l 1
24 572 m 1
 24 661 l 1
 226 702 l 1
 226 274 l 1
 128 274 l 1
 128 598 l 1
 24 572 l 1
659 204 m 1
 659 249 l 1
 705 249 736 276 736 306 c 0
 736 331 721 347 689 347 c 0
 657 347 634 327 634 297 c 1
 540 297 l 1
 540 371 600 428 690 428 c 0
 784 428 837 376 837 312 c 0
 837 240 759 204 659 204 c 1
684 -10 m 0
 582 -10 522 60 522 134 c 1
 623 134 l 1
 623 92 653 72 688 72 c 0
 723 72 748 88 748 124 c 0
 748 159 721 184 659 184 c 1
 659 235 l 1
 770 235 849 199 849 114 c 0
 849 41 787 -10 684 -10 c 0
EndSplineSet
EndChar

StartChar: twothirds
Encoding: 8532 8532 157
Width: 1007
VWidth: 0
Flags: HMW
LayerCount: 2
Fore
SplineSet
745 700 m 1
 866 700 l 1
 346 0 l 1
 225 0 l 1
 745 700 l 1
30 282 m 1
 218 476 l 2
 252 512 272 536 272 570 c 0
 272 597 254 624 216 624 c 0
 177 624 150 592 150 547 c 1
 50 547 l 1
 50 636 108 711 218 711 c 0
 322 711 376 641 376 575 c 0
 376 530 352 493 316 462 c 2
 218 375 l 1
 386 375 l 1
 386 282 l 1
 30 282 l 1
792 204 m 1
 792 249 l 1
 838 249 870 276 870 306 c 0
 870 331 854 347 822 347 c 0
 790 347 768 327 768 297 c 1
 674 297 l 1
 674 371 732 428 822 428 c 0
 916 428 970 376 970 312 c 0
 970 240 892 204 792 204 c 1
818 -10 m 0
 716 -10 656 60 656 134 c 1
 756 134 l 1
 756 92 787 72 822 72 c 0
 857 72 882 88 882 124 c 0
 882 159 854 184 792 184 c 1
 792 235 l 1
 903 235 982 199 982 114 c 0
 982 41 921 -10 818 -10 c 0
EndSplineSet
EndChar

StartChar: uni2155
Encoding: 8533 8533 158
Width: 862
VWidth: 0
Flags: HMW
LayerCount: 2
Fore
SplineSet
599 700 m 1
 720 700 l 1
 200 0 l 1
 79 0 l 1
 599 700 l 1
24 572 m 1
 24 661 l 1
 226 702 l 1
 226 274 l 1
 128 274 l 1
 128 598 l 1
 24 572 l 1
840 132 m 0
 840 34 751 -10 670 -10 c 0
 593 -10 541 15 502 44 c 1
 542 129 l 1
 576 101 617 83 648 83 c 0
 698 83 729 103 729 144 c 0
 729 185 689 202 648 202 c 0
 616 202 573 196 530 175 c 1
 600 226 l 1
 632 260 670 270 712 270 c 0
 778 270 840 218 840 132 c 0
663 330 m 1
 628 226 l 1
 530 175 l 1
 588 418 l 1
 831 418 l 1
 831 330 l 1
 663 330 l 1
EndSplineSet
EndChar

StartChar: uni2156
Encoding: 8534 8534 159
Width: 1005
VWidth: 0
Flags: HMW
LayerCount: 2
Fore
SplineSet
745 700 m 1
 866 700 l 1
 346 0 l 1
 225 0 l 1
 745 700 l 1
30 282 m 1
 218 476 l 2
 252 512 272 536 272 570 c 0
 272 597 254 624 216 624 c 0
 177 624 150 592 150 547 c 1
 50 547 l 1
 50 636 108 711 218 711 c 0
 322 711 376 641 376 575 c 0
 376 530 352 493 316 462 c 2
 218 375 l 1
 386 375 l 1
 386 282 l 1
 30 282 l 1
973 132 m 0
 973 34 885 -10 804 -10 c 0
 727 -10 675 15 636 44 c 1
 675 129 l 1
 709 101 750 83 781 83 c 0
 831 83 862 103 862 144 c 0
 862 185 822 202 781 202 c 0
 749 202 707 196 664 175 c 1
 734 226 l 1
 766 260 804 270 846 270 c 0
 912 270 973 218 973 132 c 0
796 330 m 1
 761 226 l 1
 664 175 l 1
 722 418 l 1
 964 418 l 1
 964 330 l 1
 796 330 l 1
EndSplineSet
EndChar

StartChar: uni2157
Encoding: 8535 8535 160
Width: 931
VWidth: 0
Flags: HMW
LayerCount: 2
Fore
SplineSet
674 700 m 1
 795 700 l 1
 275 0 l 1
 154 0 l 1
 674 700 l 1
159 484 m 1
 159 529 l 1
 205 529 236 556 236 586 c 0
 236 611 221 627 189 627 c 0
 157 627 134 607 134 577 c 1
 40 577 l 1
 40 651 100 708 190 708 c 0
 284 708 338 656 338 592 c 0
 338 520 259 484 159 484 c 1
184 270 m 0
 82 270 22 340 22 414 c 1
 123 414 l 1
 123 372 153 352 188 352 c 0
 223 352 248 368 248 404 c 0
 248 439 221 464 159 464 c 1
 159 515 l 1
 270 515 350 479 350 394 c 0
 350 321 287 270 184 270 c 0
896 132 m 0
 896 34 807 -10 726 -10 c 0
 649 -10 597 15 558 44 c 1
 598 129 l 1
 632 101 673 83 704 83 c 0
 754 83 785 103 785 144 c 0
 785 185 745 202 704 202 c 0
 672 202 629 196 586 175 c 1
 656 226 l 1
 688 260 726 270 768 270 c 0
 834 270 896 218 896 132 c 0
718 330 m 1
 684 226 l 1
 586 175 l 1
 644 418 l 1
 887 418 l 1
 887 330 l 1
 718 330 l 1
EndSplineSet
EndChar

StartChar: uni2158
Encoding: 8536 8536 161
Width: 1016
VWidth: 0
Flags: HMW
LayerCount: 2
Fore
SplineSet
734 700 m 1
 855 700 l 1
 335 -0 l 1
 214 -0 l 1
 734 700 l 1
22 354 m 1
 105 428 l 1
 291 428 l 0
 301 441 l 0
 408 441 l 1
 408 354 l 1
 22 354 l 1
124 384 m 1
 22 354 l 1
 266 700 l 25
 342 700 l 1
 342 280 l 1
 236 280 l 1
 236 376 l 0
 248 382 l 0
 248 554 l 1
 124 384 l 1
986 132 m 0
 986 34 898 -10 817 -10 c 0
 740 -10 689 15 650 44 c 1
 688 128 l 1
 722 100 763 82 794 82 c 0
 844 82 876 102 876 143 c 0
 876 184 835 202 794 202 c 0
 762 202 720 195 677 174 c 1
 748 226 l 1
 780 260 817 269 859 269 c 0
 925 269 986 218 986 132 c 0
810 330 m 1
 775 225 l 1
 677 174 l 1
 735 418 l 1
 978 418 l 1
 978 330 l 1
 810 330 l 1
EndSplineSet
EndChar

StartChar: uni2159
Encoding: 8537 8537 162
Width: 871
VWidth: 0
Flags: HMW
LayerCount: 2
Fore
SplineSet
618 700 m 1
 740 700 l 1
 220 0 l 1
 98 0 l 1
 618 700 l 1
24 572 m 1
 24 661 l 1
 226 702 l 1
 226 274 l 1
 128 274 l 1
 128 598 l 1
 24 572 l 1
602 146 m 0
 602 103 632 75 672 75 c 0
 712 75 743 103 743 146 c 0
 743 189 712 217 672 217 c 0
 632 217 602 189 602 146 c 0
672 416 m 1
 800 416 l 1
 664 264 l 1
 644 256 l 1
 666 278 684 282 714 282 c 0
 776 282 844 230 844 146 c 0
 844 43 766 -12 672 -12 c 0
 578 -12 502 43 502 146 c 0
 502 191 523 228 550 262 c 2
 672 416 l 1
EndSplineSet
EndChar

StartChar: uni215A
Encoding: 8538 8538 163
Width: 931
VWidth: 0
Flags: HMW
LayerCount: 2
Fore
SplineSet
696 700 m 1
 818 700 l 1
 298 0 l 1
 176 0 l 1
 696 700 l 1
367 412 m 0
 367 314 279 270 198 270 c 0
 121 270 69 295 30 324 c 1
 70 409 l 1
 104 381 145 363 176 363 c 0
 226 363 256 383 256 424 c 0
 256 465 217 482 176 482 c 0
 144 482 101 476 58 455 c 1
 128 506 l 1
 160 540 198 550 240 550 c 0
 306 550 367 498 367 412 c 0
190 610 m 1
 156 506 l 1
 58 455 l 1
 116 698 l 1
 358 698 l 1
 358 610 l 1
 190 610 l 1
662 146 m 0
 662 103 692 75 732 75 c 0
 772 75 802 103 802 146 c 0
 802 189 772 217 732 217 c 0
 692 217 662 189 662 146 c 0
731 416 m 1
 860 416 l 1
 724 264 l 1
 704 256 l 1
 726 278 743 282 773 282 c 0
 835 282 903 230 903 146 c 0
 903 43 826 -12 732 -12 c 0
 638 -12 561 43 561 146 c 0
 561 191 583 228 610 262 c 2
 731 416 l 1
EndSplineSet
EndChar

StartChar: oneeighth
Encoding: 8539 8539 164
Width: 891
VWidth: 0
Flags: HMW
LayerCount: 2
Fore
SplineSet
618 700 m 1
 740 700 l 1
 220 0 l 1
 98 0 l 1
 618 700 l 1
24 572 m 1
 24 661 l 1
 226 702 l 1
 226 274 l 1
 128 274 l 1
 128 598 l 1
 24 572 l 1
561 319 m 0
 561 389 627 430 704 430 c 0
 781 430 846 389 846 319 c 0
 846 243 773 206 704 206 c 0
 635 206 561 243 561 319 c 0
657 310 m 0
 657 281 678 261 704 261 c 0
 730 261 750 281 750 310 c 0
 750 339 732 356 704 356 c 0
 676 356 657 339 657 310 c 0
546 114 m 0
 546 202 635 238 704 238 c 0
 773 238 860 202 860 114 c 0
 860 38 786 -10 704 -10 c 0
 622 -10 546 38 546 114 c 0
648 130 m 0
 648 93 673 72 704 72 c 0
 735 72 759 93 759 130 c 0
 759 161 735 184 704 184 c 0
 673 184 648 161 648 130 c 0
EndSplineSet
EndChar

StartChar: threeeighths
Encoding: 8540 8540 165
Width: 953
VWidth: 0
Flags: HMW
LayerCount: 2
Fore
SplineSet
680 700 m 1
 801 700 l 1
 281 0 l 1
 160 0 l 1
 680 700 l 1
159 484 m 1
 159 529 l 1
 205 529 236 556 236 586 c 0
 236 611 221 627 189 627 c 0
 157 627 134 607 134 577 c 1
 40 577 l 1
 40 651 100 708 190 708 c 0
 284 708 338 656 338 592 c 0
 338 520 259 484 159 484 c 1
184 270 m 0
 82 270 22 340 22 414 c 1
 123 414 l 1
 123 372 153 352 188 352 c 0
 223 352 248 368 248 404 c 0
 248 439 221 464 159 464 c 1
 159 515 l 1
 270 515 350 479 350 394 c 0
 350 321 287 270 184 270 c 0
623 319 m 0
 623 389 689 430 766 430 c 0
 843 430 908 389 908 319 c 0
 908 243 835 206 766 206 c 0
 697 206 623 243 623 319 c 0
719 310 m 0
 719 281 740 261 766 261 c 0
 792 261 812 281 812 310 c 0
 812 339 794 356 766 356 c 0
 738 356 719 339 719 310 c 0
608 114 m 0
 608 202 697 238 766 238 c 0
 835 238 922 202 922 114 c 0
 922 38 848 -10 766 -10 c 0
 684 -10 608 38 608 114 c 0
710 130 m 0
 710 93 735 72 766 72 c 0
 797 72 821 93 821 130 c 0
 821 161 797 184 766 184 c 0
 735 184 710 161 710 130 c 0
EndSplineSet
EndChar

StartChar: fiveeighths
Encoding: 8541 8541 166
Width: 969
VWidth: 0
Flags: HMW
LayerCount: 2
Fore
SplineSet
696 700 m 1
 818 700 l 1
 298 0 l 1
 176 0 l 1
 696 700 l 1
361 412 m 0
 361 314 273 270 192 270 c 0
 115 270 63 295 24 324 c 1
 63 409 l 1
 97 381 138 363 169 363 c 0
 219 363 250 383 250 424 c 0
 250 465 210 482 169 482 c 0
 137 482 95 476 52 455 c 1
 122 506 l 1
 154 540 192 550 234 550 c 0
 300 550 361 498 361 412 c 0
184 610 m 1
 150 506 l 1
 52 455 l 1
 110 698 l 1
 352 698 l 1
 352 610 l 1
 184 610 l 1
640 319 m 0
 640 389 705 430 782 430 c 0
 859 430 924 389 924 319 c 0
 924 243 851 206 782 206 c 0
 713 206 640 243 640 319 c 0
735 310 m 0
 735 281 756 261 782 261 c 0
 808 261 828 281 828 310 c 0
 828 339 810 356 782 356 c 0
 754 356 735 339 735 310 c 0
624 114 m 0
 624 202 713 238 782 238 c 0
 851 238 939 202 939 114 c 0
 939 38 864 -10 782 -10 c 0
 700 -10 624 38 624 114 c 0
726 130 m 0
 726 93 751 72 782 72 c 0
 813 72 838 93 838 130 c 0
 838 161 813 184 782 184 c 0
 751 184 726 161 726 130 c 0
EndSplineSet
EndChar

StartChar: seveneighths
Encoding: 8542 8542 167
Width: 859
VWidth: 0
Flags: HMW
LayerCount: 2
Fore
SplineSet
580 700 m 1
 702 700 l 1
 182 0 l 1
 60 0 l 1
 580 700 l 1
23 605 m 1
 23 700 l 1
 366 700 l 1
 163 280 l 1
 54 280 l 1
 217 605 l 1
 23 605 l 1
530 319 m 0
 530 389 595 430 672 430 c 0
 749 430 814 389 814 319 c 0
 814 243 741 206 672 206 c 0
 603 206 530 243 530 319 c 0
625 310 m 0
 625 281 646 261 672 261 c 0
 698 261 718 281 718 310 c 0
 718 339 700 356 672 356 c 0
 644 356 625 339 625 310 c 0
514 114 m 0
 514 202 603 238 672 238 c 0
 741 238 829 202 829 114 c 0
 829 38 754 -10 672 -10 c 0
 590 -10 514 38 514 114 c 0
616 130 m 0
 616 93 641 72 672 72 c 0
 703 72 728 93 728 130 c 0
 728 161 703 184 672 184 c 0
 641 184 616 161 616 130 c 0
EndSplineSet
EndChar

StartChar: uni2074
Encoding: 8308 8308 168
Width: 426
VWidth: 0
Flags: HMW
LayerCount: 2
Fore
SplineSet
16 354 m 1
 99 428 l 1
 284 428 l 0
 294 441 l 0
 401 441 l 1
 401 354 l 1
 16 354 l 1
118 384 m 1
 16 354 l 1
 260 700 l 25
 335 700 l 1
 335 280 l 1
 230 280 l 1
 230 376 l 0
 241 382 l 0
 241 554 l 1
 118 384 l 1
EndSplineSet
EndChar

StartChar: uni2075
Encoding: 8309 8309 169
Width: 387
VWidth: 0
Flags: HMW
LayerCount: 2
Fore
SplineSet
361 412 m 0
 361 314 273 270 192 270 c 0
 115 270 63 295 24 324 c 1
 63 409 l 1
 97 381 138 363 169 363 c 0
 219 363 250 383 250 424 c 0
 250 465 210 482 169 482 c 0
 137 482 95 476 52 455 c 1
 122 506 l 1
 154 540 192 550 234 550 c 0
 300 550 361 498 361 412 c 0
184 610 m 1
 150 506 l 1
 52 455 l 1
 110 698 l 1
 352 698 l 1
 352 610 l 1
 184 610 l 1
EndSplineSet
EndChar

StartChar: uni2076
Encoding: 8310 8310 170
Width: 383
VWidth: 0
Flags: HMW
LayerCount: 2
Fore
SplineSet
122 426 m 0
 122 383 154 355 194 355 c 0
 234 355 264 383 264 426 c 0
 264 469 234 497 194 497 c 0
 154 497 122 469 122 426 c 0
192 696 m 1
 321 696 l 1
 185 544 l 1
 164 536 l 1
 186 558 204 562 234 562 c 0
 296 562 364 510 364 426 c 0
 364 323 288 268 194 268 c 0
 100 268 22 323 22 426 c 0
 22 471 44 508 71 542 c 2
 192 696 l 1
EndSplineSet
EndChar

StartChar: uni2077
Encoding: 8311 8311 171
Width: 379
VWidth: 0
Flags: HMW
LayerCount: 2
Fore
SplineSet
23 605 m 1
 23 700 l 1
 366 700 l 1
 163 280 l 1
 54 280 l 1
 217 605 l 1
 23 605 l 1
EndSplineSet
EndChar

StartChar: uni2078
Encoding: 8312 8312 172
Width: 362
VWidth: 0
Flags: HMW
LayerCount: 2
Fore
SplineSet
38 599 m 0
 38 669 103 710 180 710 c 0
 257 710 322 669 322 599 c 0
 322 523 249 486 180 486 c 0
 111 486 38 523 38 599 c 0
134 590 m 0
 134 561 154 541 180 541 c 0
 206 541 226 561 226 590 c 0
 226 619 208 636 180 636 c 0
 152 636 134 619 134 590 c 0
22 394 m 0
 22 482 111 518 180 518 c 0
 249 518 337 482 337 394 c 0
 337 318 262 270 180 270 c 0
 98 270 22 318 22 394 c 0
124 410 m 0
 124 373 149 352 180 352 c 0
 211 352 236 373 236 410 c 0
 236 441 211 464 180 464 c 0
 149 464 124 441 124 410 c 0
EndSplineSet
EndChar

StartChar: uni2079
Encoding: 8313 8313 173
Width: 380
VWidth: 0
Flags: HMW
LayerCount: 2
Fore
SplineSet
264 554 m 0
 264 597 234 625 194 625 c 0
 154 625 124 597 124 554 c 0
 124 511 154 483 194 483 c 0
 234 483 264 511 264 554 c 0
196 284 m 1
 66 284 l 1
 202 436 l 1
 223 444 l 1
 201 422 183 418 153 418 c 0
 91 418 23 470 23 554 c 0
 23 657 100 712 194 712 c 0
 288 712 366 657 366 554 c 0
 366 509 343 472 316 438 c 2
 196 284 l 1
EndSplineSet
EndChar

StartChar: uni2070
Encoding: 8304 8304 174
Width: 390
VWidth: 0
Flags: HMW
LayerCount: 2
Fore
SplineSet
118 490 m 0
 118 411 150 360 196 360 c 0
 242 360 272 411 272 490 c 0
 272 569 242 620 196 620 c 0
 150 620 118 569 118 490 c 0
20 490 m 0
 20 626 93 708 196 708 c 0
 303 708 370 626 370 490 c 0
 370 354 303 272 196 272 c 0
 93 272 20 354 20 490 c 0
EndSplineSet
EndChar

StartChar: uni2080
Encoding: 8320 8320 175
Width: 390
VWidth: 0
Flags: HMW
LayerCount: 2
Fore
SplineSet
118 210 m 0
 118 131 150 80 196 80 c 0
 242 80 272 131 272 210 c 0
 272 289 242 340 196 340 c 0
 150 340 118 289 118 210 c 0
20 210 m 0
 20 346 93 428 196 428 c 0
 303 428 370 346 370 210 c 0
 370 74 303 -8 196 -8 c 0
 93 -8 20 74 20 210 c 0
EndSplineSet
EndChar

StartChar: uni2084
Encoding: 8324 8324 176
Width: 431
VWidth: 0
Flags: HMW
LayerCount: 2
Fore
SplineSet
14 74 m 1
 98 148 l 1
 284 148 l 0
 294 161 l 0
 400 161 l 1
 400 74 l 1
 14 74 l 1
117 104 m 1
 14 74 l 1
 258 420 l 25
 334 420 l 1
 334 0 l 1
 228 0 l 1
 228 96 l 0
 240 102 l 0
 240 274 l 1
 117 104 l 1
EndSplineSet
EndChar

StartChar: uni2085
Encoding: 8325 8325 177
Width: 396
VWidth: 0
Flags: HMW
LayerCount: 2
Fore
SplineSet
364 132 m 0
 364 34 275 -10 194 -10 c 0
 117 -10 66 15 27 44 c 1
 66 129 l 1
 100 101 141 83 172 83 c 0
 222 83 254 103 254 144 c 0
 254 185 213 202 172 202 c 0
 140 202 97 196 54 175 c 1
 125 226 l 1
 157 260 194 270 236 270 c 0
 302 270 364 218 364 132 c 0
187 330 m 1
 152 226 l 1
 54 175 l 1
 112 418 l 1
 356 418 l 1
 356 330 l 1
 187 330 l 1
EndSplineSet
EndChar

StartChar: uni2086
Encoding: 8326 8326 178
Width: 394
VWidth: 0
Flags: HMW
LayerCount: 2
Fore
SplineSet
126 146 m 0
 126 103 157 75 197 75 c 0
 237 75 267 103 267 146 c 0
 267 189 237 217 197 217 c 0
 157 217 126 189 126 146 c 0
196 416 m 1
 324 416 l 1
 188 264 l 1
 168 256 l 1
 190 278 208 282 238 282 c 0
 300 282 368 230 368 146 c 0
 368 43 291 -12 197 -12 c 0
 103 -12 26 43 26 146 c 0
 26 191 47 228 74 262 c 2
 196 416 l 1
EndSplineSet
EndChar

StartChar: uni2087
Encoding: 8327 8327 179
Width: 384
VWidth: 0
Flags: HMW
LayerCount: 2
Fore
SplineSet
27 325 m 1
 27 420 l 1
 370 420 l 1
 166 0 l 1
 58 0 l 1
 220 325 l 1
 27 325 l 1
EndSplineSet
EndChar

StartChar: uni2088
Encoding: 8328 8328 180
Width: 368
VWidth: 0
Flags: HMW
LayerCount: 2
Fore
SplineSet
42 319 m 0
 42 389 107 430 184 430 c 0
 261 430 326 389 326 319 c 0
 326 243 253 206 184 206 c 0
 115 206 42 243 42 319 c 0
138 310 m 0
 138 281 158 261 184 261 c 0
 210 261 230 281 230 310 c 0
 230 339 212 356 184 356 c 0
 156 356 138 339 138 310 c 0
27 114 m 0
 27 202 115 238 184 238 c 0
 253 238 342 202 342 114 c 0
 342 38 266 -10 184 -10 c 0
 102 -10 27 38 27 114 c 0
128 130 m 0
 128 93 153 72 184 72 c 0
 215 72 240 93 240 130 c 0
 240 161 215 184 184 184 c 0
 153 184 128 161 128 130 c 0
EndSplineSet
EndChar

StartChar: uni2089
Encoding: 8329 8329 181
Width: 398
VWidth: 0
Flags: HMW
LayerCount: 2
Fore
SplineSet
266 274 m 0
 266 317 236 345 196 345 c 0
 156 345 125 317 125 274 c 0
 125 231 156 203 196 203 c 0
 236 203 266 231 266 274 c 0
198 4 m 1
 68 4 l 1
 204 156 l 1
 225 164 l 1
 203 142 184 138 154 138 c 0
 92 138 25 190 25 274 c 0
 25 377 102 432 196 432 c 0
 290 432 368 377 368 274 c 0
 368 229 345 192 318 158 c 2
 198 4 l 1
EndSplineSet
EndChar

StartChar: uni2081
Encoding: 8321 8321 182
Width: 360
VWidth: 0
Flags: HMW
LayerCount: 2
Fore
SplineSet
90 299 m 1
 90 388 l 1
 292 429 l 1
 292 1 l 1
 194 1 l 1
 194 326 l 1
 90 299 l 1
EndSplineSet
EndChar

StartChar: uni2082
Encoding: 8322 8322 183
Width: 411
VWidth: 0
Flags: HMW
LayerCount: 2
Fore
SplineSet
28 2 m 1
 216 196 l 2
 250 232 270 256 270 290 c 0
 270 317 252 344 214 344 c 0
 175 344 148 312 148 267 c 1
 48 267 l 1
 48 356 106 431 216 431 c 0
 320 431 374 361 374 295 c 0
 374 250 350 213 314 182 c 2
 216 95 l 1
 384 95 l 1
 384 2 l 1
 28 2 l 1
EndSplineSet
EndChar

StartChar: uni2083
Encoding: 8323 8323 184
Width: 372
VWidth: 0
Flags: HMW
LayerCount: 2
Fore
SplineSet
158 204 m 1
 158 249 l 1
 204 249 236 276 236 306 c 0
 236 331 220 347 188 347 c 0
 156 347 134 327 134 297 c 1
 40 297 l 1
 40 371 99 428 189 428 c 0
 283 428 337 376 337 312 c 0
 337 240 258 204 158 204 c 1
184 -10 m 0
 82 -10 22 60 22 134 c 1
 122 134 l 1
 122 92 153 72 188 72 c 0
 223 72 248 88 248 124 c 0
 248 159 220 184 158 184 c 1
 158 235 l 1
 269 235 349 199 349 114 c 0
 349 41 287 -10 184 -10 c 0
EndSplineSet
EndChar

StartChar: Agrave
Encoding: 192 192 185
Width: 735
VWidth: 0
Flags: HM
LayerCount: 2
Fore
SplineSet
184 135 m 1
 196 264 l 1
 544 264 l 1
 554 135 l 1
 184 135 l 1
368 442 m 1
 270 217 l 1
 277 179 l 1
 190 0 l 1
 -2 0 l 1
 368 744 l 1
 736 0 l 1
 544 0 l 1
 460 172 l 1
 466 216 l 1
 368 442 l 1
206 954 m 1
 322 1007 l 1
 472 847 l 1
 386 804 l 1
 206 954 l 1
EndSplineSet
EndChar

StartChar: Aacute
Encoding: 193 193 186
Width: 735
VWidth: 0
Flags: HM
LayerCount: 2
Fore
SplineSet
184 135 m 1
 196 264 l 1
 544 264 l 1
 554 135 l 1
 184 135 l 1
368 442 m 1
 270 217 l 1
 277 179 l 1
 190 0 l 1
 -2 0 l 1
 368 744 l 1
 736 0 l 1
 544 0 l 1
 460 172 l 1
 466 216 l 1
 368 442 l 1
526 954 m 1
 346 804 l 1
 260 847 l 1
 410 1007 l 1
 526 954 l 1
EndSplineSet
EndChar

StartChar: Acircumflex
Encoding: 194 194 187
Width: 735
VWidth: 0
Flags: HM
LayerCount: 2
Fore
SplineSet
184 135 m 1
 196 264 l 1
 544 264 l 1
 554 135 l 1
 184 135 l 1
368 442 m 1
 270 217 l 1
 277 179 l 1
 190 0 l 1
 -2 0 l 1
 368 744 l 1
 736 0 l 1
 544 0 l 1
 460 172 l 1
 466 216 l 1
 368 442 l 1
368 875 m 1
 276 790 l 1
 170 860 l 1
 368 1000 l 1
 565 860 l 1
 459 790 l 1
 368 875 l 1
EndSplineSet
EndChar

StartChar: Atilde
Encoding: 195 195 188
Width: 735
VWidth: 0
Flags: HM
LayerCount: 2
Fore
SplineSet
184 135 m 1
 196 264 l 1
 544 264 l 1
 554 135 l 1
 184 135 l 1
368 442 m 1
 270 217 l 1
 277 179 l 1
 190 0 l 1
 -2 0 l 1
 368 744 l 1
 736 0 l 1
 544 0 l 1
 460 172 l 1
 466 216 l 1
 368 442 l 1
172 862 m 1
 182 911 227 957 291 957 c 0
 357 957 372 905 428 905 c 0
 454 905 472 926 492 958 c 1
 564 884 l 1
 548 847 492 798 430 798 c 0
 375 798 340 852 290 852 c 0
 252 852 243 815 243 800 c 1
 172 862 l 1
EndSplineSet
EndChar

StartChar: Adieresis
Encoding: 196 196 189
Width: 735
VWidth: 0
Flags: HM
LayerCount: 2
Fore
SplineSet
184 135 m 1
 196 264 l 1
 544 264 l 1
 554 135 l 1
 184 135 l 1
368 442 m 1
 270 217 l 1
 277 179 l 1
 190 0 l 1
 -2 0 l 1
 368 744 l 1
 736 0 l 1
 544 0 l 1
 460 172 l 1
 466 216 l 1
 368 442 l 1
422 836 m 0
 422 884 461 918 510 918 c 0
 559 918 598 884 598 836 c 0
 598 788 559 754 510 754 c 0
 461 754 422 788 422 836 c 0
138 836 m 4
 138 884 177 918 226 918 c 4
 275 918 314 884 314 836 c 4
 314 788 275 754 226 754 c 4
 177 754 138 788 138 836 c 4
EndSplineSet
EndChar

StartChar: Aring
Encoding: 197 197 190
Width: 735
VWidth: 0
Flags: HM
LayerCount: 2
Fore
SplineSet
184 135 m 1
 196 264 l 1
 544 264 l 1
 554 135 l 1
 184 135 l 1
368 442 m 1
 270 217 l 1
 277 179 l 1
 190 0 l 1
 -2 0 l 1
 368 744 l 1
 736 0 l 1
 544 0 l 1
 460 172 l 1
 466 216 l 1
 368 442 l 1
242 800 m 0
 242 869 297 916 367 916 c 0
 437 916 492 869 492 800 c 0
 492 731 437 685 367 685 c 0
 297 685 242 731 242 800 c 0
321 800 m 0
 321 770 342 753 367 753 c 0
 392 753 414 770 414 800 c 0
 414 830 392 848 367 848 c 0
 342 848 321 830 321 800 c 0
EndSplineSet
EndChar

StartChar: AE
Encoding: 198 198 191
Width: 1085
VWidth: 0
Flags: HMW
LayerCount: 2
Fore
SplineSet
270 150 m 1
 276 306 l 1
 576 306 l 1
 576 150 l 1
 270 150 l 1
438 700 m 1
 601 660 l 1
 228 0 l 1
 14 0 l 1
 438 700 l 1
630 0 m 1
 630 140 l 1
 1015 140 l 1
 1015 0 l 1
 630 0 l 1
638 560 m 1
 438 700 l 1
 1015 700 l 1
 1015 560 l 1
 638 560 l 1
630 300 m 1
 630 436 l 1
 995 436 l 1
 995 300 l 1
 630 300 l 1
550 700 m 1
 732 700 l 1
 732 0 l 1
 550 0 l 1
 550 700 l 1
EndSplineSet
EndChar

StartChar: Ccedilla
Encoding: 199 199 192
Width: 700
VWidth: 0
Flags: HM
LayerCount: 2
Fore
SplineSet
219 350 m 0
 219 222 315 145 428 145 c 0
 527 145 591 188 637 238 c 1
 637 54 l 1
 581 11 520 -16 418 -16 c 0
 193 -16 34 132 34 350 c 0
 34 568 193 716 418 716 c 0
 520 716 581 689 637 646 c 1
 637 462 l 1
 591 512 527 555 428 555 c 0
 315 555 219 478 219 350 c 0
366 60 m 1
 476 56 l 1
 370 -90 l 1
 278 -134 l 1
 366 60 l 1
518 -160 m 1
 421 -151 l 1
 421 -125 391 -118 360 -118 c 0
 350 -118 314 -119 278 -134 c 1
 342 -90 l 1
 369 -65 394 -62 426 -62 c 0
 466 -62 518 -94 518 -160 c 1
518 -160 m 1
 518 -232 449 -268 386 -268 c 0
 330 -268 289 -260 242 -230 c 1
 288 -160 l 1
 314 -178 346 -186 366 -186 c 0
 400 -186 421 -175 421 -151 c 1
 518 -160 l 1
EndSplineSet
EndChar

StartChar: Egrave
Encoding: 200 200 193
Width: 603
VWidth: 0
Flags: HM
LayerCount: 2
Fore
SplineSet
186 0 m 1
 186 140 l 1
 540 140 l 1
 540 0 l 1
 186 0 l 1
186 560 m 1
 186 700 l 1
 540 700 l 1
 540 560 l 1
 186 560 l 1
186 300 m 1
 186 436 l 1
 520 436 l 1
 520 300 l 1
 186 300 l 1
74 700 m 1
 237 700 l 1
 237 0 l 1
 74 0 l 1
 74 700 l 1
145 932 m 1
 260 985 l 1
 410 825 l 1
 325 782 l 1
 145 932 l 1
EndSplineSet
EndChar

StartChar: Eacute
Encoding: 201 201 194
Width: 603
VWidth: 0
Flags: HM
LayerCount: 2
Fore
SplineSet
186 0 m 1
 186 140 l 1
 540 140 l 1
 540 0 l 1
 186 0 l 1
186 560 m 1
 186 700 l 1
 540 700 l 1
 540 560 l 1
 186 560 l 1
186 300 m 1
 186 436 l 1
 520 436 l 1
 520 300 l 1
 186 300 l 1
74 700 m 1
 237 700 l 1
 237 0 l 1
 74 0 l 1
 74 700 l 1
465 932 m 1
 285 782 l 1
 200 825 l 1
 350 985 l 1
 465 932 l 1
EndSplineSet
EndChar

StartChar: Ecircumflex
Encoding: 202 202 195
Width: 603
VWidth: 0
Flags: HM
LayerCount: 2
Fore
SplineSet
186 0 m 1
 186 140 l 1
 540 140 l 1
 540 0 l 1
 186 0 l 1
186 560 m 1
 186 700 l 1
 540 700 l 1
 540 560 l 1
 186 560 l 1
186 300 m 1
 186 436 l 1
 520 436 l 1
 520 300 l 1
 186 300 l 1
74 700 m 1
 237 700 l 1
 237 0 l 1
 74 0 l 1
 74 700 l 1
310 884 m 1
 200 789 l 1
 150 829 l 1
 310 969 l 1
 470 829 l 1
 420 789 l 1
 310 884 l 1
EndSplineSet
EndChar

StartChar: Edieresis
Encoding: 203 203 196
Width: 603
VWidth: 0
Flags: HM
LayerCount: 2
Fore
SplineSet
186 0 m 1
 186 140 l 1
 540 140 l 1
 540 0 l 1
 186 0 l 1
186 560 m 1
 186 700 l 1
 540 700 l 1
 540 560 l 1
 186 560 l 1
186 300 m 1
 186 436 l 1
 520 436 l 1
 520 300 l 1
 186 300 l 1
74 700 m 1
 237 700 l 1
 237 0 l 1
 74 0 l 1
 74 700 l 1
341 858 m 0
 341 906 380 940 429 940 c 0
 478 940 517 906 517 858 c 0
 517 810 478 776 429 776 c 0
 380 776 341 810 341 858 c 0
97 858 m 0
 97 906 136 940 185 940 c 0
 234 940 273 906 273 858 c 0
 273 810 234 776 185 776 c 0
 136 776 97 810 97 858 c 0
EndSplineSet
EndChar

StartChar: Igrave
Encoding: 204 204 197
Width: 320
VWidth: 0
Flags: HMW
LayerCount: 2
Fore
SplineSet
74 700 m 1
 246 700 l 1
 246 0 l 1
 74 0 l 1
 74 700 l 1
-8 932 m 1
 108 985 l 1
 258 825 l 1
 172 782 l 1
 -8 932 l 1
EndSplineSet
EndChar

StartChar: Iacute
Encoding: 205 205 198
Width: 320
VWidth: 0
Flags: HMW
LayerCount: 2
Fore
SplineSet
74 700 m 1
 246 700 l 1
 246 0 l 1
 74 0 l 1
 74 700 l 1
312 932 m 1
 132 782 l 1
 47 825 l 1
 197 985 l 1
 312 932 l 1
EndSplineSet
EndChar

StartChar: Icircumflex
Encoding: 206 206 199
Width: 320
VWidth: 0
Flags: HMW
LayerCount: 2
Fore
SplineSet
74 700 m 1
 246 700 l 1
 246 0 l 1
 74 0 l 1
 74 700 l 1
153 884 m 1
 43 789 l 1
 -7 829 l 1
 153 969 l 1
 313 829 l 1
 263 789 l 1
 153 884 l 1
EndSplineSet
EndChar

StartChar: Idieresis
Encoding: 207 207 200
Width: 320
VWidth: 0
Flags: HMW
LayerCount: 2
Fore
SplineSet
74 700 m 1
 246 700 l 1
 246 0 l 1
 74 0 l 1
 74 700 l 1
194 858 m 0
 194 906 233 940 282 940 c 0
 331 940 370 906 370 858 c 0
 370 810 331 776 282 776 c 0
 233 776 194 810 194 858 c 0
-50 858 m 0
 -50 906 -11 940 38 940 c 0
 87 940 126 906 126 858 c 0
 126 810 87 776 38 776 c 0
 -11 776 -50 810 -50 858 c 0
EndSplineSet
EndChar

StartChar: Ntilde
Encoding: 209 209 201
Width: 793
VWidth: 0
Flags: HMW
LayerCount: 2
Fore
SplineSet
78 524 m 1
 74 735 l 1
 715 176 l 1
 720 -35 l 1
 78 524 l 1
557 700 m 1
 720 700 l 1
 720 -35 l 1
 557 150 l 1
 557 700 l 1
74 735 m 1
 237 550 l 1
 237 0 l 1
 74 0 l 1
 74 735 l 1
225 840 m 1
 235 889 284 922 329 922 c 0
 394 922 399 874 453 874 c 0
 472 874 489 890 509 922 c 1
 555 880 l 1
 539 843 499 806 449 806 c 0
 394 806 373 854 328 854 c 0
 287 854 278 817 278 802 c 1
 225 840 l 1
EndSplineSet
EndChar

StartChar: Eth
Encoding: 208 208 202
Width: 733
VWidth: 0
Flags: HMW
LayerCount: 2
Fore
SplineSet
186 550 m 1
 186 700 l 1
 324 700 l 2
 553 700 700 566 700 350 c 1
 524 350 l 1
 524 500 426 550 318 550 c 2
 186 550 l 1
324 0 m 2
 186 0 l 1
 186 150 l 1
 318 150 l 2
 426 150 524 200 524 350 c 1
 700 350 l 1
 700 134 553 0 324 0 c 2
74 700 m 1
 248 700 l 1
 248 0 l 1
 74 0 l 1
 74 700 l 1
6 302 m 1
 6 402 l 1
 356 402 l 1
 356 302 l 1
 6 302 l 1
EndSplineSet
EndChar

StartChar: Ograve
Encoding: 210 210 203
Width: 821
VWidth: 0
Flags: HMW
LayerCount: 2
Fore
SplineSet
213 350 m 0
 213 226 292 140 410 140 c 0
 528 140 608 226 608 350 c 0
 608 474 532 560 410 560 c 0
 292 560 213 474 213 350 c 0
34 350 m 0
 34 566 196 716 410 716 c 0
 626 716 788 566 788 350 c 0
 788 134 630 -22 410 -22 c 0
 190 -22 34 134 34 350 c 0
262 932 m 1
 378 985 l 1
 528 825 l 1
 442 782 l 1
 262 932 l 1
EndSplineSet
EndChar

StartChar: Oacute
Encoding: 211 211 204
Width: 821
VWidth: 0
Flags: HMW
LayerCount: 2
Fore
SplineSet
213 350 m 0
 213 226 292 140 410 140 c 0
 528 140 608 226 608 350 c 0
 608 474 532 560 410 560 c 0
 292 560 213 474 213 350 c 0
34 350 m 0
 34 566 196 716 410 716 c 0
 626 716 788 566 788 350 c 0
 788 134 630 -22 410 -22 c 0
 190 -22 34 134 34 350 c 0
574 932 m 1
 394 782 l 1
 309 825 l 1
 459 985 l 1
 574 932 l 1
EndSplineSet
EndChar

StartChar: Ocircumflex
Encoding: 212 212 205
Width: 821
VWidth: 0
Flags: HMW
LayerCount: 2
Fore
SplineSet
213 350 m 0
 213 226 292 140 410 140 c 0
 528 140 608 226 608 350 c 0
 608 474 532 560 410 560 c 0
 292 560 213 474 213 350 c 0
34 350 m 0
 34 566 196 716 410 716 c 0
 626 716 788 566 788 350 c 0
 788 134 630 -22 410 -22 c 0
 190 -22 34 134 34 350 c 0
420 884 m 1
 310 789 l 1
 260 829 l 1
 420 969 l 1
 580 829 l 1
 530 789 l 1
 420 884 l 1
EndSplineSet
EndChar

StartChar: Otilde
Encoding: 213 213 206
Width: 821
VWidth: 0
Flags: HMW
LayerCount: 2
Fore
SplineSet
213 350 m 0
 213 226 292 140 410 140 c 0
 528 140 608 226 608 350 c 0
 608 474 532 560 410 560 c 0
 292 560 213 474 213 350 c 0
34 350 m 0
 34 566 196 716 410 716 c 0
 626 716 788 566 788 350 c 0
 788 134 630 -22 410 -22 c 0
 190 -22 34 134 34 350 c 0
249 842 m 1
 259 891 308 924 353 924 c 0
 418 924 423 877 477 877 c 0
 496 877 513 893 533 925 c 1
 579 882 l 1
 563 845 523 809 473 809 c 0
 418 809 397 856 352 856 c 0
 311 856 302 820 302 805 c 1
 249 842 l 1
EndSplineSet
EndChar

StartChar: Odieresis
Encoding: 214 214 207
Width: 821
VWidth: 0
Flags: HMW
LayerCount: 2
Fore
SplineSet
213 350 m 0
 213 226 292 140 410 140 c 0
 528 140 608 226 608 350 c 0
 608 474 532 560 410 560 c 0
 292 560 213 474 213 350 c 0
34 350 m 0
 34 566 196 716 410 716 c 0
 626 716 788 566 788 350 c 0
 788 134 630 -22 410 -22 c 0
 190 -22 34 134 34 350 c 0
444 858 m 0
 444 906 483 940 532 940 c 0
 581 940 620 906 620 858 c 0
 620 810 581 776 532 776 c 0
 483 776 444 810 444 858 c 0
200 858 m 0
 200 906 239 940 288 940 c 0
 337 940 376 906 376 858 c 0
 376 810 337 776 288 776 c 0
 239 776 200 810 200 858 c 0
EndSplineSet
EndChar

StartChar: Ugrave
Encoding: 217 217 208
Width: 701
VWidth: 0
Flags: HMW
LayerCount: 2
Fore
SplineSet
68 700 m 1
 238 700 l 1
 238 242 l 2
 238 171 275 123 350 123 c 0
 425 123 463 171 463 242 c 2
 463 700 l 1
 632 700 l 1
 632 230 l 2
 632 54 508 -29 350 -29 c 0
 192 -29 68 54 68 230 c 2
 68 700 l 1
190 926 m 1
 305 979 l 1
 455 819 l 1
 370 776 l 1
 190 926 l 1
EndSplineSet
EndChar

StartChar: Uacute
Encoding: 218 218 209
Width: 701
VWidth: 0
Flags: HMW
LayerCount: 2
Fore
SplineSet
68 700 m 1
 238 700 l 1
 238 242 l 2
 238 171 275 123 350 123 c 0
 425 123 463 171 463 242 c 2
 463 700 l 1
 632 700 l 1
 632 230 l 2
 632 54 508 -29 350 -29 c 0
 192 -29 68 54 68 230 c 2
 68 700 l 1
512 926 m 1
 332 776 l 1
 246 819 l 1
 396 979 l 1
 512 926 l 1
EndSplineSet
EndChar

StartChar: Ucircumflex
Encoding: 219 219 210
Width: 701
VWidth: 0
Flags: HMW
LayerCount: 2
Fore
SplineSet
68 700 m 1
 238 700 l 1
 238 242 l 2
 238 171 275 123 350 123 c 0
 425 123 463 171 463 242 c 2
 463 700 l 1
 632 700 l 1
 632 230 l 2
 632 54 508 -29 350 -29 c 0
 192 -29 68 54 68 230 c 2
 68 700 l 1
350 862 m 1
 260 776 l 1
 153 848 l 1
 350 988 l 1
 548 848 l 1
 442 776 l 1
 350 862 l 1
EndSplineSet
EndChar

StartChar: Udieresis
Encoding: 220 220 211
Width: 701
VWidth: 0
Flags: HMW
LayerCount: 2
Fore
SplineSet
68 700 m 1
 238 700 l 1
 238 242 l 2
 238 171 275 123 350 123 c 0
 425 123 463 171 463 242 c 2
 463 700 l 1
 632 700 l 1
 632 230 l 2
 632 54 508 -29 350 -29 c 0
 192 -29 68 54 68 230 c 2
 68 700 l 1
404 858 m 0
 404 906 443 940 492 940 c 0
 541 940 580 906 580 858 c 0
 580 810 541 776 492 776 c 0
 443 776 404 810 404 858 c 0
120 858 m 4
 120 906 159 940 208 940 c 4
 257 940 296 906 296 858 c 4
 296 810 257 776 208 776 c 4
 159 776 120 810 120 858 c 4
EndSplineSet
EndChar

StartChar: Yacute
Encoding: 221 221 212
Width: 660
VWidth: 0
Flags: HMW
LayerCount: 2
Fore
SplineSet
244 360 m 1
 416 360 l 1
 416 0 l 1
 244 0 l 1
 244 360 l 1
466 700 m 1
 662 700 l 1
 330 138 l 1
 -2 700 l 1
 194 700 l 1
 330 437 l 1
 466 700 l 1
491 926 m 1
 311 776 l 1
 226 819 l 1
 376 979 l 1
 491 926 l 1
EndSplineSet
EndChar

StartChar: agrave
Encoding: 224 224 213
Width: 544
VWidth: 0
Flags: HM
LayerCount: 2
Fore
SplineSet
176 138 m 0
 176 104 202 89 242 89 c 0
 297 89 345 112 345 186 c 1
 361 130 l 1
 361 41 286 -10 191 -10 c 0
 89 -10 24 41 24 128 c 0
 24 222 105 279 223 279 c 0
 292 279 358 252 378 230 c 1
 378 158 l 1
 344 184 310 197 258 197 c 0
 206 197 176 174 176 138 c 0
118 318 m 1
 66 420 l 1
 119 445 193 473 276 473 c 0
 400 473 490 420 490 324 c 2
 490 0 l 1
 345 0 l 1
 345 294 l 2
 345 333 314 358 264 358 c 0
 198 358 140 331 118 318 c 1
104 683 m 1
 220 736 l 1
 370 576 l 1
 284 533 l 1
 104 683 l 1
EndSplineSet
Substitution2: "alt a" agrave.alt
EndChar

StartChar: aacute
Encoding: 225 225 214
Width: 544
VWidth: 0
Flags: HM
LayerCount: 2
Fore
SplineSet
176 138 m 0
 176 104 202 89 242 89 c 0
 297 89 345 112 345 186 c 1
 361 130 l 1
 361 41 286 -10 191 -10 c 0
 89 -10 24 41 24 128 c 0
 24 222 105 279 223 279 c 0
 292 279 358 252 378 230 c 1
 378 158 l 1
 344 184 310 197 258 197 c 0
 206 197 176 174 176 138 c 0
118 318 m 1
 66 420 l 1
 119 445 193 473 276 473 c 0
 400 473 490 420 490 324 c 2
 490 0 l 1
 345 0 l 1
 345 294 l 2
 345 333 314 358 264 358 c 0
 198 358 140 331 118 318 c 1
448 683 m 1
 268 533 l 1
 183 576 l 1
 333 736 l 1
 448 683 l 1
EndSplineSet
Substitution2: "alt a" aacute.alt
EndChar

StartChar: acircumflex
Encoding: 226 226 215
Width: 544
VWidth: 0
Flags: HM
LayerCount: 2
Fore
SplineSet
176 138 m 0
 176 104 202 89 242 89 c 0
 297 89 345 112 345 186 c 1
 361 130 l 1
 361 41 286 -10 191 -10 c 0
 89 -10 24 41 24 128 c 0
 24 222 105 279 223 279 c 0
 292 279 358 252 378 230 c 1
 378 158 l 1
 344 184 310 197 258 197 c 0
 206 197 176 174 176 138 c 0
118 318 m 1
 66 420 l 1
 119 445 193 473 276 473 c 0
 400 473 490 420 490 324 c 2
 490 0 l 1
 345 0 l 1
 345 294 l 2
 345 333 314 358 264 358 c 0
 198 358 140 331 118 318 c 1
276 618 m 1
 185 533 l 1
 78 604 l 1
 276 744 l 1
 474 604 l 1
 368 533 l 1
 276 618 l 1
EndSplineSet
Substitution2: "alt a" acircumflex.alt
EndChar

StartChar: atilde
Encoding: 227 227 216
Width: 544
VWidth: 0
Flags: HM
LayerCount: 2
Fore
SplineSet
176 138 m 0
 176 104 202 89 242 89 c 0
 297 89 345 112 345 186 c 1
 361 130 l 1
 361 41 286 -10 191 -10 c 0
 89 -10 24 41 24 128 c 0
 24 222 105 279 223 279 c 0
 292 279 358 252 378 230 c 1
 378 158 l 1
 344 184 310 197 258 197 c 0
 206 197 176 174 176 138 c 0
118 318 m 1
 66 420 l 1
 119 445 193 473 276 473 c 0
 400 473 490 420 490 324 c 2
 490 0 l 1
 345 0 l 1
 345 294 l 2
 345 333 314 358 264 358 c 0
 198 358 140 331 118 318 c 1
80 599 m 1
 90 648 136 694 200 694 c 0
 266 694 280 642 336 642 c 0
 362 642 382 662 402 694 c 1
 472 620 l 1
 456 583 400 534 338 534 c 0
 283 534 248 588 198 588 c 0
 160 588 152 552 152 537 c 1
 80 599 l 1
EndSplineSet
Substitution2: "alt a" atilde.alt
EndChar

StartChar: adieresis
Encoding: 228 228 217
Width: 544
VWidth: 0
Flags: HM
LayerCount: 2
Fore
SplineSet
176 138 m 0
 176 104 202 89 242 89 c 0
 297 89 345 112 345 186 c 1
 361 130 l 1
 361 41 286 -10 191 -10 c 0
 89 -10 24 41 24 128 c 0
 24 222 105 279 223 279 c 0
 292 279 358 252 378 230 c 1
 378 158 l 1
 344 184 310 197 258 197 c 0
 206 197 176 174 176 138 c 0
118 318 m 1
 66 420 l 1
 119 445 193 473 276 473 c 0
 400 473 490 420 490 324 c 2
 490 0 l 1
 345 0 l 1
 345 294 l 2
 345 333 314 358 264 358 c 0
 198 358 140 331 118 318 c 1
310 615 m 0
 310 663 349 697 398 697 c 0
 447 697 486 663 486 615 c 0
 486 567 447 533 398 533 c 0
 349 533 310 567 310 615 c 0
66 615 m 0
 66 663 105 697 154 697 c 0
 203 697 242 663 242 615 c 0
 242 567 203 533 154 533 c 0
 105 533 66 567 66 615 c 0
EndSplineSet
Substitution2: "alt a" adieresis.alt
EndChar

StartChar: aring
Encoding: 229 229 218
Width: 544
VWidth: 0
Flags: HM
LayerCount: 2
Fore
SplineSet
176 138 m 0
 176 104 202 89 242 89 c 0
 297 89 345 112 345 186 c 1
 361 130 l 1
 361 41 286 -10 191 -10 c 0
 89 -10 24 41 24 128 c 0
 24 222 105 279 223 279 c 0
 292 279 358 252 378 230 c 1
 378 158 l 1
 344 184 310 197 258 197 c 0
 206 197 176 174 176 138 c 0
118 318 m 1
 66 420 l 1
 119 445 193 473 276 473 c 0
 400 473 490 420 490 324 c 2
 490 0 l 1
 345 0 l 1
 345 294 l 2
 345 333 314 358 264 358 c 0
 198 358 140 331 118 318 c 1
151 649 m 0
 151 718 206 764 276 764 c 0
 346 764 401 718 401 649 c 0
 401 580 346 533 276 533 c 0
 206 533 151 580 151 649 c 0
230 649 m 0
 230 619 251 602 276 602 c 0
 301 602 322 619 322 649 c 0
 322 679 301 696 276 696 c 0
 251 696 230 679 230 649 c 0
EndSplineSet
Substitution2: "alt a" aring.alt
EndChar

StartChar: germandbls
Encoding: 223 223 219
Width: 591
VWidth: 0
Flags: HMW
LayerCount: 2
Fore
SplineSet
55 606 m 1
 200 587 l 1
 200 0 l 1
 55 0 l 1
 55 606 l 1
268 412 m 1
 268 505 l 1
 353 505 376 540 376 584 c 0
 376 631 345 658 286 658 c 0
 232 658 200 632 200 587 c 1
 55 606 l 1
 55 728 162 796 286 796 c 0
 440 796 522 715 522 606 c 0
 522 487 436 412 268 412 c 1
282 128 m 1
 362 128 416 179 416 254 c 0
 416 315 378 368 268 368 c 1
 268 472 l 1
 436 472 568 377 568 225 c 0
 568 73 454 -10 282 -10 c 1
 282 128 l 1
EndSplineSet
EndChar

StartChar: ae
Encoding: 230 230 220
Width: 896
VWidth: 0
Flags: HMW
LayerCount: 2
Fore
SplineSet
176 138 m 0
 176 104 202 89 242 89 c 0
 297 89 345 112 345 186 c 1
 416 130 l 1
 416 41 344 -10 218 -10 c 0
 96 -10 24 41 24 128 c 0
 24 222 105 279 223 279 c 0
 292 279 358 252 378 230 c 1
 378 158 l 1
 344 184 310 197 258 197 c 0
 206 197 176 174 176 138 c 0
118 318 m 1
 66 420 l 1
 119 445 193 473 276 473 c 0
 400 473 440 420 440 324 c 2
 440 130 l 1
 345 130 l 1
 345 290 l 2
 345 329 314 358 264 358 c 0
 198 358 140 331 118 318 c 1
418 198 m 1
 418 282 l 1
 844 282 l 1
 860 198 l 1
 418 198 l 1
702 244 m 2
 702 324 675 369 610 369 c 0
 549 369 509 328 509 254 c 1
 507 230 l 1
 507 136 555 100 614 100 c 0
 668 100 706 120 728 158 c 1
 863 126 l 1
 817 44 748 -10 616 -10 c 0
 448 -10 390 91 390 230 c 0
 390 247 394 263 397 279 c 0
 416 392 498 470 636 470 c 0
 771 470 862 382 862 237 c 0
 862 229 862 214 860 198 c 1
 702 218 l 1
 702 244 l 2
EndSplineSet
EndChar

StartChar: ccedilla
Encoding: 231 231 221
Width: 493
VWidth: 0
Flags: HM
LayerCount: 2
Fore
SplineSet
186 230 m 0
 186 156 240 110 308 110 c 0
 363 110 416 135 444 179 c 1
 444 32 l 1
 412 6 366 -10 296 -10 c 0
 142 -10 30 84 30 230 c 0
 30 376 142 470 296 470 c 0
 366 470 412 452 444 430 c 1
 444 282 l 1
 416 326 357 350 308 350 c 0
 240 350 186 298 186 230 c 0
231 85 m 1
 341 82 l 1
 236 -65 l 1
 143 -110 l 1
 231 85 l 1
383 -134 m 1
 286 -126 l 1
 286 -100 257 -94 226 -94 c 0
 216 -94 179 -95 143 -110 c 1
 208 -66 l 1
 235 -41 260 -37 292 -37 c 0
 332 -37 383 -68 383 -134 c 1
383 -134 m 1
 383 -206 315 -244 252 -244 c 0
 196 -244 155 -234 108 -204 c 1
 154 -136 l 1
 180 -154 212 -161 232 -161 c 0
 266 -161 286 -150 286 -126 c 1
 383 -134 l 1
EndSplineSet
EndChar

StartChar: egrave
Encoding: 232 232 222
Width: 573
VWidth: 0
Flags: HMW
LayerCount: 2
Fore
SplineSet
96 198 m 1
 96 282 l 1
 522 282 l 1
 538 198 l 1
 96 198 l 1
380 244 m 2
 380 324 353 369 288 369 c 0
 227 369 187 328 187 254 c 1
 185 230 l 1
 185 136 232 100 291 100 c 0
 345 100 383 120 405 158 c 1
 541 126 l 1
 495 44 426 -10 294 -10 c 0
 126 -10 32 91 32 230 c 0
 32 247 33 263 36 279 c 0
 55 392 141 470 291 470 c 0
 452 470 540 382 540 237 c 0
 540 229 540 214 538 198 c 1
 380 218 l 1
 380 244 l 2
131 688 m 1
 247 740 l 1
 397 580 l 1
 311 538 l 1
 131 688 l 1
EndSplineSet
EndChar

StartChar: eacute
Encoding: 233 233 223
Width: 573
VWidth: 0
Flags: HMW
LayerCount: 2
Fore
SplineSet
96 198 m 1
 96 282 l 1
 522 282 l 1
 538 198 l 1
 96 198 l 1
380 244 m 2
 380 324 353 369 288 369 c 0
 227 369 187 328 187 254 c 1
 185 230 l 1
 185 136 232 100 291 100 c 0
 345 100 383 120 405 158 c 1
 541 126 l 1
 495 44 426 -10 294 -10 c 0
 126 -10 32 91 32 230 c 0
 32 247 33 263 36 279 c 0
 55 392 141 470 291 470 c 0
 452 470 540 382 540 237 c 0
 540 229 540 214 538 198 c 1
 380 218 l 1
 380 244 l 2
451 688 m 1
 271 538 l 1
 186 580 l 1
 336 740 l 1
 451 688 l 1
EndSplineSet
EndChar

StartChar: ecircumflex
Encoding: 234 234 224
Width: 573
VWidth: 0
Flags: HMW
LayerCount: 2
Fore
SplineSet
96 198 m 1
 96 282 l 1
 522 282 l 1
 538 198 l 1
 96 198 l 1
380 244 m 2
 380 324 353 369 288 369 c 0
 227 369 187 328 187 254 c 1
 185 230 l 1
 185 136 232 100 291 100 c 0
 345 100 383 120 405 158 c 1
 541 126 l 1
 495 44 426 -10 294 -10 c 0
 126 -10 32 91 32 230 c 0
 32 247 33 263 36 279 c 0
 55 392 141 470 291 470 c 0
 452 470 540 382 540 237 c 0
 540 229 540 214 538 198 c 1
 380 218 l 1
 380 244 l 2
291 616 m 1
 200 530 l 1
 94 602 l 1
 291 742 l 1
 488 602 l 1
 382 530 l 1
 291 616 l 1
EndSplineSet
EndChar

StartChar: edieresis
Encoding: 235 235 225
Width: 563
VWidth: 0
Flags: HMW
LayerCount: 2
Fore
SplineSet
96 198 m 1
 96 287 l 1
 507 287 l 1
 523 198 l 1
 96 198 l 1
390 244 m 2
 390 318 358 359 288 359 c 0
 222 359 177 322 177 254 c 1
 175 230 l 1
 175 146 232 105 301 105 c 4
 345 105 373 121 390 158 c 1
 516 116 l 1
 480 44 416 -10 294 -10 c 4
 146 -10 37 91 37 230 c 0
 37 247 39 265 42 281 c 0
 61 394 161 470 291 470 c 0
 422 470 525 382 525 237 c 0
 525 229 525 214 523 198 c 1
 390 218 l 1
 390 244 l 2
325 612 m 0
 325 660 364 694 413 694 c 0
 462 694 501 660 501 612 c 0
 501 564 462 530 413 530 c 0
 364 530 325 564 325 612 c 0
81 612 m 0
 81 660 120 694 169 694 c 0
 218 694 257 660 257 612 c 0
 257 564 218 530 169 530 c 0
 120 530 81 564 81 612 c 0
EndSplineSet
EndChar

StartChar: igrave
Encoding: 236 236 226
Width: 276
VWidth: 0
Flags: HM
LayerCount: 2
Fore
SplineSet
64 460 m 1
 211 460 l 1
 211 0 l 1
 64 0 l 1
 64 460 l 1
-42 688 m 1
 73 740 l 1
 223 580 l 1
 138 538 l 1
 -42 688 l 1
EndSplineSet
EndChar

StartChar: dotlessi
Encoding: 305 305 227
Width: 276
VWidth: 0
Flags: MW
LayerCount: 2
Fore
SplineSet
64 460 m 1
 211 460 l 1
 211 0 l 1
 64 0 l 1
 64 460 l 1
EndSplineSet
EndChar

StartChar: kgreenlandic
Encoding: 312 312 228
Width: 577
VWidth: 0
Flags: HMW
LayerCount: 2
Fore
SplineSet
58 460 m 1
 203 460 l 1
 203 0 l 1
 58 0 l 1
 58 460 l 1
370 460 m 1
 551 460 l 1
 354 270 l 1
 571 0 l 1
 393 0 l 1
 174 270 l 1
 370 460 l 1
EndSplineSet
EndChar

StartChar: iacute
Encoding: 237 237 229
Width: 276
VWidth: 0
Flags: HM
LayerCount: 2
Fore
SplineSet
64 460 m 1
 211 460 l 1
 211 0 l 1
 64 0 l 1
 64 460 l 1
310 688 m 1
 130 538 l 1
 44 580 l 1
 194 740 l 1
 310 688 l 1
EndSplineSet
EndChar

StartChar: icircumflex
Encoding: 238 238 230
Width: 276
VWidth: 0
Flags: HM
LayerCount: 2
Fore
SplineSet
64 460 m 1
 211 460 l 1
 211 0 l 1
 64 0 l 1
 64 460 l 1
138 620 m 1
 46 534 l 1
 -60 606 l 1
 138 746 l 1
 335 606 l 1
 229 534 l 1
 138 620 l 1
EndSplineSet
EndChar

StartChar: idieresis
Encoding: 239 239 231
Width: 276
VWidth: 0
Flags: HM
LayerCount: 2
Fore
SplineSet
64 460 m 1
 211 460 l 1
 211 0 l 1
 64 0 l 1
 64 460 l 1
171 612 m 0
 171 660 210 694 259 694 c 0
 308 694 347 660 347 612 c 0
 347 564 308 530 259 530 c 0
 210 530 171 564 171 612 c 0
-73 612 m 0
 -73 660 -34 694 15 694 c 0
 64 694 103 660 103 612 c 0
 103 564 64 530 15 530 c 0
 -34 530 -73 564 -73 612 c 0
EndSplineSet
EndChar

StartChar: ntilde
Encoding: 241 241 232
Width: 575
VWidth: 0
Flags: HM
LayerCount: 2
Fore
SplineSet
212 460 m 1
 212 0 l 1
 60 0 l 1
 60 460 l 1
 212 460 l 1
358 280 m 2
 358 334 341 364 291 364 c 0
 243 364 212 334 212 280 c 1
 182 274 l 1
 182 383 238 470 352 470 c 0
 466 470 516 408 516 296 c 2
 516 0 l 1
 358 0 l 1
 358 280 l 2
92 596 m 1
 102 645 147 691 211 691 c 0
 277 691 291 639 347 639 c 0
 373 639 393 660 413 692 c 1
 484 618 l 1
 468 581 412 532 350 532 c 0
 295 532 260 586 210 586 c 0
 172 586 163 549 163 534 c 1
 92 596 l 1
EndSplineSet
EndChar

StartChar: ograve
Encoding: 242 242 233
Width: 589
VWidth: 0
Flags: HM
LayerCount: 2
Fore
SplineSet
32 230 m 0
 32 376 145 470 295 470 c 0
 445 470 558 376 558 230 c 0
 558 84 445 -10 295 -10 c 0
 145 -10 32 84 32 230 c 0
188 230 m 0
 188 159 236 115 295 115 c 0
 354 115 402 159 402 230 c 0
 402 301 354 346 295 346 c 0
 236 346 188 301 188 230 c 0
135 688 m 1
 250 740 l 1
 400 580 l 1
 315 538 l 1
 135 688 l 1
EndSplineSet
EndChar

StartChar: oacute
Encoding: 243 243 234
Width: 589
VWidth: 0
Flags: HM
LayerCount: 2
Fore
SplineSet
32 230 m 0
 32 376 145 470 295 470 c 0
 445 470 558 376 558 230 c 0
 558 84 445 -10 295 -10 c 0
 145 -10 32 84 32 230 c 0
188 230 m 0
 188 159 236 115 295 115 c 0
 354 115 402 159 402 230 c 0
 402 301 354 346 295 346 c 0
 236 346 188 301 188 230 c 0
455 688 m 1
 275 538 l 1
 189 580 l 1
 339 740 l 1
 455 688 l 1
EndSplineSet
EndChar

StartChar: ocircumflex
Encoding: 244 244 235
Width: 589
VWidth: 0
Flags: HM
LayerCount: 2
Fore
SplineSet
32 230 m 0
 32 376 145 470 295 470 c 0
 445 470 558 376 558 230 c 0
 558 84 445 -10 295 -10 c 0
 145 -10 32 84 32 230 c 0
188 230 m 0
 188 159 236 115 295 115 c 0
 354 115 402 159 402 230 c 0
 402 301 354 346 295 346 c 0
 236 346 188 301 188 230 c 0
295 624 m 1
 204 538 l 1
 98 610 l 1
 295 750 l 1
 492 610 l 1
 386 538 l 1
 295 624 l 1
EndSplineSet
EndChar

StartChar: otilde
Encoding: 245 245 236
Width: 589
VWidth: 0
Flags: HM
LayerCount: 2
Fore
SplineSet
32 230 m 0
 32 376 145 470 295 470 c 0
 445 470 558 376 558 230 c 0
 558 84 445 -10 295 -10 c 0
 145 -10 32 84 32 230 c 0
188 230 m 0
 188 159 236 115 295 115 c 0
 354 115 402 159 402 230 c 0
 402 301 354 346 295 346 c 0
 236 346 188 301 188 230 c 0
98 596 m 1
 108 645 154 691 218 691 c 0
 284 691 299 639 355 639 c 0
 381 639 400 660 420 692 c 1
 491 618 l 1
 475 581 419 532 357 532 c 0
 302 532 268 586 218 586 c 0
 180 586 170 549 170 534 c 1
 98 596 l 1
EndSplineSet
EndChar

StartChar: odieresis
Encoding: 246 246 237
Width: 589
VWidth: 0
Flags: HM
LayerCount: 2
Fore
SplineSet
32 230 m 0
 32 376 145 470 295 470 c 0
 445 470 558 376 558 230 c 0
 558 84 445 -10 295 -10 c 0
 145 -10 32 84 32 230 c 0
188 230 m 0
 188 159 236 115 295 115 c 0
 354 115 402 159 402 230 c 0
 402 301 354 346 295 346 c 0
 236 346 188 301 188 230 c 0
329 612 m 0
 329 660 368 694 417 694 c 0
 466 694 505 660 505 612 c 0
 505 564 466 530 417 530 c 0
 368 530 329 564 329 612 c 0
85 612 m 0
 85 660 124 694 173 694 c 0
 222 694 261 660 261 612 c 0
 261 564 222 530 173 530 c 0
 124 530 85 564 85 612 c 0
EndSplineSet
EndChar

StartChar: ugrave
Encoding: 249 249 238
Width: 575
VWidth: 0
Flags: HM
LayerCount: 2
Fore
SplineSet
364 0 m 1
 364 460 l 1
 516 460 l 1
 516 0 l 1
 364 0 l 1
218 180 m 2
 218 126 234 96 284 96 c 0
 332 96 364 126 364 180 c 1
 394 186 l 1
 394 77 338 -10 224 -10 c 0
 110 -10 60 52 60 164 c 2
 60 460 l 1
 218 460 l 1
 218 180 l 2
142 688 m 1
 258 740 l 1
 408 580 l 1
 322 538 l 1
 142 688 l 1
EndSplineSet
EndChar

StartChar: uacute
Encoding: 250 250 239
Width: 575
VWidth: 0
Flags: HM
LayerCount: 2
Fore
SplineSet
364 0 m 1
 364 460 l 1
 516 460 l 1
 516 0 l 1
 364 0 l 1
218 180 m 2
 218 126 234 96 284 96 c 0
 332 96 364 126 364 180 c 1
 394 186 l 1
 394 77 338 -10 224 -10 c 0
 110 -10 60 52 60 164 c 2
 60 460 l 1
 218 460 l 1
 218 180 l 2
432 688 m 1
 252 538 l 1
 167 580 l 1
 317 740 l 1
 432 688 l 1
EndSplineSet
EndChar

StartChar: ucircumflex
Encoding: 251 251 240
Width: 575
VWidth: 0
Flags: HM
LayerCount: 2
Fore
SplineSet
364 0 m 1
 364 460 l 1
 516 460 l 1
 516 0 l 1
 364 0 l 1
218 180 m 2
 218 126 234 96 284 96 c 0
 332 96 364 126 364 180 c 1
 394 186 l 1
 394 77 338 -10 224 -10 c 0
 110 -10 60 52 60 164 c 2
 60 460 l 1
 218 460 l 1
 218 180 l 2
287 624 m 1
 196 538 l 1
 90 610 l 1
 287 750 l 1
 484 610 l 1
 378 538 l 1
 287 624 l 1
EndSplineSet
EndChar

StartChar: udieresis
Encoding: 252 252 241
Width: 575
VWidth: 0
Flags: HM
LayerCount: 2
Fore
SplineSet
364 0 m 1
 364 460 l 1
 516 460 l 1
 516 0 l 1
 364 0 l 1
218 180 m 2
 218 126 234 96 284 96 c 0
 332 96 364 126 364 180 c 1
 390 186 l 1
 390 77 338 -10 224 -10 c 0
 110 -10 60 52 60 164 c 2
 60 460 l 1
 218 460 l 1
 218 180 l 2
322 612 m 0
 322 660 361 694 410 694 c 0
 459 694 498 660 498 612 c 0
 498 564 459 530 410 530 c 0
 361 530 322 564 322 612 c 0
78 612 m 0
 78 660 117 694 166 694 c 0
 215 694 254 660 254 612 c 0
 254 564 215 530 166 530 c 0
 117 530 78 564 78 612 c 0
EndSplineSet
EndChar

StartChar: yacute
Encoding: 253 253 242
Width: 521
VWidth: 0
Flags: HMW
LayerCount: 2
Fore
SplineSet
530 460 m 1
 230 -220 l 1
 78 -220 l 1
 190 37 l 1
 -10 460 l 1
 158 460 l 1
 306 90 l 1
 228 92 l 1
 375 460 l 1
 530 460 l 1
422 688 m 1
 242 538 l 1
 156 580 l 1
 306 740 l 1
 422 688 l 1
EndSplineSet
EndChar

StartChar: thorn
Encoding: 254 254 243
Width: 612
VWidth: 0
Flags: HMW
LayerCount: 2
Fore
SplineSet
204 -220 m 1
 59 -220 l 1
 59 780 l 1
 204 780 l 1
 204 -220 l 1
580 230 m 0
 580 75 475 -10 361 -10 c 0
 246 -10 162 81 162 230 c 0
 162 379 246 470 361 470 c 0
 475 470 580 385 580 230 c 0
428 230 m 0
 428 305 376 352 314 352 c 0
 261 352 204 308 204 230 c 0
 204 152 261 108 314 108 c 0
 376 108 428 155 428 230 c 0
EndSplineSet
EndChar

StartChar: ydieresis
Encoding: 255 255 244
Width: 521
VWidth: 0
Flags: HMW
LayerCount: 2
Fore
SplineSet
530 460 m 1
 230 -220 l 1
 78 -220 l 1
 190 37 l 1
 -10 460 l 1
 158 460 l 1
 306 90 l 1
 228 92 l 1
 375 460 l 1
 530 460 l 1
294 612 m 0
 294 660 333 694 382 694 c 0
 431 694 470 660 470 612 c 0
 470 564 431 530 382 530 c 0
 333 530 294 564 294 612 c 0
50 612 m 0
 50 660 89 694 138 694 c 0
 187 694 226 660 226 612 c 0
 226 564 187 530 138 530 c 0
 89 530 50 564 50 612 c 0
EndSplineSet
EndChar

StartChar: Amacron
Encoding: 256 256 245
Width: 735
VWidth: 0
Flags: HM
LayerCount: 2
Fore
SplineSet
184 135 m 1
 196 264 l 1
 544 264 l 1
 554 135 l 1
 184 135 l 1
368 442 m 1
 270 217 l 1
 277 179 l 1
 190 0 l 1
 -2 0 l 1
 368 744 l 1
 736 0 l 1
 544 0 l 1
 460 172 l 1
 466 216 l 1
 368 442 l 1
182 804 m 1
 182 936 l 1
 553 936 l 1
 553 804 l 1
 182 804 l 1
EndSplineSet
EndChar

StartChar: amacron
Encoding: 257 257 246
Width: 544
VWidth: 0
Flags: HM
LayerCount: 2
Fore
SplineSet
176 138 m 0
 176 104 202 89 242 89 c 0
 297 89 345 112 345 186 c 1
 361 130 l 1
 361 41 286 -10 191 -10 c 0
 89 -10 24 41 24 128 c 0
 24 222 105 279 223 279 c 0
 292 279 358 252 378 230 c 1
 378 158 l 1
 344 184 310 197 258 197 c 0
 206 197 176 174 176 138 c 0
118 318 m 1
 66 420 l 1
 119 445 193 473 276 473 c 0
 400 473 490 420 490 324 c 2
 490 0 l 1
 345 0 l 1
 345 294 l 2
 345 333 314 358 264 358 c 0
 198 358 140 331 118 318 c 1
90 540 m 1
 90 672 l 1
 462 672 l 1
 462 540 l 1
 90 540 l 1
EndSplineSet
Substitution2: "alt a" amacron.alt
EndChar

StartChar: breve
Encoding: 728 728 247
Width: 546
VWidth: 0
Flags: HMW
LayerCount: 2
Fore
SplineSet
108 850 m 1
 208 850 l 1
 208 814 234 790 273 790 c 0
 312 790 338 814 338 850 c 1
 438 850 l 1
 438 768 378 704 273 704 c 0
 168 704 108 768 108 850 c 1
EndSplineSet
EndChar

StartChar: Abreve
Encoding: 258 258 248
Width: 735
VWidth: 0
Flags: HM
LayerCount: 2
Fore
SplineSet
184 135 m 1
 196 264 l 1
 544 264 l 1
 554 135 l 1
 184 135 l 1
368 442 m 1
 270 217 l 1
 277 179 l 1
 190 0 l 1
 -2 0 l 1
 368 744 l 1
 736 0 l 1
 544 0 l 1
 460 172 l 1
 466 216 l 1
 368 442 l 1
203 950 m 1
 302 950 l 1
 302 914 329 891 368 891 c 0
 407 891 432 914 432 950 c 1
 532 950 l 1
 532 868 473 804 368 804 c 0
 263 804 203 868 203 950 c 1
EndSplineSet
EndChar

StartChar: abreve
Encoding: 259 259 249
Width: 544
VWidth: 0
Flags: HM
LayerCount: 2
Fore
SplineSet
176 138 m 0
 176 104 202 89 242 89 c 0
 297 89 345 112 345 186 c 1
 361 130 l 1
 361 41 286 -10 191 -10 c 0
 89 -10 24 41 24 128 c 0
 24 222 105 279 223 279 c 0
 292 279 358 252 378 230 c 1
 378 158 l 1
 344 184 310 197 258 197 c 0
 206 197 176 174 176 138 c 0
118 318 m 1
 66 420 l 1
 119 445 193 473 276 473 c 0
 400 473 490 420 490 324 c 2
 490 0 l 1
 345 0 l 1
 345 294 l 2
 345 333 314 358 264 358 c 0
 198 358 140 331 118 318 c 1
112 680 m 1
 211 680 l 1
 211 644 237 620 276 620 c 0
 315 620 342 644 342 680 c 1
 440 680 l 1
 440 598 381 533 276 533 c 0
 171 533 112 598 112 680 c 1
EndSplineSet
Substitution2: "alt a" abreve.alt
EndChar

StartChar: Aogonek
Encoding: 260 260 250
Width: 735
VWidth: 0
Flags: HM
LayerCount: 2
Fore
SplineSet
184 135 m 1
 196 264 l 1
 544 264 l 1
 554 135 l 1
 184 135 l 1
368 442 m 1
 270 217 l 1
 277 179 l 1
 190 0 l 1
 -2 0 l 1
 368 744 l 1
 736 0 l 1
 544 0 l 1
 460 172 l 1
 466 216 l 1
 368 442 l 1
704 -103 m 1
 736 -172 l 1
 721 -192 692 -212 636 -212 c 0
 571 -212 520 -178 520 -112 c 1
 618 -86 l 1
 618 -111 630 -123 654 -123 c 0
 674 -123 690 -116 704 -103 c 1
618 -86 m 1
 520 -112 l 1
 520 -46 588 -3 658 33 c 1
 698 8 l 1
 646 -20 618 -56 618 -86 c 1
EndSplineSet
EndChar

StartChar: aogonek
Encoding: 261 261 251
Width: 544
VWidth: 0
Flags: HM
LayerCount: 2
Fore
SplineSet
176 138 m 0
 176 104 202 89 242 89 c 0
 297 89 345 112 345 186 c 1
 361 130 l 1
 361 41 286 -10 191 -10 c 0
 89 -10 24 41 24 128 c 0
 24 222 105 279 223 279 c 0
 292 279 358 252 378 230 c 1
 378 158 l 1
 344 184 310 197 258 197 c 0
 206 197 176 174 176 138 c 0
118 318 m 1
 66 420 l 1
 119 445 193 473 276 473 c 0
 400 473 490 420 490 324 c 2
 490 0 l 1
 345 0 l 1
 345 294 l 2
 345 333 314 358 264 358 c 0
 198 358 140 331 118 318 c 1
473 -110 m 1
 506 -178 l 1
 491 -198 462 -218 406 -218 c 0
 341 -218 289 -184 289 -118 c 1
 388 -92 l 1
 388 -117 399 -130 423 -130 c 0
 443 -130 459 -123 473 -110 c 1
388 -92 m 1
 289 -118 l 1
 289 -52 357 -9 427 27 c 1
 468 2 l 1
 416 -26 388 -62 388 -92 c 1
EndSplineSet
Substitution2: "alt a" aogonek.alt
EndChar

StartChar: Cacute
Encoding: 262 262 252
Width: 700
VWidth: 0
Flags: HM
LayerCount: 2
Fore
SplineSet
219 350 m 0
 219 222 315 145 428 145 c 0
 527 145 591 188 637 238 c 1
 637 54 l 1
 581 11 520 -16 418 -16 c 0
 193 -16 34 132 34 350 c 0
 34 568 193 716 418 716 c 0
 520 716 581 689 637 646 c 1
 637 462 l 1
 591 512 527 555 428 555 c 0
 315 555 219 478 219 350 c 0
548 926 m 1
 368 776 l 1
 282 819 l 1
 432 979 l 1
 548 926 l 1
EndSplineSet
EndChar

StartChar: cacute
Encoding: 263 263 253
Width: 493
VWidth: 0
Flags: HM
LayerCount: 2
Fore
SplineSet
186 230 m 0
 186 156 240 110 308 110 c 0
 363 110 416 135 444 179 c 1
 444 32 l 1
 412 6 366 -10 296 -10 c 0
 142 -10 30 84 30 230 c 0
 30 376 142 470 296 470 c 0
 366 470 412 452 444 430 c 1
 444 282 l 1
 416 326 357 350 308 350 c 0
 240 350 186 298 186 230 c 0
426 680 m 1
 246 530 l 1
 160 573 l 1
 310 733 l 1
 426 680 l 1
EndSplineSet
EndChar

StartChar: Ccircumflex
Encoding: 264 264 254
Width: 700
VWidth: 0
Flags: HM
LayerCount: 2
Fore
SplineSet
219 350 m 0
 219 222 315 145 428 145 c 0
 527 145 591 188 637 238 c 1
 637 54 l 1
 581 11 520 -16 418 -16 c 0
 193 -16 34 132 34 350 c 0
 34 568 193 716 418 716 c 0
 520 716 581 689 637 646 c 1
 637 462 l 1
 591 512 527 555 428 555 c 0
 315 555 219 478 219 350 c 0
418 862 m 1
 327 776 l 1
 220 848 l 1
 418 988 l 1
 616 848 l 1
 510 776 l 1
 418 862 l 1
EndSplineSet
EndChar

StartChar: ccircumflex
Encoding: 265 265 255
Width: 493
VWidth: 0
Flags: HM
LayerCount: 2
Fore
SplineSet
186 230 m 0
 186 156 240 110 308 110 c 0
 363 110 416 135 444 179 c 1
 444 32 l 1
 412 6 366 -10 296 -10 c 0
 142 -10 30 84 30 230 c 0
 30 376 142 470 296 470 c 0
 366 470 412 452 444 430 c 1
 444 282 l 1
 416 326 357 350 308 350 c 0
 240 350 186 298 186 230 c 0
265 616 m 1
 174 530 l 1
 68 602 l 1
 265 742 l 1
 462 602 l 1
 356 530 l 1
 265 616 l 1
EndSplineSet
EndChar

StartChar: Cdotaccent
Encoding: 266 266 256
Width: 700
VWidth: 0
Flags: HM
LayerCount: 2
Fore
SplineSet
219 350 m 0
 219 222 315 145 428 145 c 0
 527 145 591 188 637 238 c 1
 637 54 l 1
 581 11 520 -16 418 -16 c 0
 193 -16 34 132 34 350 c 0
 34 568 193 716 418 716 c 0
 520 716 581 689 637 646 c 1
 637 462 l 1
 591 512 527 555 428 555 c 0
 315 555 219 478 219 350 c 0
300 858 m 4
 300 906 339 940 388 940 c 4
 437 940 476 906 476 858 c 4
 476 810 437 776 388 776 c 4
 339 776 300 810 300 858 c 4
EndSplineSet
EndChar

StartChar: cdotaccent
Encoding: 267 267 257
Width: 493
VWidth: 0
Flags: HM
LayerCount: 2
Fore
SplineSet
186 230 m 0
 186 156 240 110 308 110 c 0
 363 110 416 135 444 179 c 1
 444 32 l 1
 412 6 366 -10 296 -10 c 0
 142 -10 30 84 30 230 c 0
 30 376 142 470 296 470 c 0
 366 470 412 452 444 430 c 1
 444 282 l 1
 416 326 357 350 308 350 c 0
 240 350 186 298 186 230 c 0
178 612 m 4
 178 660 217 694 266 694 c 4
 315 694 354 660 354 612 c 4
 354 564 315 530 266 530 c 4
 217 530 178 564 178 612 c 4
EndSplineSet
EndChar

StartChar: Ccaron
Encoding: 268 268 258
Width: 700
VWidth: 0
Flags: HM
LayerCount: 2
Fore
SplineSet
219 350 m 0
 219 222 315 145 428 145 c 0
 527 145 591 188 637 238 c 1
 637 54 l 1
 581 11 520 -16 418 -16 c 0
 193 -16 34 132 34 350 c 0
 34 568 193 716 418 716 c 0
 520 716 581 689 637 646 c 1
 637 462 l 1
 591 512 527 555 428 555 c 0
 315 555 219 478 219 350 c 0
418 902 m 1
 510 988 l 1
 616 916 l 1
 418 776 l 1
 220 916 l 1
 327 988 l 1
 418 902 l 1
EndSplineSet
EndChar

StartChar: ccaron
Encoding: 269 269 259
Width: 493
VWidth: 0
Flags: HM
LayerCount: 2
Fore
SplineSet
186 230 m 0
 186 156 240 110 308 110 c 0
 363 110 416 135 444 179 c 1
 444 32 l 1
 412 6 366 -10 296 -10 c 0
 142 -10 30 84 30 230 c 0
 30 376 142 470 296 470 c 0
 366 470 412 452 444 430 c 1
 444 282 l 1
 416 326 357 350 308 350 c 0
 240 350 186 298 186 230 c 0
265 656 m 1
 356 742 l 1
 462 670 l 1
 265 530 l 1
 68 670 l 1
 174 742 l 1
 265 656 l 1
EndSplineSet
EndChar

StartChar: Dcaron
Encoding: 270 270 260
Width: 733
VWidth: 0
Flags: HM
LayerCount: 2
Fore
SplineSet
186 550 m 1
 186 700 l 1
 324 700 l 2
 553 700 700 566 700 350 c 1
 524 350 l 1
 524 500 426 550 318 550 c 2
 186 550 l 1
324 0 m 2
 186 0 l 1
 186 150 l 1
 318 150 l 2
 426 150 524 200 524 350 c 1
 700 350 l 1
 700 134 553 0 324 0 c 2
74 700 m 1
 248 700 l 1
 248 0 l 1
 74 0 l 1
 74 700 l 1
364 902 m 1
 455 988 l 1
 561 916 l 1
 364 776 l 1
 166 916 l 1
 272 988 l 1
 364 902 l 1
EndSplineSet
EndChar

StartChar: dcaron
Encoding: 271 271 261
Width: 616
VWidth: 0
Flags: HMW
LayerCount: 2
Fore
SplineSet
408 780 m 1
 560 780 l 1
 560 0 l 1
 408 0 l 1
 408 780 l 1
32 230 m 0
 32 386 138 470 250 470 c 0
 365 470 450 379 450 230 c 0
 450 81 365 -10 250 -10 c 0
 138 -10 32 74 32 230 c 0
191 230 m 0
 191 158 241 112 301 112 c 0
 352 112 408 155 408 230 c 0
 408 305 352 348 301 348 c 0
 241 348 191 302 191 230 c 0
678 780 m 1
 829 748 l 1
 704 498 l 1
 590 521 l 1
 678 780 l 1
EndSplineSet
EndChar

StartChar: Dcroat
Encoding: 272 272 262
Width: 733
VWidth: 0
Flags: HMW
LayerCount: 2
Fore
SplineSet
186 550 m 1
 186 700 l 1
 324 700 l 2
 553 700 700 566 700 350 c 1
 524 350 l 1
 524 500 426 550 318 550 c 2
 186 550 l 1
324 0 m 2
 186 0 l 1
 186 150 l 1
 318 150 l 2
 426 150 524 200 524 350 c 1
 700 350 l 1
 700 134 553 0 324 0 c 2
74 700 m 1
 248 700 l 1
 248 0 l 1
 74 0 l 1
 74 700 l 1
5 298 m 1
 5 398 l 1
 348 398 l 1
 348 298 l 1
 5 298 l 1
EndSplineSet
EndChar

StartChar: dcroat
Encoding: 273 273 263
Width: 616
VWidth: 0
Flags: HMW
LayerCount: 2
Fore
SplineSet
295 565 m 1
 295 665 l 1
 652 665 l 1
 652 565 l 1
 295 565 l 1
408 780 m 1
 560 780 l 1
 560 0 l 1
 408 0 l 1
 408 780 l 1
32 230 m 0
 32 386 138 470 250 470 c 0
 365 470 450 379 450 230 c 0
 450 81 365 -10 250 -10 c 0
 138 -10 32 74 32 230 c 0
191 230 m 0
 191 158 241 112 301 112 c 0
 352 112 408 155 408 230 c 0
 408 305 352 348 301 348 c 0
 241 348 191 302 191 230 c 0
EndSplineSet
EndChar

StartChar: Emacron
Encoding: 274 274 264
Width: 603
VWidth: 0
Flags: HM
LayerCount: 2
Fore
SplineSet
186 0 m 1
 186 140 l 1
 540 140 l 1
 540 0 l 1
 186 0 l 1
186 560 m 1
 186 700 l 1
 540 700 l 1
 540 560 l 1
 186 560 l 1
186 300 m 1
 186 436 l 1
 520 436 l 1
 520 300 l 1
 186 300 l 1
74 700 m 1
 237 700 l 1
 237 0 l 1
 74 0 l 1
 74 700 l 1
120 776 m 1
 120 908 l 1
 492 908 l 1
 492 776 l 1
 120 776 l 1
EndSplineSet
EndChar

StartChar: emacron
Encoding: 275 275 265
Width: 573
VWidth: 0
Flags: HMW
LayerCount: 2
Fore
SplineSet
96 198 m 1
 96 282 l 1
 522 282 l 1
 538 198 l 1
 96 198 l 1
380 244 m 2
 380 324 353 369 288 369 c 0
 227 369 187 328 187 254 c 1
 185 230 l 1
 185 136 232 100 291 100 c 0
 345 100 383 120 405 158 c 1
 541 126 l 1
 495 44 426 -10 294 -10 c 0
 126 -10 32 91 32 230 c 0
 32 247 33 263 36 279 c 0
 55 392 141 470 291 470 c 0
 452 470 540 382 540 237 c 0
 540 229 540 214 538 198 c 1
 380 218 l 1
 380 244 l 2
106 530 m 1
 106 662 l 1
 477 662 l 1
 477 530 l 1
 106 530 l 1
EndSplineSet
EndChar

StartChar: Ebreve
Encoding: 276 276 266
Width: 603
VWidth: 0
Flags: HM
LayerCount: 2
Fore
SplineSet
186 0 m 1
 186 140 l 1
 540 140 l 1
 540 0 l 1
 186 0 l 1
186 560 m 1
 186 700 l 1
 540 700 l 1
 540 560 l 1
 186 560 l 1
186 300 m 1
 186 436 l 1
 520 436 l 1
 520 300 l 1
 186 300 l 1
74 700 m 1
 237 700 l 1
 237 0 l 1
 74 0 l 1
 74 700 l 1
142 922 m 1
 241 922 l 1
 241 886 267 863 306 863 c 0
 345 863 372 886 372 922 c 1
 470 922 l 1
 470 840 411 776 306 776 c 0
 201 776 142 840 142 922 c 1
EndSplineSet
EndChar

StartChar: ebreve
Encoding: 277 277 267
Width: 573
VWidth: 0
Flags: HMW
LayerCount: 2
Fore
SplineSet
96 198 m 1
 96 282 l 1
 522 282 l 1
 538 198 l 1
 96 198 l 1
380 244 m 2
 380 324 353 369 288 369 c 0
 227 369 187 328 187 254 c 1
 185 230 l 1
 185 136 232 100 291 100 c 0
 345 100 383 120 405 158 c 1
 541 126 l 1
 495 44 426 -10 294 -10 c 0
 126 -10 32 91 32 230 c 0
 32 247 33 263 36 279 c 0
 55 392 141 470 291 470 c 0
 452 470 540 382 540 237 c 0
 540 229 540 214 538 198 c 1
 380 218 l 1
 380 244 l 2
127 677 m 1
 226 677 l 1
 226 641 252 618 291 618 c 0
 330 618 356 641 356 677 c 1
 456 677 l 1
 456 595 396 530 291 530 c 0
 186 530 127 595 127 677 c 1
EndSplineSet
EndChar

StartChar: Edotaccent
Encoding: 278 278 268
Width: 603
VWidth: 0
Flags: HM
LayerCount: 2
Fore
SplineSet
186 0 m 1
 186 140 l 1
 540 140 l 1
 540 0 l 1
 186 0 l 1
186 560 m 1
 186 700 l 1
 540 700 l 1
 540 560 l 1
 186 560 l 1
186 300 m 1
 186 436 l 1
 520 436 l 1
 520 300 l 1
 186 300 l 1
74 700 m 1
 237 700 l 1
 237 0 l 1
 74 0 l 1
 74 700 l 1
219 858 m 0
 219 906 258 940 307 940 c 0
 356 940 395 906 395 858 c 0
 395 810 356 776 307 776 c 0
 258 776 219 810 219 858 c 0
EndSplineSet
EndChar

StartChar: edotaccent
Encoding: 279 279 269
Width: 563
VWidth: 0
Flags: HMW
LayerCount: 2
Fore
SplineSet
96 198 m 1
 96 287 l 1
 507 287 l 1
 523 198 l 1
 96 198 l 1
390 244 m 2
 390 318 358 359 288 359 c 0
 222 359 177 322 177 254 c 1
 175 230 l 1
 175 146 232 105 301 105 c 4
 345 105 373 121 390 158 c 1
 516 116 l 1
 480 44 416 -10 294 -10 c 4
 146 -10 37 91 37 230 c 0
 37 247 39 265 42 281 c 0
 61 394 161 470 291 470 c 0
 422 470 525 382 525 237 c 0
 525 229 525 214 523 198 c 1
 390 218 l 1
 390 244 l 2
203 612 m 0
 203 660 242 694 291 694 c 0
 340 694 379 660 379 612 c 0
 379 564 340 530 291 530 c 0
 242 530 203 564 203 612 c 0
EndSplineSet
EndChar

StartChar: Eogonek
Encoding: 280 280 270
Width: 603
VWidth: 0
Flags: HM
LayerCount: 2
Fore
SplineSet
186 0 m 1
 186 140 l 1
 540 140 l 1
 540 0 l 1
 186 0 l 1
186 560 m 1
 186 700 l 1
 540 700 l 1
 540 560 l 1
 186 560 l 1
186 300 m 1
 186 436 l 1
 520 436 l 1
 520 300 l 1
 186 300 l 1
74 700 m 1
 237 700 l 1
 237 0 l 1
 74 0 l 1
 74 700 l 1
516 -110 m 1
 549 -178 l 1
 534 -198 504 -218 448 -218 c 0
 383 -218 331 -184 331 -118 c 1
 430 -92 l 1
 430 -117 442 -130 466 -130 c 0
 486 -130 502 -123 516 -110 c 1
430 -92 m 1
 331 -118 l 1
 331 -52 400 -10 470 26 c 1
 511 2 l 1
 459 -26 430 -62 430 -92 c 1
EndSplineSet
EndChar

StartChar: eogonek
Encoding: 281 281 271
Width: 573
VWidth: 0
Flags: HMW
LayerCount: 2
Fore
SplineSet
96 198 m 1
 96 282 l 1
 522 282 l 1
 538 198 l 1
 96 198 l 1
380 244 m 2
 380 324 353 369 288 369 c 0
 227 369 187 328 187 254 c 1
 185 230 l 1
 185 136 232 100 291 100 c 0
 345 100 383 120 405 158 c 1
 541 126 l 1
 495 44 426 -10 294 -10 c 0
 126 -10 32 91 32 230 c 0
 32 247 33 263 36 279 c 0
 55 392 141 470 291 470 c 0
 452 470 540 382 540 237 c 0
 540 229 540 214 538 198 c 1
 380 218 l 1
 380 244 l 2
334 -116 m 1
 366 -186 l 1
 351 -206 322 -226 266 -226 c 0
 201 -226 149 -192 149 -126 c 1
 248 -100 l 1
 248 -125 260 -136 284 -136 c 0
 304 -136 320 -129 334 -116 c 1
248 -100 m 1
 149 -126 l 1
 149 -60 218 -16 288 20 c 1
 328 -6 l 1
 276 -34 248 -70 248 -100 c 1
EndSplineSet
EndChar

StartChar: Ecaron
Encoding: 282 282 272
Width: 603
VWidth: 0
Flags: HM
LayerCount: 2
Fore
SplineSet
186 0 m 1
 186 140 l 1
 540 140 l 1
 540 0 l 1
 186 0 l 1
186 560 m 1
 186 700 l 1
 540 700 l 1
 540 560 l 1
 186 560 l 1
186 300 m 1
 186 436 l 1
 520 436 l 1
 520 300 l 1
 186 300 l 1
74 700 m 1
 237 700 l 1
 237 0 l 1
 74 0 l 1
 74 700 l 1
306 902 m 1
 398 988 l 1
 504 916 l 1
 306 776 l 1
 109 916 l 1
 215 988 l 1
 306 902 l 1
EndSplineSet
EndChar

StartChar: ecaron
Encoding: 283 283 273
Width: 573
VWidth: 0
Flags: HMW
LayerCount: 2
Fore
SplineSet
96 198 m 1
 96 282 l 1
 522 282 l 1
 538 198 l 1
 96 198 l 1
380 244 m 2
 380 324 353 369 288 369 c 0
 227 369 187 328 187 254 c 1
 185 230 l 1
 185 136 232 100 291 100 c 0
 345 100 383 120 405 158 c 1
 541 126 l 1
 495 44 426 -10 294 -10 c 0
 126 -10 32 91 32 230 c 0
 32 247 33 263 36 279 c 0
 55 392 141 470 291 470 c 0
 452 470 540 382 540 237 c 0
 540 229 540 214 538 198 c 1
 380 218 l 1
 380 244 l 2
291 656 m 1
 382 742 l 1
 488 670 l 1
 291 530 l 1
 94 670 l 1
 200 742 l 1
 291 656 l 1
EndSplineSet
EndChar

StartChar: Gcircumflex
Encoding: 284 284 274
Width: 814
VWidth: 0
Flags: HMW
LayerCount: 2
Fore
SplineSet
420 253 m 1
 420 383 l 1
 775 383 l 1
 686 253 l 1
 420 253 l 1
775 383 m 1
 787 161 656 -22 417 -22 c 0
 194 -22 34 128 34 350 c 0
 34 572 200 716 423 716 c 0
 571 716 673 647 739 550 c 1
 588 472 l 1
 556 527 505 568 423 568 c 0
 306 568 211 488 211 350 c 0
 211 212 300 125 423 125 c 0
 579 125 624 245 624 380 c 1
 775 383 l 1
423 862 m 1
 332 776 l 1
 226 848 l 1
 423 988 l 1
 620 848 l 1
 514 776 l 1
 423 862 l 1
EndSplineSet
EndChar

StartChar: gcircumflex
Encoding: 285 285 275
Width: 610
VWidth: 0
Flags: HM
LayerCount: 2
Fore
SplineSet
450 236 m 1
 408 236 l 1
 408 311 352 348 301 348 c 0
 241 348 191 308 191 236 c 1
 32 236 l 1
 32 392 138 470 250 470 c 0
 365 470 450 385 450 236 c 1
408 236 m 1
 450 236 l 1
 450 87 365 2 250 2 c 0
 138 2 32 80 32 236 c 1
 191 236 l 1
 191 164 241 124 301 124 c 0
 352 124 408 161 408 236 c 1
42 -33 m 1
 188 -33 l 1
 193 -89 234 -118 293 -118 c 0
 357 -118 408 -75 408 10 c 2
 408 460 l 1
 553 460 l 1
 553 10 l 2
 553 -168 440 -240 300 -240 c 0
 128 -240 53 -155 42 -33 c 1
306 616 m 1
 216 530 l 1
 110 602 l 1
 306 742 l 1
 504 602 l 1
 398 530 l 1
 306 616 l 1
EndSplineSet
EndChar

StartChar: Gbreve
Encoding: 286 286 276
Width: 814
VWidth: 0
Flags: HMW
LayerCount: 2
Fore
SplineSet
420 253 m 1
 420 383 l 1
 775 383 l 1
 686 253 l 1
 420 253 l 1
775 383 m 1
 787 161 656 -22 417 -22 c 0
 194 -22 34 128 34 350 c 0
 34 572 200 716 423 716 c 0
 571 716 673 647 739 550 c 1
 588 472 l 1
 556 527 505 568 423 568 c 0
 306 568 211 488 211 350 c 0
 211 212 300 125 423 125 c 0
 579 125 624 245 624 380 c 1
 775 383 l 1
259 922 m 1
 358 922 l 1
 358 886 384 863 423 863 c 0
 462 863 488 886 488 922 c 1
 588 922 l 1
 588 840 528 776 423 776 c 0
 318 776 259 840 259 922 c 1
EndSplineSet
EndChar

StartChar: gbreve
Encoding: 287 287 277
Width: 610
VWidth: 0
Flags: HM
LayerCount: 2
Fore
SplineSet
450 236 m 1
 408 236 l 1
 408 311 352 348 301 348 c 0
 241 348 191 308 191 236 c 1
 32 236 l 1
 32 392 138 470 250 470 c 0
 365 470 450 385 450 236 c 1
408 236 m 1
 450 236 l 1
 450 87 365 2 250 2 c 0
 138 2 32 80 32 236 c 1
 191 236 l 1
 191 164 241 124 301 124 c 0
 352 124 408 161 408 236 c 1
42 -33 m 1
 188 -33 l 1
 193 -89 234 -118 293 -118 c 0
 357 -118 408 -75 408 10 c 2
 408 460 l 1
 553 460 l 1
 553 10 l 2
 553 -168 440 -240 300 -240 c 0
 128 -240 53 -155 42 -33 c 1
148 677 m 1
 248 677 l 1
 248 641 274 618 313 618 c 0
 352 618 378 641 378 677 c 1
 478 677 l 1
 478 595 418 530 313 530 c 0
 208 530 148 595 148 677 c 1
EndSplineSet
EndChar

StartChar: Gdotaccent
Encoding: 288 288 278
Width: 814
VWidth: 0
Flags: HMW
LayerCount: 2
Fore
SplineSet
420 253 m 1
 420 383 l 1
 775 383 l 1
 686 253 l 1
 420 253 l 1
775 383 m 1
 787 161 656 -22 417 -22 c 0
 194 -22 34 128 34 350 c 0
 34 572 200 716 423 716 c 0
 571 716 673 647 739 550 c 1
 588 472 l 1
 556 527 505 568 423 568 c 0
 306 568 211 488 211 350 c 0
 211 212 300 125 423 125 c 0
 579 125 624 245 624 380 c 1
 775 383 l 1
335 858 m 0
 335 906 374 940 423 940 c 0
 472 940 511 906 511 858 c 0
 511 810 472 776 423 776 c 0
 374 776 335 810 335 858 c 0
EndSplineSet
EndChar

StartChar: gdotaccent
Encoding: 289 289 279
Width: 610
VWidth: 0
Flags: HM
LayerCount: 2
Fore
SplineSet
42 -33 m 1
 188 -33 l 1
 193 -89 234 -118 293 -118 c 0
 357 -118 408 -75 408 10 c 2
 408 460 l 1
 553 460 l 1
 553 10 l 2
 553 -168 440 -240 300 -240 c 0
 128 -240 53 -155 42 -33 c 1
32 236 m 0
 32 392 138 470 250 470 c 0
 365 470 450 385 450 236 c 0
 450 87 365 2 250 2 c 0
 138 2 32 80 32 236 c 0
191 236 m 0
 191 164 241 124 301 124 c 0
 352 124 408 161 408 236 c 0
 408 311 352 348 301 348 c 0
 241 348 191 308 191 236 c 0
242 617 m 4
 242 665 281 699 330 699 c 4
 379 699 418 665 418 617 c 4
 418 569 379 535 330 535 c 4
 281 535 242 569 242 617 c 4
EndSplineSet
EndChar

StartChar: uni0122
Encoding: 290 290 280
Width: 814
VWidth: 0
Flags: HMW
LayerCount: 2
Fore
SplineSet
420 253 m 1
 420 383 l 1
 775 383 l 1
 686 253 l 1
 420 253 l 1
775 383 m 1
 787 161 656 -22 417 -22 c 0
 194 -22 34 128 34 350 c 0
 34 572 200 716 423 716 c 0
 571 716 673 647 739 550 c 1
 588 472 l 1
 556 527 505 568 423 568 c 0
 306 568 211 488 211 350 c 0
 211 212 300 125 423 125 c 0
 579 125 624 245 624 380 c 1
 775 383 l 1
354 -82 m 1
 506 -115 l 1
 380 -365 l 1
 266 -342 l 1
 354 -82 l 1
EndSplineSet
EndChar

StartChar: Hcircumflex
Encoding: 292 292 281
Width: 786
VWidth: 0
Flags: HM
LayerCount: 2
Fore
SplineSet
120 293 m 1
 120 445 l 1
 650 445 l 1
 650 293 l 1
 120 293 l 1
544 700 m 1
 713 700 l 1
 713 0 l 1
 544 0 l 1
 544 700 l 1
74 700 m 1
 243 700 l 1
 243 0 l 1
 74 0 l 1
 74 700 l 1
394 862 m 1
 302 776 l 1
 196 848 l 1
 394 988 l 1
 591 848 l 1
 485 776 l 1
 394 862 l 1
EndSplineSet
EndChar

StartChar: hcircumflex
Encoding: 293 293 282
Width: 568
VWidth: 0
Flags: HM
LayerCount: 2
Fore
SplineSet
212 780 m 1
 212 0 l 1
 60 0 l 1
 60 780 l 1
 212 780 l 1
358 280 m 2
 358 334 341 364 291 364 c 0
 243 364 212 334 212 280 c 1
 182 280 l 1
 182 389 238 477 352 477 c 0
 466 477 510 414 510 302 c 2
 510 0 l 1
 358 0 l 1
 358 280 l 2
232 926 m 1
 141 840 l 1
 34 911 l 1
 232 1051 l 1
 430 911 l 1
 323 840 l 1
 232 926 l 1
EndSplineSet
EndChar

StartChar: Itilde
Encoding: 296 296 283
Width: 320
VWidth: 0
Flags: HMW
LayerCount: 2
Fore
SplineSet
74 700 m 1
 246 700 l 1
 246 0 l 1
 74 0 l 1
 74 700 l 1
-36 842 m 1
 -26 891 19 936 83 936 c 0
 149 936 164 884 220 884 c 0
 246 884 266 906 286 938 c 1
 357 864 l 1
 341 827 284 778 222 778 c 0
 167 778 133 831 83 831 c 0
 45 831 36 795 36 780 c 1
 -36 842 l 1
EndSplineSet
EndChar

StartChar: itilde
Encoding: 297 297 284
Width: 276
VWidth: 0
Flags: HM
LayerCount: 2
Fore
SplineSet
64 460 m 1
 211 460 l 1
 211 0 l 1
 64 0 l 1
 64 460 l 1
-58 596 m 1
 -48 645 -3 691 61 691 c 0
 127 691 142 639 198 639 c 0
 224 639 244 660 264 692 c 1
 334 618 l 1
 318 581 262 532 200 532 c 0
 145 532 110 586 60 586 c 0
 22 586 13 549 13 534 c 1
 -58 596 l 1
EndSplineSet
EndChar

StartChar: Imacron
Encoding: 298 298 285
Width: 320
VWidth: 0
Flags: HMW
LayerCount: 2
Fore
SplineSet
74 700 m 1
 246 700 l 1
 246 0 l 1
 74 0 l 1
 74 700 l 1
-26 776 m 1
 -26 908 l 1
 346 908 l 1
 346 776 l 1
 -26 776 l 1
EndSplineSet
EndChar

StartChar: imacron
Encoding: 299 299 286
Width: 276
VWidth: 0
Flags: HM
LayerCount: 2
Fore
SplineSet
64 460 m 1
 211 460 l 1
 211 0 l 1
 64 0 l 1
 64 460 l 1
-48 530 m 1
 -48 662 l 1
 324 662 l 1
 324 530 l 1
 -48 530 l 1
EndSplineSet
EndChar

StartChar: Ibreve
Encoding: 300 300 287
Width: 320
VWidth: 0
Flags: HMW
LayerCount: 2
Fore
SplineSet
74 700 m 1
 246 700 l 1
 246 0 l 1
 74 0 l 1
 74 700 l 1
-4 922 m 1
 95 922 l 1
 95 886 121 863 160 863 c 0
 199 863 225 886 225 922 c 1
 324 922 l 1
 324 840 265 776 160 776 c 0
 55 776 -4 840 -4 922 c 1
EndSplineSet
EndChar

StartChar: ibreve
Encoding: 301 301 288
Width: 276
VWidth: 0
Flags: HM
LayerCount: 2
Fore
SplineSet
64 460 m 1
 211 460 l 1
 211 0 l 1
 64 0 l 1
 64 460 l 1
-27 677 m 1
 72 677 l 1
 72 641 99 618 138 618 c 0
 177 618 202 641 202 677 c 1
 302 677 l 1
 302 595 243 530 138 530 c 0
 33 530 -27 595 -27 677 c 1
EndSplineSet
EndChar

StartChar: Iogonek
Encoding: 302 302 289
Width: 320
VWidth: 0
Flags: HMW
LayerCount: 2
Fore
SplineSet
74 700 m 1
 246 700 l 1
 246 0 l 1
 74 0 l 1
 74 700 l 1
224 -116 m 1
 258 -184 l 1
 243 -204 214 -224 158 -224 c 0
 93 -224 40 -190 40 -124 c 1
 139 -98 l 1
 139 -123 150 -136 174 -136 c 0
 194 -136 210 -129 224 -116 c 1
139 -98 m 1
 40 -124 l 1
 40 -58 108 -16 178 20 c 1
 220 -4 l 1
 168 -32 139 -68 139 -98 c 1
EndSplineSet
EndChar

StartChar: iogonek
Encoding: 303 303 290
Width: 276
VWidth: 0
Flags: HM
LayerCount: 2
Fore
SplineSet
50 632 m 0
 50 680 89 714 138 714 c 0
 187 714 226 680 226 632 c 0
 226 584 187 550 138 550 c 0
 89 550 50 584 50 632 c 0
64 460 m 1
 211 460 l 1
 211 0 l 1
 64 0 l 1
 64 460 l 1
202 -116 m 1
 236 -184 l 1
 221 -204 192 -224 136 -224 c 0
 71 -224 18 -190 18 -124 c 1
 117 -98 l 1
 117 -123 128 -136 152 -136 c 0
 172 -136 188 -129 202 -116 c 1
117 -98 m 1
 18 -124 l 1
 18 -58 86 -16 156 20 c 1
 198 -4 l 1
 146 -32 117 -68 117 -98 c 1
EndSplineSet
EndChar

StartChar: Idotaccent
Encoding: 304 304 291
Width: 320
VWidth: 0
Flags: HMW
LayerCount: 2
Fore
SplineSet
74 700 m 1
 246 700 l 1
 246 0 l 1
 74 0 l 1
 74 700 l 1
72 858 m 0
 72 906 111 940 160 940 c 0
 209 940 248 906 248 858 c 0
 248 810 209 776 160 776 c 0
 111 776 72 810 72 858 c 0
EndSplineSet
EndChar

StartChar: uni0136
Encoding: 310 310 292
Width: 700
VWidth: 0
Flags: HMW
LayerCount: 2
Fore
SplineSet
74 700 m 1
 250 700 l 1
 250 0 l 1
 74 0 l 1
 74 700 l 1
487 700 m 1
 686 700 l 1
 402 372 l 1
 701 0 l 1
 496 0 l 1
 200 367 l 1
 487 700 l 1
330 -60 m 1
 483 -92 l 1
 356 -342 l 1
 242 -319 l 1
 330 -60 l 1
EndSplineSet
EndChar

StartChar: uni0137
Encoding: 311 311 293
Width: 577
VWidth: 0
Flags: HM
LayerCount: 2
Fore
SplineSet
58 780 m 1
 203 780 l 1
 203 0 l 1
 58 0 l 1
 58 780 l 1
370 460 m 1
 551 460 l 1
 354 270 l 1
 571 0 l 1
 393 0 l 1
 174 270 l 1
 370 460 l 1
257 -60 m 1
 410 -92 l 1
 284 -342 l 1
 169 -319 l 1
 257 -60 l 1
EndSplineSet
EndChar

StartChar: Lacute
Encoding: 313 313 294
Width: 528
VWidth: 0
Flags: HM
LayerCount: 2
Fore
SplineSet
186 0 m 1
 186 146 l 1
 524 146 l 1
 524 0 l 1
 186 0 l 1
74 700 m 1
 243 700 l 1
 243 0 l 1
 74 0 l 1
 74 700 l 1
460 926 m 1
 280 776 l 1
 194 819 l 1
 344 979 l 1
 460 926 l 1
EndSplineSet
EndChar

StartChar: lacute
Encoding: 314 314 295
Width: 270
VWidth: 0
Flags: HM
LayerCount: 2
Fore
SplineSet
60 780 m 1
 212 780 l 1
 212 0 l 1
 60 0 l 1
 60 780 l 1
297 990 m 1
 117 840 l 1
 31 882 l 1
 181 1042 l 1
 297 990 l 1
EndSplineSet
EndChar

StartChar: uni013B
Encoding: 315 315 296
Width: 528
VWidth: 0
Flags: HM
LayerCount: 2
Fore
SplineSet
186 0 m 1
 186 146 l 1
 524 146 l 1
 524 0 l 1
 186 0 l 1
74 700 m 1
 243 700 l 1
 243 0 l 1
 74 0 l 1
 74 700 l 1
267 -60 m 1
 419 -92 l 1
 294 -342 l 1
 179 -319 l 1
 267 -60 l 1
EndSplineSet
EndChar

StartChar: uni013C
Encoding: 316 316 297
Width: 270
VWidth: 0
Flags: HM
LayerCount: 2
Fore
SplineSet
60 780 m 1
 212 780 l 1
 212 0 l 1
 60 0 l 1
 60 780 l 1
104 -60 m 1
 256 -92 l 1
 130 -342 l 1
 16 -319 l 1
 104 -60 l 1
EndSplineSet
EndChar

StartChar: Lcaron
Encoding: 317 317 298
Width: 528
VWidth: 0
Flags: HMW
LayerCount: 2
Fore
SplineSet
186 0 m 1
 186 146 l 1
 524 146 l 1
 524 0 l 1
 186 0 l 1
74 700 m 1
 243 700 l 1
 243 0 l 1
 74 0 l 1
 74 700 l 1
390 716 m 1
 542 684 l 1
 416 434 l 1
 302 458 l 1
 390 716 l 1
EndSplineSet
EndChar

StartChar: lcaron
Encoding: 318 318 299
Width: 270
VWidth: 0
Flags: HMW
LayerCount: 2
Fore
SplineSet
60 780 m 1
 212 780 l 1
 212 0 l 1
 60 0 l 1
 60 780 l 1
350 780 m 1
 501 748 l 1
 376 498 l 1
 262 521 l 1
 350 780 l 1
EndSplineSet
EndChar

StartChar: Ldot
Encoding: 319 319 300
Width: 528
VWidth: 0
Flags: HM
LayerCount: 2
Fore
SplineSet
186 0 m 1
 186 146 l 1
 524 146 l 1
 524 0 l 1
 186 0 l 1
74 700 m 1
 243 700 l 1
 243 0 l 1
 74 0 l 1
 74 700 l 1
314 418 m 0
 314 468 354 510 409 510 c 0
 464 510 503 468 503 418 c 0
 503 368 464 326 409 326 c 0
 354 326 314 368 314 418 c 0
EndSplineSet
EndChar

StartChar: ldot
Encoding: 320 320 301
Width: 476
VWidth: 0
Flags: HMW
LayerCount: 2
Fore
SplineSet
60 780 m 1
 212 780 l 1
 212 0 l 1
 60 0 l 1
 60 780 l 1
252 408 m 0
 252 458 292 501 347 501 c 0
 402 501 442 458 442 408 c 0
 442 358 402 316 347 316 c 0
 292 316 252 358 252 408 c 0
EndSplineSet
EndChar

StartChar: eth
Encoding: 240 240 302
Width: 669
VWidth: 0
Flags: HMW
LayerCount: 2
Fore
SplineSet
452 246 m 0
 452 317 402 365 335 365 c 0
 268 365 218 317 218 246 c 0
 218 175 268 128 335 128 c 0
 402 128 452 175 452 246 c 0
336 697 m 1
 538 440 l 2
 584 384 620 322 620 246 c 0
 620 74 492 -16 335 -16 c 0
 178 -16 50 74 50 246 c 0
 50 388 162 474 266 474 c 0
 316 474 346 465 384 429 c 1
 348 444 l 1
 122 697 l 1
 336 697 l 1
136 520 m 1
 136 598 l 1
 574 598 l 1
 574 520 l 1
 136 520 l 1
EndSplineSet
EndChar

StartChar: racute
Encoding: 341 341 303
Width: 411
VWidth: 0
Flags: HM
LayerCount: 2
Fore
SplineSet
208 460 m 1
 208 0 l 1
 60 0 l 1
 60 460 l 1
 208 460 l 1
341 303 m 1
 325 319 308 330 282 330 c 0
 238 330 208 293 208 227 c 1
 172 280 l 1
 172 389 246 471 324 471 c 0
 357 471 391 456 407 433 c 1
 341 303 l 1
394 681 m 1
 214 531 l 1
 129 574 l 1
 279 734 l 1
 394 681 l 1
EndSplineSet
EndChar

StartChar: rcaron
Encoding: 345 345 304
Width: 411
VWidth: 0
Flags: HM
LayerCount: 2
Fore
SplineSet
208 460 m 1
 208 0 l 1
 60 0 l 1
 60 460 l 1
 208 460 l 1
341 303 m 1
 325 319 308 330 282 330 c 0
 238 330 208 293 208 227 c 1
 172 280 l 1
 172 389 246 471 324 471 c 0
 357 471 391 456 407 433 c 1
 341 303 l 1
233 657 m 1
 324 742 l 1
 430 671 l 1
 233 531 l 1
 36 671 l 1
 142 742 l 1
 233 657 l 1
EndSplineSet
EndChar

StartChar: Rcaron
Encoding: 344 344 305
Width: 647
VWidth: 0
Flags: HMW
LayerCount: 2
Fore
SplineSet
248 317 m 1
 425 317 l 1
 644 0 l 1
 445 0 l 1
 248 317 l 1
74 700 m 1
 243 700 l 1
 243 0 l 1
 74 0 l 1
 74 700 l 1
180 556 m 1
 180 700 l 1
 330 700 l 2
 508 700 602 607 602 471 c 0
 602 335 508 242 330 242 c 2
 180 242 l 1
 180 374 l 1
 317 374 l 2
 385 374 426 407 426 465 c 0
 426 523 385 556 317 556 c 2
 180 556 l 1
313 902 m 1
 404 988 l 1
 510 916 l 1
 313 776 l 1
 116 916 l 1
 222 988 l 1
 313 902 l 1
EndSplineSet
EndChar

StartChar: uni0213
Encoding: 531 531 306
Width: 411
VWidth: 0
Flags: HM
LayerCount: 2
Fore
SplineSet
208 460 m 1
 208 0 l 1
 60 0 l 1
 60 460 l 1
 208 460 l 1
341 303 m 1
 325 319 308 330 282 330 c 0
 238 330 208 293 208 227 c 1
 172 280 l 1
 172 389 246 471 324 471 c 0
 357 471 391 456 407 433 c 1
 341 303 l 1
69 531 m 1
 168 531 l 1
 168 567 195 590 234 590 c 0
 273 590 298 567 298 531 c 1
 398 531 l 1
 398 613 339 678 234 678 c 0
 129 678 69 613 69 531 c 1
EndSplineSet
EndChar

StartChar: uni0212
Encoding: 530 530 307
Width: 647
VWidth: 0
Flags: HMW
LayerCount: 2
Fore
SplineSet
248 317 m 1
 425 317 l 1
 644 0 l 1
 445 0 l 1
 248 317 l 1
74 700 m 1
 243 700 l 1
 243 0 l 1
 74 0 l 1
 74 700 l 1
180 556 m 1
 180 700 l 1
 330 700 l 2
 508 700 602 607 602 471 c 0
 602 335 508 242 330 242 c 2
 180 242 l 1
 180 374 l 1
 317 374 l 2
 385 374 426 407 426 465 c 0
 426 523 385 556 317 556 c 2
 180 556 l 1
162 776 m 1
 262 776 l 1
 262 812 288 836 327 836 c 0
 366 836 392 812 392 776 c 1
 491 776 l 1
 491 858 432 922 327 922 c 0
 222 922 162 858 162 776 c 1
EndSplineSet
EndChar

StartChar: OE
Encoding: 338 338 308
Width: 985
VWidth: 0
Flags: HMW
LayerCount: 2
Fore
SplineSet
562 300 m 1
 562 436 l 1
 930 436 l 1
 930 300 l 1
 562 300 l 1
484 670 m 1
 647 670 l 1
 647 30 l 1
 484 30 l 1
 484 670 l 1
950 140 m 1
 950 0 l 1
 390 0 l 2
 187 0 34 141 34 350 c 0
 34 559 186 700 390 700 c 2
 950 700 l 1
 950 560 l 1
 568 560 l 1
 551 551 l 1
 421 551 l 2
 282 551 210 482 210 350 c 0
 210 218 283 149 421 149 c 2
 548 149 l 1
 572 140 l 1
 950 140 l 1
EndSplineSet
EndChar

StartChar: oe
Encoding: 339 339 309
Width: 900
VWidth: 0
Flags: HMW
LayerCount: 2
Fore
SplineSet
705 250 m 2
 705 324 676 369 617 369 c 0
 562 369 516 334 516 260 c 1
 514 230 l 1
 514 143 554 96 619 96 c 0
 673 96 706 121 732 159 c 1
 866 126 l 1
 826 50 741 -10 642 -10 c 0
 517 -10 430 91 430 230 c 0
 430 247 431 263 434 279 c 0
 453 392 539 470 658 470 c 0
 768 470 865 379 865 234 c 0
 865 226 864 206 863 198 c 1
 705 230 l 1
 705 250 l 2
481 198 m 1
 481 281 l 1
 844 281 l 1
 863 198 l 1
 481 198 l 1
35 230 m 0
 35 379 138 470 263 470 c 0
 388 470 466 379 466 230 c 0
 466 81 388 -10 263 -10 c 0
 138 -10 35 81 35 230 c 0
185 230 m 0
 185 155 232 115 292 115 c 0
 350 115 391 155 391 230 c 0
 391 305 350 345 292 345 c 0
 232 345 185 305 185 230 c 0
EndSplineSet
EndChar

StartChar: a.alt
Encoding: 65536 -1 310
Width: 616
VWidth: 0
Flags: HMW
LayerCount: 2
Fore
SplineSet
408 460 m 1
 560 460 l 1
 560 0 l 1
 408 0 l 1
 408 460 l 1
32 230 m 4
 32 386 138 470 250 470 c 4
 365 470 450 379 450 230 c 4
 450 81 365 -10 250 -10 c 4
 138 -10 32 74 32 230 c 4
191 230 m 4
 191 158 241 112 301 112 c 4
 352 112 408 155 408 230 c 4
 408 305 352 348 301 348 c 4
 241 348 191 302 191 230 c 4
EndSplineSet
EndChar

StartChar: Jcircumflex
Encoding: 308 308 312
Width: 330
VWidth: 0
Flags: HMW
LayerCount: 2
Fore
SplineSet
-72 -64 m 1
 -52 -82 -21 -96 9 -96 c 0
 39 -96 74 -76 74 -16 c 2
 74 700 l 1
 257 700 l 1
 257 -54 l 2
 257 -188 151 -239 26 -239 c 0
 -52 -239 -124 -208 -164 -182 c 1
 -72 -64 l 1
165 862 m 1
 74 776 l 1
 -32 848 l 1
 165 988 l 1
 362 848 l 1
 256 776 l 1
 165 862 l 1
EndSplineSet
EndChar

StartChar: jcircumflex
Encoding: 309 309 313
Width: 271
VWidth: 0
Flags: HMW
LayerCount: 2
Fore
SplineSet
-34 -77 m 1
 -20 -95 -5 -102 13 -102 c 0
 43 -102 61 -81 61 -34 c 2
 61 460 l 1
 207 460 l 1
 207 -72 l 2
 207 -174 149 -239 34 -239 c 0
 -34 -239 -72 -208 -94 -188 c 1
 -34 -77 l 1
134 616 m 1
 42 530 l 1
 -64 602 l 1
 134 742 l 1
 331 602 l 1
 225 530 l 1
 134 616 l 1
EndSplineSet
EndChar

StartChar: Nacute
Encoding: 323 323 314
Width: 793
VWidth: 0
Flags: HMW
LayerCount: 2
Fore
SplineSet
78 524 m 1
 74 735 l 1
 715 176 l 1
 720 -35 l 1
 78 524 l 1
557 700 m 1
 720 700 l 1
 720 -35 l 1
 557 150 l 1
 557 700 l 1
74 735 m 1
 237 550 l 1
 237 0 l 1
 74 0 l 1
 74 735 l 1
536 915 m 1
 356 765 l 1
 270 808 l 1
 420 968 l 1
 536 915 l 1
EndSplineSet
EndChar

StartChar: nacute
Encoding: 324 324 315
Width: 575
VWidth: 0
Flags: HM
LayerCount: 2
Fore
SplineSet
212 460 m 1
 212 0 l 1
 60 0 l 1
 60 460 l 1
 212 460 l 1
358 280 m 2
 358 334 341 364 291 364 c 0
 243 364 212 334 212 280 c 1
 182 274 l 1
 182 383 238 470 352 470 c 0
 466 470 516 408 516 296 c 2
 516 0 l 1
 358 0 l 1
 358 280 l 2
448 680 m 1
 268 530 l 1
 183 573 l 1
 333 733 l 1
 448 680 l 1
EndSplineSet
EndChar

StartChar: uni0145
Encoding: 325 325 316
Width: 793
VWidth: 0
Flags: HMW
LayerCount: 2
Fore
SplineSet
78 524 m 1
 74 735 l 1
 715 176 l 1
 720 -35 l 1
 78 524 l 1
557 700 m 1
 720 700 l 1
 720 -35 l 1
 557 150 l 1
 557 700 l 1
74 735 m 1
 237 550 l 1
 237 0 l 1
 74 0 l 1
 74 735 l 1
364 -54 m 1
 514 -86 l 1
 390 -336 l 1
 276 -313 l 1
 364 -54 l 1
EndSplineSet
EndChar

StartChar: uni0146
Encoding: 326 326 317
Width: 575
VWidth: 0
Flags: HM
LayerCount: 2
Fore
SplineSet
212 460 m 1
 212 0 l 1
 60 0 l 1
 60 460 l 1
 212 460 l 1
358 280 m 2
 358 334 341 364 291 364 c 0
 243 364 212 334 212 280 c 1
 182 274 l 1
 182 383 238 470 352 470 c 0
 466 470 516 408 516 296 c 2
 516 0 l 1
 358 0 l 1
 358 280 l 2
256 -60 m 1
 407 -92 l 1
 282 -342 l 1
 168 -319 l 1
 256 -60 l 1
EndSplineSet
EndChar

StartChar: Ncaron
Encoding: 327 327 318
Width: 793
VWidth: 0
Flags: HMW
LayerCount: 2
Fore
SplineSet
78 524 m 1
 74 735 l 1
 715 176 l 1
 720 -35 l 1
 78 524 l 1
557 700 m 1
 720 700 l 1
 720 -35 l 1
 557 150 l 1
 557 700 l 1
74 735 m 1
 237 550 l 1
 237 0 l 1
 74 0 l 1
 74 735 l 1
375 902 m 1
 466 988 l 1
 572 916 l 1
 375 776 l 1
 178 916 l 1
 284 988 l 1
 375 902 l 1
EndSplineSet
EndChar

StartChar: ncaron
Encoding: 328 328 319
Width: 575
VWidth: 0
Flags: HM
LayerCount: 2
Fore
SplineSet
212 460 m 1
 212 0 l 1
 60 0 l 1
 60 460 l 1
 212 460 l 1
358 280 m 2
 358 334 341 364 291 364 c 0
 243 364 212 334 212 280 c 1
 182 274 l 1
 182 383 238 470 352 470 c 0
 466 470 516 408 516 296 c 2
 516 0 l 1
 358 0 l 1
 358 280 l 2
287 656 m 1
 378 742 l 1
 484 670 l 1
 287 530 l 1
 90 670 l 1
 196 742 l 1
 287 656 l 1
EndSplineSet
EndChar

StartChar: Omacron
Encoding: 332 332 320
Width: 821
VWidth: 0
Flags: HM
LayerCount: 2
Fore
SplineSet
213 350 m 0
 213 226 292 140 410 140 c 0
 528 140 608 226 608 350 c 0
 608 474 532 560 410 560 c 0
 292 560 213 474 213 350 c 0
34 350 m 0
 34 566 196 716 410 716 c 0
 626 716 788 566 788 350 c 0
 788 134 630 -22 410 -22 c 0
 190 -22 34 134 34 350 c 0
225 776 m 1
 225 908 l 1
 596 908 l 1
 596 776 l 1
 225 776 l 1
EndSplineSet
EndChar

StartChar: omacron
Encoding: 333 333 321
Width: 589
VWidth: 0
Flags: HM
LayerCount: 2
Fore
SplineSet
32 230 m 0
 32 376 145 470 295 470 c 0
 445 470 558 376 558 230 c 0
 558 84 445 -10 295 -10 c 0
 145 -10 32 84 32 230 c 0
188 230 m 0
 188 159 236 115 295 115 c 0
 354 115 402 159 402 230 c 0
 402 301 354 346 295 346 c 0
 236 346 188 301 188 230 c 0
109 530 m 1
 109 662 l 1
 480 662 l 1
 480 530 l 1
 109 530 l 1
EndSplineSet
EndChar

StartChar: Obreve
Encoding: 334 334 322
Width: 821
VWidth: 0
Flags: HM
LayerCount: 2
Fore
SplineSet
213 350 m 0
 213 226 292 140 410 140 c 0
 528 140 608 226 608 350 c 0
 608 474 532 560 410 560 c 0
 292 560 213 474 213 350 c 0
34 350 m 0
 34 566 196 716 410 716 c 0
 626 716 788 566 788 350 c 0
 788 134 630 -22 410 -22 c 0
 190 -22 34 134 34 350 c 0
246 922 m 1
 346 922 l 1
 346 886 371 863 410 863 c 0
 449 863 476 886 476 922 c 1
 575 922 l 1
 575 840 515 776 410 776 c 0
 305 776 246 840 246 922 c 1
EndSplineSet
EndChar

StartChar: obreve
Encoding: 335 335 323
Width: 589
VWidth: 0
Flags: HM
LayerCount: 2
Fore
SplineSet
32 230 m 0
 32 376 145 470 295 470 c 0
 445 470 558 376 558 230 c 0
 558 84 445 -10 295 -10 c 0
 145 -10 32 84 32 230 c 0
188 230 m 0
 188 159 236 115 295 115 c 0
 354 115 402 159 402 230 c 0
 402 301 354 346 295 346 c 0
 236 346 188 301 188 230 c 0
130 677 m 1
 230 677 l 1
 230 641 256 618 295 618 c 0
 334 618 360 641 360 677 c 1
 459 677 l 1
 459 595 400 530 295 530 c 0
 190 530 130 595 130 677 c 1
EndSplineSet
EndChar

StartChar: Racute
Encoding: 340 340 324
Width: 647
VWidth: 0
Flags: HMW
LayerCount: 2
Fore
SplineSet
248 317 m 1
 425 317 l 1
 644 0 l 1
 445 0 l 1
 248 317 l 1
74 700 m 1
 243 700 l 1
 243 0 l 1
 74 0 l 1
 74 700 l 1
180 556 m 1
 180 700 l 1
 330 700 l 2
 508 700 602 607 602 471 c 0
 602 335 508 242 330 242 c 2
 180 242 l 1
 180 374 l 1
 317 374 l 2
 385 374 426 407 426 465 c 0
 426 523 385 556 317 556 c 2
 180 556 l 1
470 926 m 1
 290 776 l 1
 204 819 l 1
 354 979 l 1
 470 926 l 1
EndSplineSet
EndChar

StartChar: uni0156
Encoding: 342 342 325
Width: 647
VWidth: 0
Flags: HMW
LayerCount: 2
Fore
SplineSet
248 317 m 1
 425 317 l 1
 644 0 l 1
 445 0 l 1
 248 317 l 1
74 700 m 1
 243 700 l 1
 243 0 l 1
 74 0 l 1
 74 700 l 1
180 556 m 1
 180 700 l 1
 330 700 l 2
 508 700 602 607 602 471 c 0
 602 335 508 242 330 242 c 2
 180 242 l 1
 180 374 l 1
 317 374 l 2
 385 374 426 407 426 465 c 0
 426 523 385 556 317 556 c 2
 180 556 l 1
327 -60 m 1
 478 -92 l 1
 354 -342 l 1
 239 -319 l 1
 327 -60 l 1
EndSplineSet
EndChar

StartChar: uni0157
Encoding: 343 343 326
Width: 411
VWidth: 0
Flags: HM
LayerCount: 2
Fore
SplineSet
208 460 m 1
 208 0 l 1
 60 0 l 1
 60 460 l 1
 208 460 l 1
341 303 m 1
 325 319 308 330 282 330 c 0
 238 330 208 293 208 227 c 1
 172 280 l 1
 172 389 246 471 324 471 c 0
 357 471 391 456 407 433 c 1
 341 303 l 1
102 -60 m 1
 254 -92 l 1
 128 -342 l 1
 14 -319 l 1
 102 -60 l 1
EndSplineSet
EndChar

StartChar: Scedilla
Encoding: 350 350 327
Width: 625
VWidth: 0
Flags: HMW
LayerCount: 2
Fore
SplineSet
153 251 m 1
 201 167 249 125 323 125 c 0
 378 125 408 148 408 193 c 0
 408 252 344 270 264 302 c 0
 195 329 74 384 74 520 c 0
 74 638 176 716 321 716 c 0
 471 716 549 633 577 562 c 1
 450 489 l 1
 420 541 382 572 328 572 c 0
 279 572 248 550 248 514 c 0
 248 466 325 443 408 413 c 0
 506 379 586 316 586 196 c 0
 586 54 483 -22 319 -22 c 0
 191 -22 78 53 34 168 c 1
 153 251 l 1
291 61 m 1
 401 57 l 1
 296 -90 l 1
 204 -134 l 1
 291 61 l 1
443 -159 m 1
 346 -150 l 1
 346 -124 317 -118 286 -118 c 0
 276 -118 240 -119 204 -134 c 1
 268 -90 l 1
 295 -65 320 -61 352 -61 c 0
 392 -61 443 -93 443 -159 c 1
443 -159 m 1
 443 -231 375 -268 312 -268 c 0
 256 -268 215 -258 168 -228 c 1
 214 -160 l 1
 240 -178 272 -185 292 -185 c 0
 326 -185 346 -174 346 -150 c 1
 443 -159 l 1
EndSplineSet
EndChar

StartChar: scedilla
Encoding: 351 351 328
Width: 456
VWidth: 0
Flags: HMW
LayerCount: 2
Fore
SplineSet
83 174 m 1
 151 114 203 98 235 98 c 0
 262 98 280 105 280 128 c 0
 280 162 212 173 158 197 c 0
 98 225 42 256 42 336 c 0
 42 424 126 470 225 470 c 0
 305 470 373 440 422 402 c 1
 368 304 l 1
 332 340 272 360 235 360 c 0
 203 360 187 352 187 332 c 0
 187 305 248 290 306 268 c 0
 371 243 432 210 432 130 c 0
 432 24 367 -20 255 -20 c 0
 157 -20 76 19 18 75 c 1
 83 174 l 1
214 70 m 1
 326 66 l 1
 220 -80 l 1
 128 -124 l 1
 214 70 l 1
367 -150 m 1
 270 -140 l 1
 270 -114 240 -108 209 -108 c 0
 199 -108 164 -109 128 -124 c 1
 192 -80 l 1
 219 -55 243 -52 275 -52 c 0
 315 -52 367 -84 367 -150 c 1
367 -150 m 1
 367 -222 299 -258 236 -258 c 0
 180 -258 139 -250 92 -220 c 1
 137 -150 l 1
 163 -168 196 -176 216 -176 c 0
 250 -176 270 -164 270 -140 c 1
 367 -150 l 1
EndSplineSet
EndChar

StartChar: Zcaron
Encoding: 381 381 329
Width: 620
VWidth: 0
Flags: HMW
LayerCount: 2
Fore
SplineSet
57 548 m 1
 57 700 l 1
 606 700 l 1
 276 146 l 1
 570 146 l 1
 570 0 l 1
 8 0 l 1
 335 548 l 1
 57 548 l 1
331 902 m 1
 422 988 l 1
 529 916 l 1
 331 776 l 1
 134 916 l 1
 240 988 l 1
 331 902 l 1
EndSplineSet
EndChar

StartChar: zcaron
Encoding: 382 382 330
Width: 516
VWidth: 0
Flags: HMW
LayerCount: 2
Fore
SplineSet
158 138 m 1
 475 138 l 1
 475 0 l 1
 15 0 l 1
 158 138 l 1
58 460 m 1
 508 460 l 1
 356 322 l 1
 58 322 l 1
 58 460 l 1
362 460 m 1
 508 460 l 1
 180 0 l 1
 15 0 l 1
 362 460 l 1
282 656 m 1
 374 741 l 1
 480 670 l 1
 282 530 l 1
 85 670 l 1
 192 741 l 1
 282 656 l 1
EndSplineSet
EndChar

StartChar: Ydieresis
Encoding: 376 376 331
Width: 660
VWidth: 0
Flags: HM
LayerCount: 2
Fore
SplineSet
244 360 m 1
 416 360 l 1
 416 0 l 1
 244 0 l 1
 244 360 l 1
466 700 m 1
 662 700 l 1
 330 138 l 1
 -2 700 l 1
 194 700 l 1
 330 437 l 1
 466 700 l 1
384 858 m 0
 384 906 423 940 472 940 c 0
 521 940 560 906 560 858 c 0
 560 810 521 776 472 776 c 0
 423 776 384 810 384 858 c 0
100 858 m 4
 100 906 139 940 188 940 c 4
 237 940 276 906 276 858 c 4
 276 810 237 776 188 776 c 4
 139 776 100 810 100 858 c 4
EndSplineSet
EndChar

StartChar: Scaron
Encoding: 352 352 332
Width: 625
VWidth: 0
Flags: HMW
LayerCount: 2
Fore
SplineSet
153 251 m 1
 201 167 249 125 323 125 c 0
 378 125 408 148 408 193 c 0
 408 252 344 270 264 302 c 0
 195 329 74 384 74 520 c 0
 74 638 176 716 321 716 c 0
 471 716 549 633 577 562 c 1
 450 489 l 1
 420 541 382 572 328 572 c 0
 279 572 248 550 248 514 c 0
 248 466 325 443 408 413 c 0
 506 379 586 316 586 196 c 0
 586 54 483 -22 319 -22 c 0
 191 -22 78 53 34 168 c 1
 153 251 l 1
321 902 m 1
 412 988 l 1
 518 916 l 1
 321 776 l 1
 124 916 l 1
 230 988 l 1
 321 902 l 1
EndSplineSet
EndChar

StartChar: scaron
Encoding: 353 353 333
Width: 456
VWidth: 0
Flags: HMW
LayerCount: 2
Fore
SplineSet
83 174 m 1
 151 114 203 98 235 98 c 0
 262 98 280 105 280 128 c 0
 280 162 212 173 158 197 c 0
 98 225 42 256 42 336 c 0
 42 424 126 470 225 470 c 0
 305 470 373 440 422 402 c 1
 368 304 l 1
 332 340 272 360 235 360 c 0
 203 360 187 352 187 332 c 0
 187 305 248 290 306 268 c 0
 371 243 432 210 432 130 c 0
 432 24 367 -20 255 -20 c 0
 157 -20 76 19 18 75 c 1
 83 174 l 1
225 644 m 1
 316 730 l 1
 422 658 l 1
 225 518 l 1
 28 658 l 1
 134 730 l 1
 225 644 l 1
EndSplineSet
EndChar

StartChar: Lslash
Encoding: 321 321 334
Width: 526
VWidth: 0
Flags: HMW
LayerCount: 2
Fore
SplineSet
5 312 m 1
 -32 384 l 1
 323 622 l 1
 360 550 l 1
 5 312 l 1
198 0 m 1
 198 140 l 1
 517 140 l 1
 517 0 l 1
 198 0 l 1
74 700 m 1
 236 700 l 1
 236 0 l 1
 74 0 l 1
 74 700 l 1
EndSplineSet
EndChar

StartChar: lslash
Encoding: 322 322 335
Width: 266
VWidth: 0
Flags: HMW
LayerCount: 2
Fore
SplineSet
-6 312 m 1
 -43 384 l 1
 280 596 l 1
 317 524 l 1
 -6 312 l 1
61 780 m 1
 206 780 l 1
 206 0 l 1
 61 0 l 1
 61 780 l 1
EndSplineSet
EndChar

StartChar: uni0218
Encoding: 536 536 336
Width: 625
VWidth: 0
Flags: HMW
LayerCount: 2
Fore
SplineSet
153 251 m 1
 201 167 249 125 323 125 c 0
 378 125 408 148 408 193 c 0
 408 252 344 270 264 302 c 0
 195 329 74 384 74 520 c 0
 74 638 176 716 321 716 c 0
 471 716 549 633 577 562 c 1
 450 489 l 1
 420 541 382 572 328 572 c 0
 279 572 248 550 248 514 c 0
 248 466 325 443 408 413 c 0
 506 379 586 316 586 196 c 0
 586 54 483 -22 319 -22 c 0
 191 -22 78 53 34 168 c 1
 153 251 l 1
262 -70 m 1
 414 -102 l 1
 288 -352 l 1
 174 -329 l 1
 262 -70 l 1
EndSplineSet
EndChar

StartChar: uni0219
Encoding: 537 537 337
Width: 456
VWidth: 0
Flags: HMW
LayerCount: 2
Fore
SplineSet
83 174 m 1
 151 114 203 98 235 98 c 0
 262 98 280 105 280 128 c 0
 280 162 212 173 158 197 c 0
 98 225 42 256 42 336 c 0
 42 424 126 470 225 470 c 0
 305 470 373 440 422 402 c 1
 368 304 l 1
 332 340 272 360 235 360 c 0
 203 360 187 352 187 332 c 0
 187 305 248 290 306 268 c 0
 371 243 432 210 432 130 c 0
 432 24 367 -20 255 -20 c 0
 157 -20 76 19 18 75 c 1
 83 174 l 1
198 -67 m 1
 350 -100 l 1
 224 -350 l 1
 110 -326 l 1
 198 -67 l 1
EndSplineSet
EndChar

StartChar: pi
Encoding: 960 960 338
Width: 602
VWidth: 0
Flags: HMW
LayerCount: 2
Fore
SplineSet
90 430 m 1
 232 430 l 1
 232 0 l 1
 90 0 l 1
 90 430 l 1
30 460 m 1
 562 460 l 1
 562 335 l 1
 30 335 l 1
 30 460 l 1
340 430 m 1
 482 430 l 1
 482 178 l 2
 482 112 506 108 536 108 c 1
 536 -9 l 1
 408 -9 340 -1 340 121 c 2
 340 430 l 1
EndSplineSet
EndChar

StartChar: trademark
Encoding: 8482 8482 339
Width: 746
VWidth: 0
Flags: HMW
LayerCount: 2
Fore
SplineSet
30 624 m 1
 30 700 l 1
 307 700 l 1
 307 624 l 1
 210 624 l 1
 210 350 l 1
 126 350 l 1
 126 624 l 1
 30 624 l 1
602 593 m 1
 664 717 l 1
 720 350 l 1
 631 350 l 1
 602 593 l 1
365 717 m 1
 427 593 l 1
 398 350 l 1
 308 350 l 1
 365 717 l 1
664 717 m 1
 664 602 l 1
 514 382 l 1
 365 602 l 1
 365 717 l 1
 514 504 l 1
 664 717 l 1
EndSplineSet
EndChar

StartChar: uni2219
Encoding: 8729 8729 340
Width: 322
VWidth: 0
Flags: HMW
LayerCount: 2
Fore
SplineSet
67 443 m 0
 67 493 106 536 161 536 c 0
 216 536 256 493 256 443 c 0
 256 393 216 350 161 350 c 0
 106 350 67 393 67 443 c 0
EndSplineSet
EndChar

StartChar: agrave.alt
Encoding: 65537 -1 341
Width: 616
VWidth: 0
Flags: HMW
LayerCount: 2
Fore
SplineSet
408 460 m 1
 560 460 l 1
 560 0 l 1
 408 0 l 1
 408 460 l 1
32 230 m 0
 32 386 138 470 250 470 c 0
 365 470 450 379 450 230 c 0
 450 81 365 -10 250 -10 c 0
 138 -10 32 74 32 230 c 0
191 230 m 0
 191 158 241 112 301 112 c 0
 352 112 408 155 408 230 c 0
 408 305 352 348 301 348 c 0
 241 348 191 302 191 230 c 0
140 680 m 5
 256 732 l 5
 406 572 l 5
 320 530 l 5
 140 680 l 5
EndSplineSet
EndChar

StartChar: aacute.alt
Encoding: 65538 -1 342
Width: 616
VWidth: 0
Flags: HMW
LayerCount: 2
Fore
SplineSet
408 460 m 1
 560 460 l 1
 560 0 l 1
 408 0 l 1
 408 460 l 1
32 230 m 0
 32 386 138 470 250 470 c 0
 365 470 450 379 450 230 c 0
 450 81 365 -10 250 -10 c 0
 138 -10 32 74 32 230 c 0
191 230 m 0
 191 158 241 112 301 112 c 0
 352 112 408 155 408 230 c 0
 408 305 352 348 301 348 c 0
 241 348 191 302 191 230 c 0
480 680 m 5
 300 530 l 5
 214 572 l 5
 364 732 l 5
 480 680 l 5
EndSplineSet
EndChar

StartChar: acircumflex.alt
Encoding: 65539 -1 343
Width: 616
VWidth: 0
Flags: HMW
LayerCount: 2
Fore
SplineSet
408 460 m 1
 560 460 l 1
 560 0 l 1
 408 0 l 1
 408 460 l 1
32 230 m 0
 32 386 138 470 250 470 c 0
 365 470 450 379 450 230 c 0
 450 81 365 -10 250 -10 c 0
 138 -10 32 74 32 230 c 0
191 230 m 0
 191 158 241 112 301 112 c 0
 352 112 408 155 408 230 c 0
 408 305 352 348 301 348 c 0
 241 348 191 302 191 230 c 0
310 616 m 5
 219 530 l 5
 112 601 l 5
 310 741 l 5
 508 601 l 5
 401 530 l 5
 310 616 l 5
EndSplineSet
EndChar

StartChar: atilde.alt
Encoding: 65540 -1 344
Width: 616
VWidth: 0
Flags: HMW
LayerCount: 2
Fore
SplineSet
408 460 m 1
 560 460 l 1
 560 0 l 1
 408 0 l 1
 408 460 l 1
32 230 m 0
 32 386 138 470 250 470 c 0
 365 470 450 379 450 230 c 0
 450 81 365 -10 250 -10 c 0
 138 -10 32 74 32 230 c 0
191 230 m 0
 191 158 241 112 301 112 c 0
 352 112 408 155 408 230 c 0
 408 305 352 348 301 348 c 0
 241 348 191 302 191 230 c 0
123.5 595 m 5
 133.5 644 178.5 689 242.5 689 c 4
 308.5 689 323.5 637 379.5 637 c 4
 405.5 637 424.5 658 444.5 690 c 5
 516.5 615 l 5
 500.5 578 444.5 530 382.5 530 c 4
 327.5 530 292.5 583 242.5 583 c 4
 204.5 583 194.5 548 194.5 533 c 5
 123.5 595 l 5
EndSplineSet
EndChar

StartChar: adieresis.alt
Encoding: 65541 -1 345
Width: 616
VWidth: 0
Flags: HMW
LayerCount: 2
Fore
SplineSet
408 460 m 1
 560 460 l 1
 560 0 l 1
 408 0 l 1
 408 460 l 1
32 230 m 0
 32 386 138 470 250 470 c 0
 365 470 450 379 450 230 c 0
 450 81 365 -10 250 -10 c 0
 138 -10 32 74 32 230 c 0
191 230 m 0
 191 158 241 112 301 112 c 0
 352 112 408 155 408 230 c 0
 408 305 352 348 301 348 c 0
 241 348 191 302 191 230 c 0
344 612 m 4
 344 660 383 694 432 694 c 4
 481 694 520 660 520 612 c 4
 520 564 481 530 432 530 c 4
 383 530 344 564 344 612 c 4
100 612 m 4
 100 660 139 694 188 694 c 4
 237 694 276 660 276 612 c 4
 276 564 237 530 188 530 c 4
 139 530 100 564 100 612 c 4
EndSplineSet
EndChar

StartChar: aring.alt
Encoding: 65542 -1 346
Width: 616
VWidth: 0
Flags: HMW
LayerCount: 2
Fore
SplineSet
408 460 m 1
 560 460 l 1
 560 0 l 1
 408 0 l 1
 408 460 l 1
32 230 m 0
 32 386 138 470 250 470 c 0
 365 470 450 379 450 230 c 0
 450 81 365 -10 250 -10 c 0
 138 -10 32 74 32 230 c 0
191 230 m 0
 191 158 241 112 301 112 c 0
 352 112 408 155 408 230 c 0
 408 305 352 348 301 348 c 0
 241 348 191 302 191 230 c 0
195 646 m 4
 195 715 250 761 320 761 c 4
 390 761 445 715 445 646 c 4
 445 577 390 530 320 530 c 4
 250 530 195 577 195 646 c 4
274 646 m 4
 274 616 295 598 320 598 c 4
 345 598 366 616 366 646 c 4
 366 676 345 694 320 694 c 4
 295 694 274 676 274 646 c 4
EndSplineSet
EndChar

StartChar: amacron.alt
Encoding: 65543 -1 347
Width: 616
VWidth: 0
Flags: HMW
LayerCount: 2
Fore
SplineSet
408 460 m 1
 560 460 l 1
 560 0 l 1
 408 0 l 1
 408 460 l 1
32 230 m 0
 32 386 138 470 250 470 c 0
 365 470 450 379 450 230 c 0
 450 81 365 -10 250 -10 c 0
 138 -10 32 74 32 230 c 0
191 230 m 0
 191 158 241 112 301 112 c 0
 352 112 408 155 408 230 c 0
 408 305 352 348 301 348 c 0
 241 348 191 302 191 230 c 0
124 530 m 5
 124 661 l 5
 496 661 l 5
 496 530 l 5
 124 530 l 5
EndSplineSet
EndChar

StartChar: abreve.alt
Encoding: 65544 -1 348
Width: 616
VWidth: 0
Flags: HMW
LayerCount: 2
Fore
SplineSet
408 460 m 1
 560 460 l 1
 560 0 l 1
 408 0 l 1
 408 460 l 1
32 230 m 0
 32 386 138 470 250 470 c 0
 365 470 450 379 450 230 c 0
 450 81 365 -10 250 -10 c 0
 138 -10 32 74 32 230 c 0
191 230 m 0
 191 158 241 112 301 112 c 0
 352 112 408 155 408 230 c 0
 408 305 352 348 301 348 c 0
 241 348 191 302 191 230 c 0
145 676 m 5
 245 676 l 5
 245 640 271 616 310 616 c 4
 349 616 375 640 375 676 c 5
 475 676 l 5
 475 594 415 530 310 530 c 4
 205 530 145 594 145 676 c 5
EndSplineSet
EndChar

StartChar: aogonek.alt
Encoding: 65545 -1 349
Width: 616
VWidth: 0
Flags: HMW
LayerCount: 2
Fore
SplineSet
408 460 m 1
 560 460 l 1
 560 0 l 1
 408 0 l 1
 408 460 l 1
32 230 m 0
 32 386 138 470 250 470 c 0
 365 470 450 379 450 230 c 0
 450 81 365 -10 250 -10 c 0
 138 -10 32 74 32 230 c 0
191 230 m 0
 191 158 241 112 301 112 c 0
 352 112 408 155 408 230 c 0
 408 305 352 348 301 348 c 0
 241 348 191 302 191 230 c 0
535 -111 m 5
 568 -180 l 5
 553 -200 523 -220 467 -220 c 4
 402 -220 351 -186 351 -120 c 5
 449 -94 l 5
 449 -119 461 -131 485 -131 c 4
 505 -131 521 -124 535 -111 c 5
449 -94 m 5
 351 -120 l 5
 351 -54 419 -11 489 25 c 5
 530 0 l 5
 478 -28 449 -64 449 -94 c 5
EndSplineSet
EndChar

StartChar: dagger
Encoding: 8224 8224 350
Width: 632
VWidth: 0
Flags: HMW
LayerCount: 2
Fore
SplineSet
90 540 m 1
 542 540 l 1
 542 415 l 1
 90 415 l 1
 90 540 l 1
245 700 m 1
 388 700 l 1
 388 -150 l 1
 245 -150 l 1
 245 700 l 1
EndSplineSet
EndChar

StartChar: daggerdbl
Encoding: 8225 8225 351
Width: 632
VWidth: 0
Flags: HMW
LayerCount: 2
Fore
SplineSet
90 158 m 1
 542 158 l 1
 542 32 l 1
 90 32 l 1
 90 158 l 1
90 540 m 1
 542 540 l 1
 542 415 l 1
 90 415 l 1
 90 540 l 1
245 700 m 1
 388 700 l 1
 388 -150 l 1
 245 -150 l 1
 245 700 l 1
EndSplineSet
EndChar

StartChar: ellipsis
Encoding: 8230 8230 352
Width: 925
VWidth: 0
Flags: HMW
LayerCount: 2
Fore
SplineSet
67 68 m 0
 67 118 106 160 161 160 c 0
 216 160 256 118 256 68 c 0
 256 18 216 -24 161 -24 c 0
 106 -24 67 18 67 68 c 0
367 68 m 0
 367 118 406 160 461 160 c 0
 516 160 556 118 556 68 c 0
 556 18 516 -24 461 -24 c 0
 406 -24 367 18 367 68 c 0
667 68 m 0
 667 118 706 160 761 160 c 0
 816 160 856 118 856 68 c 0
 856 18 816 -24 761 -24 c 0
 706 -24 667 18 667 68 c 0
EndSplineSet
EndChar

StartChar: uniFF10
Encoding: 65296 65296 353
Width: 630
VWidth: 0
Flags: HMW
LayerCount: 2
Fore
SplineSet
186 350 m 0
 186 218 237 132 314 132 c 0
 391 132 442 218 442 350 c 0
 442 482 391 568 314 568 c 0
 237 568 186 482 186 350 c 0
23 350 m 0
 23 578 141 713 314 713 c 0
 493 713 606 578 606 350 c 0
 606 122 493 -13 314 -13 c 0
 141 -13 23 122 23 350 c 0
EndSplineSet
EndChar

StartChar: uniFF11
Encoding: 65297 65297 354
Width: 630
VWidth: 0
Flags: HMW
LayerCount: 2
Fore
SplineSet
108 498 m 1
 108 645 l 1
 446 713 l 1
 446 0 l 1
 282 0 l 1
 282 540 l 1
 108 498 l 1
EndSplineSet
EndChar

StartChar: uniFF12
Encoding: 65298 65298 355
Width: 630
VWidth: 0
Flags: HMW
LayerCount: 2
Fore
SplineSet
13 0 m 1
 325 323 l 2
 381 383 415 424 415 480 c 0
 415 524 386 568 322 568 c 0
 257 568 212 516 212 441 c 1
 46 441 l 1
 46 590 145 714 327 714 c 0
 501 714 590 598 590 488 c 0
 590 413 549 352 489 300 c 2
 326 155 l 1
 607 155 l 1
 607 0 l 1
 13 0 l 1
EndSplineSet
EndChar

StartChar: uniFF13
Encoding: 65299 65299 356
Width: 630
VWidth: 0
Flags: HMW
LayerCount: 2
Fore
SplineSet
273 338 m 1
 273 415 l 1
 351 415 402 458 402 508 c 0
 402 549 376 578 323 578 c 0
 271 578 232 543 232 495 c 1
 76 495 l 1
 76 619 174 713 324 713 c 0
 482 713 570 627 570 519 c 0
 570 398 439 338 273 338 c 1
316 -16 m 0
 146 -16 46 98 46 222 c 1
 213 222 l 1
 213 153 264 120 322 120 c 0
 380 120 422 148 422 208 c 0
 422 266 375 306 273 306 c 1
 273 392 l 1
 458 392 590 334 590 192 c 0
 590 70 488 -16 316 -16 c 0
EndSplineSet
EndChar

StartChar: uniFF14
Encoding: 65300 65300 357
Width: 630
VWidth: 0
Flags: HMW
LayerCount: 2
Fore
SplineSet
12 124 m 1
 150 246 l 1
 428 246 l 0
 446 268 l 0
 610 268 l 1
 610 124 l 1
 12 124 l 1
170 174 m 1
 12 124 l 1
 387 700 l 25
 513 700 l 1
 513 0 l 1
 337 0 l 1
 337 160 l 0
 356 172 l 0
 356 454 l 1
 170 174 l 1
EndSplineSet
EndChar

StartChar: uniFF15
Encoding: 65301 65301 358
Width: 630
VWidth: 0
Flags: HMW
LayerCount: 2
Fore
SplineSet
591 224 m 0
 591 58 443 -13 308 -13 c 0
 179 -13 93 29 28 78 c 1
 94 217 l 1
 150 169 218 142 270 142 c 0
 354 142 406 174 406 242 c 0
 406 310 338 340 270 340 c 0
 216 340 145 332 74 296 c 1
 192 380 l 1
 244 436 306 453 378 453 c 0
 488 453 591 370 591 224 c 0
296 553 m 1
 238 380 l 1
 74 296 l 1
 171 700 l 1
 576 700 l 1
 576 553 l 1
 296 553 l 1
EndSplineSet
EndChar

StartChar: uniFF16
Encoding: 65302 65302 359
Width: 630
VWidth: 0
Flags: HMW
LayerCount: 2
Fore
SplineSet
196 246 m 0
 196 175 247 128 314 128 c 0
 381 128 432 175 432 246 c 0
 432 317 381 365 314 365 c 0
 247 365 196 317 196 246 c 0
312 697 m 1
 527 697 l 1
 300 444 l 1
 266 429 l 1
 304 465 333 474 383 474 c 0
 487 474 599 388 599 246 c 0
 599 74 471 -16 314 -16 c 0
 157 -16 30 74 30 246 c 0
 30 322 65 384 111 440 c 2
 312 697 l 1
EndSplineSet
EndChar

StartChar: uniFF17
Encoding: 65303 65303 360
Width: 630
VWidth: 0
Flags: HMW
LayerCount: 2
Fore
SplineSet
38 542 m 1
 38 700 l 1
 610 700 l 1
 272 0 l 1
 89 0 l 1
 361 542 l 1
 38 542 l 1
EndSplineSet
EndChar

StartChar: uniFF18
Encoding: 65304 65304 361
Width: 630
VWidth: 0
Flags: HMW
LayerCount: 2
Fore
SplineSet
90 531 m 0
 90 649 199 716 328 716 c 0
 457 716 564 649 564 531 c 0
 564 403 443 342 328 342 c 0
 213 342 90 403 90 531 c 0
250 514 m 0
 250 467 284 435 328 435 c 0
 372 435 405 467 405 514 c 0
 405 561 374 594 328 594 c 0
 282 594 250 561 250 514 c 0
66 190 m 0
 66 338 213 396 328 396 c 0
 443 396 589 338 589 190 c 0
 589 62 466 -16 328 -16 c 0
 190 -16 66 62 66 190 c 0
234 216 m 0
 234 155 277 122 328 122 c 0
 379 122 420 155 420 216 c 0
 420 267 379 307 328 307 c 0
 277 307 234 267 234 216 c 0
EndSplineSet
EndChar

StartChar: uniFF19
Encoding: 65305 65305 362
Width: 630
VWidth: 0
Flags: HMW
LayerCount: 2
Fore
SplineSet
432 454 m 0
 432 525 381 572 314 572 c 0
 247 572 196 525 196 454 c 0
 196 383 247 335 314 335 c 0
 381 335 432 383 432 454 c 0
316 3 m 1
 102 3 l 1
 328 256 l 1
 363 271 l 1
 325 235 296 226 246 226 c 0
 142 226 30 312 30 454 c 0
 30 626 157 716 314 716 c 0
 471 716 599 626 599 454 c 0
 599 378 564 316 518 260 c 2
 316 3 l 1
EndSplineSet
EndChar

StartChar: caron
Encoding: 711 711 363
Width: 480
VWidth: 0
Flags: HMW
LayerCount: 2
Fore
SplineSet
240 676 m 1
 331 762 l 1
 438 690 l 1
 240 550 l 1
 42 690 l 1
 149 762 l 1
 240 676 l 1
EndSplineSet
EndChar

StartChar: napostrophe
Encoding: 329 329 364
Width: 747
VWidth: 0
Flags: HMW
LayerCount: 2
Fore
SplineSet
384 460 m 1
 384 0 l 1
 232 0 l 1
 232 460 l 1
 384 460 l 1
530 280 m 2
 530 334 513 364 463 364 c 0
 415 364 384 334 384 280 c 1
 354 274 l 1
 354 383 410 470 524 470 c 0
 638 470 688 408 688 296 c 2
 688 0 l 1
 530 0 l 1
 530 280 l 2
111 700 m 1
 268 700 l 1
 166 445 l 1
 58 445 l 1
 111 700 l 1
EndSplineSet
EndChar

StartChar: IJ
Encoding: 306 306 365
Width: 624
VWidth: 0
Flags: HMW
LayerCount: 2
Fore
SplineSet
222 -64 m 1
 242 -82 272 -96 302 -96 c 0
 332 -96 368 -76 368 -16 c 2
 368 700 l 1
 550 700 l 1
 550 -54 l 2
 550 -188 445 -239 320 -239 c 0
 242 -239 170 -208 130 -182 c 1
 222 -64 l 1
74 700 m 1
 246 700 l 1
 246 0 l 1
 74 0 l 1
 74 700 l 1
EndSplineSet
EndChar

StartChar: ij
Encoding: 307 307 366
Width: 545
VWidth: 0
Flags: HMW
LayerCount: 2
Fore
SplineSet
318 632 m 0
 318 680 358 714 407 714 c 0
 456 714 495 680 495 632 c 0
 495 584 456 550 407 550 c 0
 358 550 318 584 318 632 c 0
240 -77 m 1
 254 -95 268 -102 286 -102 c 0
 316 -102 334 -81 334 -34 c 2
 334 460 l 1
 480 460 l 1
 480 -72 l 2
 480 -174 421 -239 306 -239 c 0
 238 -239 200 -208 178 -188 c 1
 240 -77 l 1
50 632 m 0
 50 680 89 714 138 714 c 0
 187 714 226 680 226 632 c 0
 226 584 187 550 138 550 c 0
 89 550 50 584 50 632 c 0
64 460 m 1
 211 460 l 1
 211 0 l 1
 64 0 l 1
 64 460 l 1
EndSplineSet
EndChar

StartChar: uni0237
Encoding: 567 567 367
Width: 271
VWidth: 0
Flags: HMW
LayerCount: 2
Fore
SplineSet
-34 -77 m 1
 -20 -95 -5 -102 13 -102 c 0
 43 -102 61 -81 61 -34 c 2
 61 460 l 1
 207 460 l 1
 207 -72 l 2
 207 -174 149 -239 34 -239 c 0
 -34 -239 -72 -208 -94 -188 c 1
 -34 -77 l 1
EndSplineSet
EndChar

StartChar: Sacute
Encoding: 346 346 368
Width: 625
VWidth: 0
Flags: HM
LayerCount: 2
Fore
SplineSet
153 251 m 1
 201 167 249 125 323 125 c 0
 378 125 408 148 408 193 c 0
 408 252 344 270 264 302 c 0
 195 329 74 384 74 520 c 0
 74 638 176 716 321 716 c 0
 471 716 549 633 577 562 c 1
 450 489 l 1
 420 541 382 572 328 572 c 0
 279 572 248 550 248 514 c 0
 248 466 325 443 408 413 c 0
 506 379 586 316 586 196 c 0
 586 54 483 -22 319 -22 c 0
 191 -22 78 53 34 168 c 1
 153 251 l 1
501 926 m 1
 321 776 l 1
 236 819 l 1
 386 979 l 1
 501 926 l 1
EndSplineSet
EndChar

StartChar: sacute
Encoding: 347 347 369
Width: 456
VWidth: 0
Flags: HM
LayerCount: 2
Fore
SplineSet
83 174 m 1
 151 114 203 98 235 98 c 0
 262 98 280 105 280 128 c 0
 280 162 212 173 158 197 c 0
 98 225 42 256 42 336 c 0
 42 424 126 470 225 470 c 0
 305 470 373 440 422 402 c 1
 368 304 l 1
 332 340 272 360 235 360 c 0
 203 360 187 352 187 332 c 0
 187 305 248 290 306 268 c 0
 371 243 432 210 432 130 c 0
 432 24 367 -20 255 -20 c 0
 157 -20 76 19 18 75 c 1
 83 174 l 1
405 680 m 1
 225 530 l 1
 139 573 l 1
 289 733 l 1
 405 680 l 1
EndSplineSet
EndChar

StartChar: Scircumflex
Encoding: 348 348 370
Width: 625
VWidth: 0
Flags: HM
LayerCount: 2
Fore
SplineSet
153 251 m 1
 201 167 249 125 323 125 c 0
 378 125 408 148 408 193 c 0
 408 252 344 270 264 302 c 0
 195 329 74 384 74 520 c 0
 74 638 176 716 321 716 c 0
 471 716 549 633 577 562 c 1
 450 489 l 1
 420 541 382 572 328 572 c 0
 279 572 248 550 248 514 c 0
 248 466 325 443 408 413 c 0
 506 379 586 316 586 196 c 0
 586 54 483 -22 319 -22 c 0
 191 -22 78 53 34 168 c 1
 153 251 l 1
321 862 m 1
 230 776 l 1
 124 848 l 1
 321 988 l 1
 518 848 l 1
 412 776 l 1
 321 862 l 1
EndSplineSet
EndChar

StartChar: scircumflex
Encoding: 349 349 371
Width: 456
VWidth: 0
Flags: HM
LayerCount: 2
Fore
SplineSet
83 174 m 1
 151 114 203 98 235 98 c 0
 262 98 280 105 280 128 c 0
 280 162 212 173 158 197 c 0
 98 225 42 256 42 336 c 0
 42 424 126 470 225 470 c 0
 305 470 373 440 422 402 c 1
 368 304 l 1
 332 340 272 360 235 360 c 0
 203 360 187 352 187 332 c 0
 187 305 248 290 306 268 c 0
 371 243 432 210 432 130 c 0
 432 24 367 -20 255 -20 c 0
 157 -20 76 19 18 75 c 1
 83 174 l 1
238 616 m 1
 146 530 l 1
 40 602 l 1
 238 742 l 1
 435 602 l 1
 328 530 l 1
 238 616 l 1
EndSplineSet
EndChar

StartChar: uni1E9E
Encoding: 7838 7838 372
Width: 874
VWidth: 0
Flags: HMW
LayerCount: 2
Fore
SplineSet
80 363 m 1
 242 341 l 1
 242 0 l 1
 80 0 l 1
 80 363 l 1
502 345 m 1
 502 414 l 1
 581 414 626 449 626 504 c 0
 626 553 577 585 477 585 c 0
 352 585 242 516 242 341 c 1
 80 363 l 1
 80 581 239 710 471 710 c 0
 673 710 793 637 793 523 c 0
 793 414 677 345 502 345 c 1
549 -16 m 0
 369 -16 295 110 295 219 c 1
 438 219 l 1
 438 159 482 115 549 115 c 0
 618 115 652 147 652 206 c 0
 652 275 592 308 502 308 c 1
 502 380 l 1
 677 380 813 324 813 185 c 0
 813 66 702 -16 549 -16 c 0
EndSplineSet
EndChar

StartChar: Zacute
Encoding: 377 377 373
Width: 620
VWidth: 0
Flags: HO
LayerCount: 2
Fore
SplineSet
57 548 m 1
 57 700 l 1
 606 700 l 1
 274 146 l 1
 570 146 l 1
 570 0 l 1
 8 0 l 1
 336 548 l 1
 57 548 l 1
501.5 926 m 5
 321.5 776 l 5
 235.5 818 l 5
 385.5 978 l 5
 501.5 926 l 5
EndSplineSet
EndChar

StartChar: zacute
Encoding: 378 378 374
Width: 522
VWidth: 0
Flags: H
LayerCount: 2
Fore
SplineSet
256 322 m 1
 58 322 l 1
 58 460 l 1
 508 460 l 1
 278 138 l 1
 475 138 l 1
 475 0 l 1
 15 0 l 1
 256 322 l 1
453 680 m 5
 273 530 l 5
 187 572 l 5
 337 732 l 5
 453 680 l 5
EndSplineSet
EndChar

StartChar: Zdotaccent
Encoding: 379 379 375
Width: 620
VWidth: 0
Flags: H
LayerCount: 2
Fore
SplineSet
57 548 m 1
 57 700 l 1
 606 700 l 1
 274 146 l 1
 570 146 l 1
 570 0 l 1
 8 0 l 1
 336 548 l 1
 57 548 l 1
243.5 858 m 0
 243.5 906 282.5 940 331.5 940 c 0
 380.5 940 419.5 906 419.5 858 c 0
 419.5 810 380.5 776 331.5 776 c 0
 282.5 776 243.5 810 243.5 858 c 0
EndSplineSet
EndChar

StartChar: zdotaccent
Encoding: 380 380 376
Width: 522
VWidth: 0
Flags: H
LayerCount: 2
Fore
SplineSet
256 322 m 1
 58 322 l 1
 58 460 l 1
 508 460 l 1
 278 138 l 1
 475 138 l 1
 475 0 l 1
 15 0 l 1
 256 322 l 1
195 622 m 4
 195 670 234 704 283 704 c 4
 332 704 371 670 371 622 c 4
 371 574 332 540 283 540 c 4
 234 540 195 574 195 622 c 4
EndSplineSet
EndChar
